<svg width="93" height="43" viewBox="0 0 93 43" fill="none" xmlns="http://www.w3.org/2000/svg">
<g filter="url(#filter0_f_1_3167)">
<path d="M6 26.7701V8.38373H10.543V26.7701H6Z" fill="white"/>
<path d="M15.2312 24.9103C13.8584 23.5495 13.1722 21.7328 13.1722 19.4629C13.1722 17.1929 13.8584 15.3812 15.2312 14.0279C16.6033 12.6754 18.3793 11.9979 20.5577 11.9979C22.364 11.9979 23.896 12.4396 25.1536 13.3205C26.4109 14.2031 27.2435 15.4643 27.6511 17.1057H22.7364C22.3111 16.2331 21.616 15.7964 20.6508 15.7964C19.6853 15.7964 18.9682 16.1326 18.4991 16.8035C18.0293 17.476 17.7951 18.3628 17.7951 19.4629C17.7951 20.563 18.0293 21.4489 18.4991 22.1214C18.9682 22.7931 19.6544 23.1302 20.5577 23.1302C21.1245 23.1302 21.5673 23.033 21.8864 22.8421C22.2048 22.6503 22.488 22.309 22.7364 21.82H27.6511C27.2435 23.3917 26.4024 24.6405 25.127 25.5646C23.8519 26.4911 22.3289 26.9528 20.5577 26.9528C18.3793 26.9528 16.6033 26.2728 15.2312 24.9103Z" fill="white"/>
<path d="M38.8362 22.1862C39.4379 21.5585 39.7396 20.6502 39.7396 19.4629C39.7396 18.2756 39.4293 17.3714 38.8096 16.752C38.1892 16.1326 37.4546 15.8221 36.6043 15.8221C35.7546 15.8221 35.0239 16.1326 34.413 16.752C33.8015 17.3714 33.4965 18.2756 33.4965 19.4629C33.4965 20.6502 33.8107 21.5585 34.4393 22.1862C35.0676 22.8155 35.8075 23.1302 36.6575 23.1302C37.5079 23.1302 38.2336 22.8155 38.8362 22.1862ZM31.1185 24.8846C29.6217 23.5055 28.874 21.6888 28.874 19.4363C28.874 17.1838 29.6178 15.3812 31.1054 14.0279C32.5933 12.6754 34.4351 11.9979 36.6312 11.9979C38.827 11.9979 40.6646 12.6754 42.1436 14.0279C43.6222 15.3812 44.3618 17.1838 44.3618 19.4363C44.3618 21.6888 43.6269 23.5055 42.1567 24.8846C40.687 26.2637 38.8536 26.9528 36.6575 26.9528C34.461 26.9528 32.6149 26.2637 31.1185 24.8846Z" fill="white"/>
<path d="M51.5611 12.1557V14.3027C52.4992 12.7659 53.9957 11.9979 56.0505 11.9979C57.7508 11.9979 59.1277 12.5567 60.182 13.6742C61.2347 14.7926 61.7619 16.3112 61.7619 18.2316V26.7701H57.2464V18.8344C57.2464 17.8912 56.9937 17.1622 56.4893 16.6466C55.984 16.1327 55.2884 15.8736 54.4033 15.8736C53.5174 15.8736 52.8226 16.1327 52.3182 16.6466C51.8129 17.1622 51.5611 17.8912 51.5611 18.8344V26.7701H47.0178V12.1557H51.5611Z" fill="white"/>
<path d="M65.3482 26.7701V12.1557H69.8915V26.7701H65.3482ZM69.4923 10.5059C68.9786 11.0124 68.3504 11.2648 67.6068 11.2648C66.8623 11.2648 66.2341 11.0124 65.7204 10.5059C65.2067 9.9986 64.9499 9.37425 64.9499 8.63198C64.9499 7.89055 65.2067 7.26618 65.7204 6.75971C66.2341 6.25325 66.8623 6 67.6068 6C68.3504 6 68.9786 6.25325 69.4923 6.75971C70.006 7.26618 70.2629 7.89055 70.2629 8.63198C70.2629 9.37425 70.006 9.9986 69.4923 10.5059Z" fill="white"/>
<path d="M74.5802 24.9103C73.2075 23.5495 72.5211 21.7328 72.5211 19.4629C72.5211 17.1929 73.2075 15.3812 74.5802 14.0279C75.9528 12.6754 77.7281 11.9979 79.9067 11.9979C81.7131 11.9979 83.2449 12.4396 84.5022 13.3205C85.7604 14.2031 86.5924 15.4643 87 17.1057H82.0853C81.66 16.2331 80.9644 15.7964 80.0001 15.7964C79.0342 15.7964 78.3176 16.1326 77.8485 16.8035C77.3786 17.476 77.1436 18.3628 77.1436 19.4629C77.1436 20.563 77.3786 21.4489 77.8485 22.1214C78.3176 22.7931 79.0039 23.1302 79.9067 23.1302C80.4734 23.1302 80.9164 23.033 81.2356 22.8421C81.5539 22.6503 81.8368 22.309 82.0853 21.82H87C86.5924 23.3917 85.7511 24.6405 84.4761 25.5646C83.2011 26.4911 81.6777 26.9528 79.9067 26.9528C77.7281 26.9528 75.9528 26.2728 74.5802 24.9103Z" fill="white"/>
<path d="M25.1161 33.2406V36.9627H24.1966V34.8621L23.3199 36.9627H22.6371L21.7607 34.8621V36.9627H20.8413V33.2406H21.8952L22.9818 35.8062L24.0625 33.2406H25.1161Z" fill="white"/>
<path d="M30.6717 33.2306V33.9198H29.3055V34.7202H30.5099V35.4093H29.3055V36.2736H30.6717V36.9627H28.3861V33.2306H30.6717Z" fill="white"/>
<path d="M36.3828 33.2306H37.3023V36.9627H36.3828L34.8446 34.6147V36.9627H33.9255V33.2306H34.8446L36.3828 35.5787V33.2306Z" fill="white"/>
<path d="M41.8509 33.9031C41.7362 33.9031 41.6421 33.933 41.5684 33.9936C41.4947 34.0542 41.4582 34.1397 41.4582 34.2534C41.4582 34.3664 41.4924 34.4569 41.5602 34.5258C41.6282 34.5955 41.717 34.6486 41.8266 34.6852C41.9362 34.7234 42.0575 34.7582 42.1921 34.7923C42.3266 34.8255 42.4598 34.8653 42.5931 34.9135C42.7257 34.9608 42.8463 35.0206 42.9556 35.0912C43.0651 35.1618 43.1536 35.2614 43.2217 35.3901C43.2902 35.5196 43.324 35.674 43.324 35.8542C43.324 36.1689 43.1941 36.4387 42.9338 36.6629C42.6743 36.8879 42.3319 37 41.9072 37C41.4825 37 41.1401 36.8995 40.8802 36.6969C40.6203 36.496 40.4907 36.2104 40.4907 35.8384H41.4694C41.494 36.1357 41.6483 36.2835 41.9315 36.2835C42.0637 36.2835 42.1681 36.2486 42.243 36.1797C42.3184 36.1108 42.3562 36.0244 42.3562 35.9181C42.3562 35.8119 42.322 35.7255 42.2539 35.6574C42.1861 35.591 42.0974 35.5379 41.9878 35.4989C41.8782 35.4598 41.7569 35.4241 41.6223 35.3901C41.4878 35.3569 41.3543 35.3154 41.2213 35.2664C41.0887 35.2157 40.968 35.1576 40.8588 35.0887C40.7493 35.0198 40.6604 34.921 40.5927 34.7923C40.5242 34.6628 40.4907 34.51 40.4907 34.3331C40.4907 33.9869 40.621 33.7088 40.8828 33.5004C41.1443 33.292 41.4785 33.1882 41.8858 33.1882C42.2924 33.1882 42.6213 33.2787 42.8724 33.4605C43.123 33.6432 43.2543 33.9296 43.2651 34.3224H42.2651C42.2506 34.1879 42.2066 34.0849 42.1329 34.0127C42.0595 33.9396 41.9654 33.9031 41.8509 33.9031Z" fill="white"/>
<path d="M50.702 33.2406H51.6915L50.638 36.9627H49.5836L48.9226 34.6031L48.2666 36.9627H47.2122L46.1418 33.2406H47.1263L47.7823 35.9182L48.4543 33.2406H49.4978L50.1428 35.8751L50.702 33.2406Z" fill="white"/>
<path d="M56.8821 33.2306V33.9198H55.5153V34.7202H56.7204V35.4093H55.5153V36.2736H56.8821V36.9627H54.5957V33.2306H56.8821Z" fill="white"/>
<path d="M61.1985 35.6476H62.0912L61.6448 34.3225L61.1985 35.6476ZM62.5316 36.9627L62.3219 36.3375H60.9669L60.7572 36.9627H59.7787L61.0907 33.2306H62.2091L63.5161 36.9627H62.5316Z" fill="white"/>
<path d="M67.3501 33.9297V34.8264H67.9203C68.0601 34.8264 68.1704 34.7857 68.2512 34.7044C68.3321 34.623 68.3725 34.5159 68.3725 34.3831C68.3725 34.2502 68.3312 34.1415 68.2487 34.0576C68.1662 33.9721 68.0567 33.9297 67.9203 33.9297H67.3501ZM67.3501 35.5156V36.9627H66.4314V33.2406H67.9203C68.3582 33.2406 68.6984 33.3519 68.9418 33.5744C69.186 33.7969 69.3073 34.0667 69.3073 34.3806C69.3073 34.5965 69.2416 34.8065 69.1094 35.0116C68.9763 35.2158 68.7599 35.3611 68.4584 35.4467L69.3831 36.9627H68.3076L67.4579 35.5156H67.3501Z" fill="white"/>
</g>
<defs>
<filter id="filter0_f_1_3167" x="0" y="0" width="93" height="43" filterUnits="userSpaceOnUse" color-interpolation-filters="sRGB">
<feFlood flood-opacity="0" result="BackgroundImageFix"/>
<feBlend mode="normal" in="SourceGraphic" in2="BackgroundImageFix" result="shape"/>
<feGaussianBlur stdDeviation="3" result="effect1_foregroundBlur_1_3167"/>
</filter>
</defs>
</svg>
