<svg width="89" height="55" viewBox="0 0 89 55" fill="none" xmlns="http://www.w3.org/2000/svg">
<g filter="url(#filter0_f_1_3149)">
<path d="M10.1745 21.8558V26.0108H12.7629C13.3977 26.0108 13.898 25.8231 14.264 25.4458C14.6299 25.0677 14.8137 24.5725 14.8137 23.9578C14.8137 23.343 14.6264 22.8391 14.2518 22.4452C13.8772 22.0514 13.3803 21.8558 12.7629 21.8558H10.1745ZM10.1745 29.207V35.919H6V18.6596H12.7629C14.7478 18.6596 16.2939 19.1757 17.4013 20.2088C18.5077 21.241 19.061 22.4872 19.061 23.9455C19.061 24.9454 18.7601 25.9209 18.1583 26.8719C17.5557 27.822 16.5714 28.4935 15.2039 28.8865L19.4035 35.919H14.5197L10.6627 29.207H10.1745Z" fill="white"/>
<path d="M32.4397 18.6107V21.806H26.2387V25.5183H31.707V28.7145H26.2387V32.7228H32.4397V35.919H22.0634V18.6107H32.4397Z" fill="white"/>
<path d="M34.6136 21.8558V18.6596H48.1385V21.8558H43.4507V35.919H39.2771V21.8558H34.6136Z" fill="white"/>
<path d="M54.5596 21.8558V26.0108H57.1481C57.782 26.0108 58.2823 25.8231 58.6491 25.4458C59.015 25.0677 59.198 24.5725 59.198 23.9578C59.198 23.343 59.0107 22.8391 58.6378 22.4452C58.2624 22.0514 57.7663 21.8558 57.1481 21.8558H54.5596ZM54.5596 29.207V35.919H50.3852V18.6596H57.1481C59.133 18.6596 60.6791 19.1757 61.7865 20.2088C62.893 21.241 63.4471 22.4872 63.4471 23.9455C63.4471 24.9454 63.1453 25.9209 62.5435 26.8719C61.9408 27.822 60.9557 28.4935 59.5882 28.8865L63.7879 35.919H58.9058L55.0479 29.207H54.5596Z" fill="white"/>
<path d="M77.5196 30.8543C78.3408 29.9531 78.7527 28.7488 78.7527 27.2407C78.7527 25.7325 78.3408 24.5274 77.5196 23.6262C76.6975 22.725 75.598 22.2735 74.2236 22.2735C72.8474 22.2735 71.7496 22.725 70.9275 23.6262C70.1055 24.5274 69.6953 25.7325 69.6953 27.2407C69.6953 28.7488 70.1055 29.9531 70.9275 30.8543C71.7496 31.7564 72.8474 32.2061 74.2236 32.2061C75.598 32.2061 76.6975 31.7564 77.5196 30.8543ZM67.9983 33.5824C66.297 31.9109 65.4463 29.7976 65.4463 27.2407C65.4463 24.6837 66.297 22.573 67.9983 20.9094C69.6979 19.245 71.7825 18.4136 74.2478 18.4136C76.7132 18.4136 78.7891 19.245 80.4731 20.9094C82.1588 22.573 83 24.6837 83 27.2407C83 29.7976 82.1536 31.9109 80.4618 33.5824C78.7683 35.2547 76.6932 36.0913 74.2357 36.0913C71.7782 36.0913 69.6979 35.2547 67.9983 33.5824Z" fill="white"/>
<path d="M31.2102 7.82517V6.02797H38.8169V7.82517H36.1799V15.7344H33.8325V7.82517H31.2102Z" fill="white"/>
<path d="M46.1477 6.02797H48.496V15.7344H46.1477V11.7112H42.4277V15.7344H40.0794V6.02797H42.4277V9.91316H46.1477V6.02797Z" fill="white"/>
<path d="M56.253 6.00003V7.79809H52.7654V9.88611H55.8411V11.6833H52.7654V13.9372H56.253V15.7344H50.4171V6.00003H56.253Z" fill="white"/>
<path d="M18.5196 44.6808C18.3626 44.6808 18.2334 44.7227 18.1337 44.8074C18.0331 44.8912 17.9828 45.0117 17.9828 45.1689C17.9828 45.327 18.0305 45.4536 18.1224 45.5506C18.2161 45.6466 18.3375 45.7208 18.4857 45.7715C18.6357 45.8239 18.8022 45.8737 18.9861 45.9199C19.169 45.9671 19.3511 46.023 19.5324 46.0902C19.7136 46.1566 19.8792 46.2396 20.0284 46.3374C20.1775 46.4369 20.2989 46.5758 20.3917 46.7557C20.4854 46.9356 20.5313 47.1513 20.5313 47.4028C20.5313 47.842 20.3536 48.2167 19.9989 48.531C19.6443 48.8437 19.1769 49 18.5959 49C18.0157 49 17.5492 48.8594 17.1945 48.5782C16.839 48.297 16.6621 47.8979 16.6621 47.3801H17.9984C18.0322 47.7949 18.2429 48.0018 18.6297 48.0018C18.8101 48.0018 18.9522 47.9529 19.0554 47.8569C19.1586 47.7617 19.2098 47.6394 19.2098 47.491C19.2098 47.3434 19.163 47.2229 19.0702 47.1286C18.9765 47.036 18.856 46.9618 18.7068 46.9068C18.5568 46.8535 18.3912 46.8028 18.2074 46.7557C18.0235 46.7094 17.8414 46.6509 17.6602 46.5819C17.479 46.5129 17.3142 46.4299 17.1642 46.3339C17.015 46.2378 16.8937 46.0998 16.8017 45.9199C16.7081 45.7401 16.6621 45.527 16.6621 45.2807C16.6621 44.7969 16.8399 44.4109 17.198 44.1193C17.5544 43.8285 18.0114 43.6835 18.5672 43.6835C19.1222 43.6835 19.5723 43.8101 19.9148 44.0642C20.2564 44.3175 20.436 44.7183 20.4507 45.265H19.0849C19.065 45.0781 19.0052 44.934 18.9046 44.8327C18.8048 44.7314 18.6765 44.6808 18.5196 44.6808Z" fill="white"/>
<path d="M25.8691 44.718V43.7574H29.936V44.718H28.5269V48.9473H27.2713V44.718H25.8691Z" fill="white"/>
<path d="M35.3642 46.8561V43.7577H36.6189V46.8561C36.6189 47.1661 36.6944 47.4054 36.8461 47.5722C36.9988 47.7399 37.2216 47.8246 37.5147 47.8246C37.8087 47.8246 38.0333 47.7399 38.1902 47.5722C38.3472 47.4054 38.4252 47.1661 38.4252 46.8561V43.7577H39.6808V46.8561C39.6808 47.3137 39.5742 47.7093 39.3617 48.042C39.1493 48.3747 38.8796 48.6175 38.5544 48.7703C38.2284 48.924 37.8746 49 37.493 49C36.8956 49 36.3909 48.8131 35.9798 48.4376C35.5688 48.063 35.3642 47.5364 35.3642 46.8561Z" fill="white"/>
<path d="M46.708 47.9867H47.2656C47.7452 47.9867 48.1233 47.8391 48.3964 47.543C48.6704 47.247 48.8083 46.8505 48.8083 46.3519C48.8083 45.8541 48.6704 45.4576 48.3964 45.1616C48.1233 44.8656 47.7452 44.718 47.2656 44.718H46.708V47.9867ZM47.2656 43.7574C48.0886 43.7574 48.764 43.9967 49.2921 44.4778C49.8211 44.959 50.0856 45.5825 50.0856 46.3493C50.0856 47.1143 49.8211 47.7395 49.2921 48.2233C48.764 48.7062 48.0886 48.9473 47.2656 48.9473H45.4524V43.7574H47.2656Z" fill="white"/>
<path d="M55.5771 48.9473V43.7574H56.8336V48.9473H55.5771Z" fill="white"/>
<path d="M65.9648 47.4246C66.212 47.153 66.336 46.7906 66.336 46.3374C66.336 45.8841 66.212 45.5217 65.9648 45.251C65.7177 44.9794 65.3873 44.8441 64.9737 44.8441C64.56 44.8441 64.2297 44.9794 63.9825 45.251C63.7354 45.5217 63.6114 45.8841 63.6114 46.3374C63.6114 46.7906 63.7354 47.153 63.9825 47.4246C64.2297 47.6962 64.56 47.8316 64.9737 47.8316C65.3873 47.8316 65.7177 47.6962 65.9648 47.4246ZM63.1006 48.2455C62.589 47.7425 62.3332 47.1067 62.3332 46.3374C62.3332 45.5689 62.589 44.934 63.1006 44.4336C63.6122 43.9341 64.2392 43.6835 64.9806 43.6835C65.7229 43.6835 66.3464 43.9341 66.8528 44.4336C67.3601 44.934 67.6133 45.5689 67.6133 46.3374C67.6133 47.1067 67.3584 47.7425 66.8493 48.2455C66.3403 48.7485 65.716 49 64.9771 49C64.2383 49 63.6122 48.7485 63.1006 48.2455Z" fill="white"/>
</g>
<defs>
<filter id="filter0_f_1_3149" x="0" y="3.05176e-05" width="89" height="55" filterUnits="userSpaceOnUse" color-interpolation-filters="sRGB">
<feFlood flood-opacity="0" result="BackgroundImageFix"/>
<feBlend mode="normal" in="SourceGraphic" in2="BackgroundImageFix" result="shape"/>
<feGaussianBlur stdDeviation="3" result="effect1_foregroundBlur_1_3149"/>
</filter>
</defs>
</svg>
