<svg width="106" height="37" viewBox="0 0 106 37" fill="none" xmlns="http://www.w3.org/2000/svg">
<g filter="url(#filter0_f_1_3143)">
<path d="M10.2907 10.5239V12.5625C11.1776 11.104 12.5903 10.3747 14.5315 10.3747C16.1377 10.3747 17.4381 10.9053 18.4337 11.9657C19.4284 13.026 19.9275 14.4678 19.9275 16.2909V24.394H15.6599V16.8621C15.6599 15.9678 15.422 15.2756 14.9451 14.7874C14.4692 14.2982 13.8123 14.0537 12.9753 14.0537C12.1393 14.0537 11.4824 14.2982 11.0055 14.7874C10.5296 15.2756 10.2907 15.9678 10.2907 16.8621V24.394H6V10.5239H10.2907Z" fill="white"/>
<path d="M31.846 19.9948C32.4645 19.3979 32.7747 18.553 32.7747 17.4591C32.7747 16.3653 32.4645 15.5247 31.846 14.9367C31.2274 14.3487 30.5161 14.0538 29.7131 14.0538C28.91 14.0538 28.1987 14.3523 27.5793 14.9482C26.9616 15.5451 26.6514 16.3908 26.6514 17.4838C26.6514 18.5777 26.9616 19.4191 27.5793 20.0071C28.1987 20.5951 28.91 20.8891 29.7131 20.8891C30.5161 20.8891 31.2274 20.5916 31.846 19.9948ZM24.1424 22.5799C22.9035 21.2538 22.285 19.5551 22.285 17.4838C22.285 15.4126 22.9035 13.7104 24.1424 12.3763C25.3795 11.0423 26.8903 10.3749 28.672 10.3749C30.4528 10.3749 31.821 11.03 32.7747 12.3384V10.5241H37.0663V24.3942H32.7747V22.3812C31.7372 23.8398 30.3485 24.5681 28.6087 24.5681C26.8689 24.5681 25.3795 23.906 24.1424 22.5799Z" fill="white"/>
<path d="M46.5267 20.7901H48.0571V24.394H45.8742C44.3011 24.394 43.0845 24.0506 42.2226 23.362C41.3607 22.6751 40.9302 21.4947 40.9302 19.8207V14.0537H39.6253V10.5239H40.9302V7.14334H45.2218V10.5239H48.0321V14.0537H45.2218V19.8207C45.2218 20.467 45.6559 20.7901 46.5267 20.7901Z" fill="white"/>
<path d="M60.2525 10.5241H64.5432V24.3942H60.2525V22.3557C59.3656 23.8151 57.952 24.5434 56.0116 24.5434C54.4055 24.5434 53.1042 24.0137 52.1095 22.9525C51.1139 21.8921 50.6165 20.4504 50.6165 18.6272V10.5241H54.8814V18.056C54.8814 18.9504 55.1212 19.6425 55.5972 20.1308C56.074 20.6208 56.7309 20.8645 57.567 20.8645C58.403 20.8645 59.0608 20.6208 59.5367 20.1308C60.0136 19.6425 60.2525 18.9504 60.2525 18.056V10.5241Z" fill="white"/>
<path d="M72.3467 10.5239V13.109C73.3512 11.2867 74.689 10.3747 76.362 10.3747V14.7H75.3085C74.321 14.7 73.5812 14.9322 73.0874 15.3957C72.5936 15.8601 72.3467 16.6723 72.3467 17.8316V24.394H68.0569V10.5239H72.3467Z" fill="white"/>
<path d="M86.9761 19.9948C87.5946 19.3979 87.9048 18.553 87.9048 17.4591C87.9048 16.3653 87.5946 15.5247 86.9761 14.9367C86.3575 14.3487 85.6471 14.0538 84.8432 14.0538C84.0401 14.0538 83.3288 14.3523 82.7103 14.9482C82.0917 15.5451 81.7824 16.3908 81.7824 17.4838C81.7824 18.5777 82.0917 19.4191 82.7103 20.0071C83.3288 20.5951 84.0401 20.8891 84.8432 20.8891C85.6471 20.8891 86.3575 20.5916 86.9761 19.9948ZM79.2725 22.5799C78.0345 21.2538 77.415 19.5551 77.415 17.4838C77.415 15.4126 78.0345 13.7104 79.2725 12.3763C80.5105 11.0423 82.0204 10.3749 83.803 10.3749C85.5838 10.3749 86.952 11.03 87.9048 12.3384V10.5241H92.1964V24.3942H87.9048V22.3812C86.8673 23.8398 85.4787 24.5681 83.7397 24.5681C81.999 24.5681 80.5105 23.906 79.2725 22.5799Z" fill="white"/>
<path d="M95.7093 24.394V6.00003H100V24.394H95.7093Z" fill="white"/>
<path d="M10.6246 26.8221V30.9947H9.933V28.1368L8.64861 30.9947H8.16997L6.87937 28.1368V30.9947H6.18774V26.8221H6.93377L8.41243 30.0941L9.88486 26.8221H10.6246Z" fill="white"/>
<path d="M15.4108 30.9947V26.8221H16.1015V30.9947H15.4108Z" fill="white"/>
<path d="M23.6585 26.8168H24.3492V30.9947H23.6585L21.58 27.879V30.9947H20.8892V26.8168H21.58L23.6585 29.9255V26.8168Z" fill="white"/>
<path d="M31.4626 26.8168V27.351H29.8262V28.6171H31.2808V29.145H29.8262V30.4596H31.4626V30.9947H29.1363V26.8168H31.4626Z" fill="white"/>
<path d="M36.8804 27.3563V28.7671H37.6443C37.9063 28.7671 38.1024 28.7053 38.2325 28.5808C38.3609 28.4572 38.4259 28.2842 38.4259 28.0617C38.4259 27.8401 38.3609 27.6662 38.2325 27.5426C38.1024 27.419 37.9063 27.3563 37.6443 27.3563H36.8804ZM36.8804 29.3022V30.9947H36.1905V26.8221H37.6443C38.1211 26.8221 38.4883 26.9396 38.7468 27.1735C39.0053 27.4075 39.1345 27.705 39.1345 28.0653C39.1345 28.3451 39.0489 28.5976 38.8778 28.821C38.7058 29.0453 38.4411 29.1918 38.0863 29.2598L39.2014 30.9947H38.3591L37.3047 29.3022H36.8804Z" fill="white"/>
<path d="M44.8606 29.6076H46.2483L45.5576 27.645L44.8606 29.6076ZM46.7394 30.9947L46.4364 30.1418H44.6734L44.3704 30.9947H43.6493L45.1573 26.8168H45.9578L47.4667 30.9947H46.7394Z" fill="white"/>
<path d="M51.9993 26.8221H52.6901V30.472H54.1144V30.9947H51.9993V26.8221Z" fill="white"/>
<path d="M69.0079 26.8222H69.7467L68.4998 30.9947H67.7172L66.8322 27.8367L65.8936 30.9947L65.1182 31L63.9239 26.8222H64.6574L65.53 30.2195L66.4748 26.8222H67.2502L68.129 30.2019L69.0079 26.8222Z" fill="white"/>
<path d="M75.1588 29.6076H76.5466L75.8559 27.645L75.1588 29.6076ZM77.0377 30.9947L76.7347 30.1418H74.9708L74.6678 30.9947H73.9467L75.4548 26.8168H76.2552L77.7641 30.9947H77.0377Z" fill="white"/>
<path d="M82.0792 27.3563V26.8221H85.0179V27.3563H83.8975V30.9947H83.2067V27.3563H82.0792Z" fill="white"/>
<path d="M91.9201 26.8168V27.351H90.2837V28.6171H91.7383V29.145H90.2837V30.4596H91.9201V30.9947H89.5929V26.8168H91.9201Z" fill="white"/>
<path d="M97.337 27.3563V28.7671H98.1009C98.3629 28.7671 98.559 28.7053 98.6883 28.5808C98.8175 28.4572 98.8825 28.2842 98.8825 28.0617C98.8825 27.8401 98.8175 27.6662 98.6883 27.5426C98.559 27.419 98.3629 27.3563 98.1009 27.3563H97.337ZM97.337 29.3022V30.9947H96.6472V26.8221H98.1009C98.5777 26.8221 98.9449 26.9396 99.2034 27.1735C99.4619 27.4075 99.5911 27.705 99.5911 28.0653C99.5911 28.3451 99.5056 28.5976 99.3335 28.821C99.1624 29.0453 98.8977 29.1918 98.543 29.2598L99.658 30.9947H98.8157L97.7613 29.3022H97.337Z" fill="white"/>
</g>
<defs>
<filter id="filter0_f_1_3143" x="0" y="3.05176e-05" width="106" height="37" filterUnits="userSpaceOnUse" color-interpolation-filters="sRGB">
<feFlood flood-opacity="0" result="BackgroundImageFix"/>
<feBlend mode="normal" in="SourceGraphic" in2="BackgroundImageFix" result="shape"/>
<feGaussianBlur stdDeviation="3" result="effect1_foregroundBlur_1_3143"/>
</filter>
</defs>
</svg>
