<svg width="96" height="80" viewBox="0 0 96 80" fill="none" xmlns="http://www.w3.org/2000/svg">
<g filter="url(#filter0_f_1_3155)">
<path d="M7.20406 73.0478H7.73871C8.19854 73.0478 8.56026 72.9092 8.82303 72.6312C9.08579 72.3533 9.21719 71.981 9.21719 71.5136C9.21719 71.0454 9.08579 70.6731 8.82303 70.3952C8.56026 70.1172 8.19854 69.9786 7.73871 69.9786H7.20406V73.0478ZM7.73871 69.0767C8.52783 69.0767 9.1756 69.3013 9.68201 69.7531C10.1892 70.2049 10.4428 70.7904 10.4428 71.5103C10.4428 72.2303 10.1892 72.8157 9.68201 73.27C9.1756 73.7234 8.52783 73.9498 7.73871 73.9498H6V69.0767H7.73871Z" fill="white"/>
<path d="M18.702 69.0627V69.9654H16.9134V71.0142H18.4899V71.917H16.9134V73.0486H18.702V73.9505H15.7085V69.0627H18.702Z" fill="white"/>
<path d="M25.919 69.9453C25.7685 69.9453 25.6446 69.9838 25.549 70.0633C25.4525 70.1421 25.4051 70.2552 25.4051 70.4036C25.4051 70.552 25.4492 70.6709 25.5382 70.7611C25.628 70.8513 25.7436 70.921 25.8866 70.9694C26.0304 71.0178 26.1893 71.0645 26.3656 71.108C26.5419 71.1523 26.7165 71.2056 26.8903 71.2679C27.0641 71.3302 27.2229 71.4081 27.3659 71.4999C27.5081 71.5926 27.6253 71.7238 27.7143 71.8927C27.8033 72.0624 27.8482 72.265 27.8482 72.5003C27.8482 72.9128 27.6777 73.2645 27.3376 73.5597C26.9975 73.8533 26.5493 74 25.9922 74C25.4359 74 24.9885 73.868 24.6476 73.604C24.3075 73.34 24.1379 72.9652 24.1379 72.479H25.4193C25.4517 72.8685 25.6529 73.0628 26.0246 73.0628C26.1976 73.0628 26.334 73.0177 26.4321 72.9275C26.5319 72.8373 26.5809 72.7225 26.5809 72.5831C26.5809 72.4445 26.536 72.3314 26.4471 72.2428C26.3573 72.1559 26.2417 72.0862 26.0987 72.0345C25.9548 71.9845 25.796 71.937 25.6197 71.8927C25.4434 71.8492 25.2688 71.7943 25.095 71.7295C24.9212 71.6647 24.7632 71.5869 24.6194 71.4967C24.4763 71.4065 24.3599 71.2777 24.271 71.108C24.182 70.9391 24.1379 70.739 24.1379 70.5078C24.1379 70.0535 24.3092 69.6903 24.6509 69.4172C24.9935 69.1441 25.4318 69.008 25.9639 69.008C26.497 69.008 26.9285 69.1269 27.257 69.3647C27.5846 69.6033 27.7567 69.9797 27.77 70.493H26.4612C26.4421 70.3183 26.3847 70.1831 26.2882 70.0871C26.1918 69.9928 26.0687 69.9453 25.919 69.9453Z" fill="white"/>
<path d="M33.3049 73.9505V69.0774H34.509V73.9505H33.3049Z" fill="white"/>
<path d="M40.5172 73.2885C40.0274 72.8186 39.7821 72.2225 39.7821 71.5001C39.7821 70.7785 40.0274 70.1833 40.5172 69.7126C41.0078 69.2428 41.6081 69.0082 42.3166 69.0082C42.8663 69.0082 43.3543 69.1517 43.7817 69.4387C44.2083 69.7257 44.5068 70.1234 44.6756 70.6326H43.2388C43.0508 70.2767 42.7507 70.098 42.3382 70.098C41.9249 70.098 41.5998 70.2251 41.3628 70.4801C41.1258 70.7343 41.007 71.0746 41.007 71.5001C41.007 71.9265 41.1258 72.2676 41.3628 72.521C41.5998 72.776 41.9175 72.9031 42.3166 72.9031C42.6035 72.9031 42.8371 72.8326 43.0176 72.6915C43.198 72.5505 43.3194 72.3619 43.3801 72.1258H41.9857V71.223H44.6756V72.1258C44.5858 72.5702 44.3397 72.9843 43.9364 73.368C43.7435 73.5533 43.5057 73.7034 43.2213 73.8198C42.9378 73.9354 42.6359 73.9937 42.3166 73.9937C41.6081 73.9937 41.0078 73.7583 40.5172 73.2885Z" fill="white"/>
<path d="M53.1754 69.0627H54.3786V73.9505H53.1754L51.1614 70.8748V73.9505H49.9565V69.0627H51.1614L53.1754 72.1384V69.0627Z" fill="white"/>
<path d="M69.6707 69.0774H70.8755V73.9505H69.6707V71.9301H67.7631V73.9505H66.5591V69.0774H67.7631V71.0281H69.6707V69.0774Z" fill="white"/>
<path d="M76.4173 71.987V69.0777H77.6214V71.987C77.6214 72.2781 77.6937 72.5028 77.8392 72.6602C77.9848 72.8168 78.1976 72.8963 78.4795 72.8963C78.7614 72.8963 78.9776 72.8168 79.1281 72.6602C79.2778 72.5028 79.3526 72.2781 79.3526 71.987V69.0777H80.5567V71.987C80.5567 72.4167 80.4544 72.7881 80.2507 73.1005C80.0461 73.4129 79.7883 73.6409 79.4757 73.7844C79.163 73.9287 78.8246 74 78.4587 74C77.8858 74 77.4018 73.8245 77.0085 73.472C76.6144 73.121 76.4173 72.6249 76.4173 71.987Z" fill="white"/>
<path d="M87.2967 73.0486H88.2047C88.3686 73.0486 88.5049 72.9994 88.613 72.9026C88.7211 72.8058 88.7744 72.6714 88.7744 72.5C88.7744 72.3286 88.7236 72.1925 88.6197 72.0908C88.5166 71.9892 88.3819 71.9375 88.2181 71.9375H87.2967V73.0486ZM87.2967 69.9794V71.0355H88.085C88.258 71.0355 88.3985 70.9912 88.5033 70.9027C88.6089 70.8149 88.6621 70.6846 88.6621 70.5107C88.6621 70.3369 88.6089 70.2057 88.5033 70.1155C88.3985 70.0245 88.258 69.9794 88.085 69.9794H87.2967ZM86.0927 69.0774H88.2397C88.7419 69.0774 89.1419 69.1971 89.4396 69.4382C89.7381 69.6785 89.8869 69.9835 89.8869 70.3549C89.8869 70.9051 89.5601 71.2774 88.9082 71.4726C89.2417 71.5185 89.5069 71.6546 89.704 71.8826C89.9011 72.1089 90 72.3745 90 72.6804C90 73.069 89.8553 73.3782 89.5668 73.607C89.2782 73.8365 88.8749 73.9505 88.3594 73.9505H86.0927V69.0774Z" fill="white"/>
<path d="M46.5632 38.3293C47.0023 37.9791 47.0638 37.6585 46.9931 37.1477C46.668 36.0268 46.3927 34.8157 46.1399 33.6751C44.5151 25.9493 43.8582 30.6051 42.6616 35.7931C40.0157 42.375 42.206 43.2729 46.5632 38.3293ZM57.1228 29.212C57.9086 28.4601 58.7551 27.9181 59.733 27.5655C59.9991 27.4146 60.3766 27.3843 60.7017 27.4441C61.1716 27.463 61.6089 27.6425 62.1694 27.7122C62.1494 28.1722 61.7611 28.4338 61.4451 28.6733C59.7305 30.2189 58.3119 31.9835 56.7112 33.6472C56.4143 33.958 56.2821 34.2991 56.4035 34.7197C56.5865 35.3503 56.6472 36.0907 56.8301 36.7205C56.9016 37.2321 57.023 37.6519 56.5125 38.0234C56.1965 38.2636 56.2979 38.6146 56.4409 39.1041C56.6447 38.7433 56.6555 38.5129 56.757 38.3334C57.2051 38.2817 57.3066 39.1632 56.8892 39.5846C56.8376 39.674 56.7669 39.6937 56.7869 39.7642C56.7154 39.7847 56.6647 39.8749 56.5624 40.0553C57.0704 41.8068 57.6192 43.6976 58.0758 45.5393C58.2188 46.0296 58.2695 46.4699 58.3402 46.9808C58.3901 48.483 58.9389 49.8425 59.5592 51.1831C60.0997 52.2442 60.4755 53.2741 60.8722 54.3745C61.0959 55.1461 61.3902 55.8955 61.6148 56.6663C61.7769 57.2272 61.8684 57.8077 61.979 58.458C61.7046 58.3079 61.4293 58.1587 61.1541 58.0094C61.1233 58.1685 61.0726 58.2595 61.021 58.3497C60.9711 58.4399 61.0102 58.5801 61.0518 58.7195C60.5005 58.9508 59.7064 58.8729 59.95 59.7133C59.491 59.9938 59.0012 59.9044 58.6545 59.7748C58.1265 59.5461 57.6159 59.387 57.2085 59.0467C55.7616 57.7864 54.6324 56.2875 53.6961 54.6574C53.6146 54.377 53.3701 54.067 53.7368 53.7357C53.8075 53.7161 53.6861 53.2954 53.6254 53.0855C53.3202 52.5656 53.0142 52.0441 52.709 51.5251C50.9271 48.8446 49.8394 45.8927 48.731 42.8719C48.558 42.5415 48.3851 42.211 48.1913 41.8109C47.9469 42.0323 47.6816 42.1831 47.5086 42.3824C46.5083 43.7263 45.1313 44.5684 43.7942 45.5532C42.7539 46.2256 41.5715 46.9381 40.4389 47.5613C39.348 48.3231 38.8167 49.6851 38.5098 50.7576C37.9061 53.2019 36.8642 55.4659 36.2198 57.7692C36.0161 58.13 35.8423 58.33 35.4348 58.5219C33.8333 59.1246 36.3096 59.9421 34.6681 59.8741C31.1915 61.4615 32.1112 58.7769 30.3176 57.3887C31.0335 55.5963 31.8193 53.7825 32.6259 52.0392C33.0658 51.1569 33.5248 50.3451 33.9846 49.5334C34.6989 48.2706 33.8823 49.7138 34.4652 48.2608C34.1892 48.1115 33.9347 48.0312 33.6595 47.882C33.0583 47.672 32.5286 47.4441 31.9274 47.2342C31.4692 46.9849 31.2247 46.6749 31.2247 46.1444C31.663 45.7926 32.1527 45.8828 32.6625 46.0411C33.4059 46.2108 34.2017 46.2896 34.9966 46.3683C35.1604 46.3978 35.4963 46.2272 35.5986 46.0468C36.1391 44.985 36.589 43.8731 37.1303 42.8112C37.2118 42.5603 37.2226 42.3299 37.3249 42.1495C38.642 39.5043 39.2665 36.5999 40.1654 33.8448C41.2081 30.519 42.1594 27.144 43.2021 23.819C43.662 22.4759 43.7651 21.2353 43.4707 19.9537C43.1655 18.3719 43.025 16.8205 42.8828 15.2691C42.7939 12.5657 43.1531 9.81305 43.6246 7.17847C43.8283 6.28716 44.0229 6.1568 44.8694 6.1445C46.021 6.124 47.1528 6.03133 48.3044 6.00919C48.682 5.97885 49.0786 6.01821 49.4461 6.21747C50.1795 6.61679 50.9129 7.01612 51.5948 7.50564C51.9116 7.79591 52.1752 8.17555 52.349 8.50601C53.1531 9.94588 53.4574 11.5276 53.6196 13.1487C53.9239 15.261 54.2066 17.3027 54.4395 19.4346C54.5002 19.6453 54.5101 19.9446 54.5925 20.2251C55.039 21.7666 55.1089 23.3377 55.0365 24.9498C54.9334 26.192 55.207 27.4031 55.3384 28.6544C55.409 29.1652 55.552 29.6548 55.6942 30.1459C55.7857 30.1951 55.7857 30.1951 55.878 30.2451C56.3163 29.8942 56.7544 29.5432 57.1228 29.212Z" fill="white"/>
</g>
<defs>
<filter id="filter0_f_1_3155" x="0" y="6.10352e-05" width="96" height="79.9999" filterUnits="userSpaceOnUse" color-interpolation-filters="sRGB">
<feFlood flood-opacity="0" result="BackgroundImageFix"/>
<feBlend mode="normal" in="SourceGraphic" in2="BackgroundImageFix" result="shape"/>
<feGaussianBlur stdDeviation="3" result="effect1_foregroundBlur_1_3155"/>
</filter>
</defs>
</svg>
