<svg width="104" height="52" viewBox="0 0 104 52" fill="none" xmlns="http://www.w3.org/2000/svg">
<g filter="url(#filter0_f_1_3161)">
<path d="M17.2375 18.1832C16.9805 18.1427 16.7778 17.9529 16.2848 18.3552C16.7036 18.286 16.91 18.4383 17.2375 18.1832ZM17.3414 17.5892C16.9732 17.5457 16.5507 17.6524 16.05 17.7928C15.7768 17.9005 15.5079 17.9707 15.2095 17.9668C14.949 17.9618 14.7173 18.034 14.4725 18.2158C15.4088 18.1931 16.3553 18.0587 17.5072 17.778C17.4409 17.7029 17.4069 17.6653 17.3414 17.5892ZM14.9038 17.7019C14.6767 17.7355 14.4438 17.8066 14.2077 17.9134C14.4227 17.9915 14.6886 17.9579 14.9038 17.7019ZM14.5023 16.9517C14.2748 16.9843 14.0806 17.0564 14.055 17.2798C14.1675 17.2808 14.2373 17.3194 14.2786 17.2828C14.9038 17.0317 15.4179 16.7797 16.001 16.5652C16.2661 16.5316 16.4894 16.5355 16.7498 16.5395C16.7541 16.5029 16.8372 16.4278 16.8414 16.3912C16.5388 16.4238 16.2661 16.5316 16.001 16.5652C15.5007 16.7065 15.0038 16.8093 14.5023 16.9517ZM9.99016 17.9233C9.5316 18.028 9.40244 18.1753 9.16228 18.6557C9.34851 18.6577 9.56337 18.7358 9.78745 18.7397C10.0066 18.7802 10.0308 18.8929 10.0844 19.0787C9.73342 19.222 9.39793 19.2171 9.05852 19.5848C9.51355 19.5166 9.8564 19.4474 10.2414 19.3417C10.523 18.8247 10.7635 18.3443 11.0535 17.7533C10.6318 17.859 10.367 17.8926 9.99016 17.9233ZM12.4123 33.9198C12.3878 33.8081 12.2177 33.6559 12.1564 33.5442C12.2472 33.396 12.3675 33.3238 12.4173 33.2131C12.4916 32.878 12.4962 32.5064 12.5713 32.1733C12.5874 32.025 12.6 31.9133 12.6173 31.7651C12.8575 31.2857 12.944 30.8409 12.8874 30.3556C12.8954 30.2815 13.0275 30.0976 13.044 29.9484C13.0896 29.8752 13.1774 29.7655 13.1486 29.6894C13.0528 29.5401 13.1482 29.3553 13.3635 29.0983C13.4965 28.9135 13.5171 28.7296 13.6121 28.5438C13.9281 27.7313 14.1312 26.9159 14.4426 26.14C14.2656 24.7226 17.8658 19.9031 15.1379 20.6058C14.9758 20.7155 14.7445 20.7857 14.5541 20.8213C11.6925 22.042 11.9365 21.8601 10.8999 24.4488C10.8214 24.8185 10.7096 25.1526 10.5935 25.5222C10.5387 25.6705 10.5597 25.8188 10.4644 26.0026C9.88023 27.2223 9.66762 28.447 8.78119 29.6983C8.70264 29.7329 8.69842 29.7714 8.65282 29.8456C7.84563 30.7243 7.96135 30.6897 7.03432 30.6383C6.88565 30.6363 6.74472 30.5592 6.62439 30.6323C6.20653 30.7005 6.00804 30.4742 6 30.2133C6.00422 29.8416 6.046 29.471 6.16593 29.0627C6.69334 27.3597 7.37716 25.5835 8.09472 23.8459C8.95692 22.1497 7.1925 23.239 7.23967 21.8255C7.22662 21.6012 7.1822 21.3412 7.28105 21.1198C7.44306 20.675 7.48866 20.2668 7.64645 19.8596C7.75452 19.5631 7.77943 19.3416 7.68019 19.228C7.99969 18.712 8.27703 18.2336 8.59996 17.6801C9.09716 17.9104 9.68439 17.6594 10.441 17.5595C10.9387 17.4548 11.4976 16.7945 11.6224 16.3477C12.2441 14.7959 12.8245 13.9498 13.7075 12.4C14.2668 11.4047 15.0165 10.3737 15.6922 9.3438C15.8704 9.08582 16.0653 9.01467 16.3212 9.05618C16.615 9.09769 16.8342 9.13723 17.1284 9.17973C17.4881 9.29637 17.5 9.51876 17.3509 9.85186C17.0613 10.4419 16.7042 10.9579 16.4974 11.4758C16.2074 12.0659 15.9259 12.5838 15.6401 13.1364C13.0873 16.5939 15.4221 16.4061 18.332 15.4097C18.4274 15.2259 18.548 15.1517 18.6016 15.0055C19.0579 13.932 19.426 13.3054 19.9983 12.1994C20.1064 11.9018 20.3715 11.5342 20.4052 11.2386C20.4592 10.7543 20.8395 10.351 21.1134 9.90917C21.2958 9.61463 21.441 9.31909 21.5203 8.94843C21.5491 8.68848 21.777 8.31982 21.9225 8.02527C22.3696 7.36204 22.8541 6.6998 23.3054 6C23.8272 6.00791 24.349 6.01483 24.8327 6.02273C25.6154 6.03459 26.3026 6.23127 26.8612 6.57524C27.3859 6.87967 27.6342 7.33039 27.4062 8.03316C27.1699 8.47696 27.0826 8.92175 26.7394 9.32602C25.8357 10.7256 25.1511 12.1667 24.5087 13.5703C23.7295 15.1942 25.692 14.6664 26.6849 14.4589C26.8757 14.4233 27.1036 14.3907 27.1534 14.6141C26.4329 14.7149 25.6295 14.8888 24.9798 15.0282C24.5987 15.0964 24.3255 15.2031 24.0103 15.3484C23.5759 15.5639 23.348 15.9326 23.1859 16.3764C23.3725 16.3794 23.6663 16.4209 23.89 16.4248C24.0019 16.4268 24.1923 16.3912 24.3118 16.3191C24.7638 16.2894 25.2232 16.1837 25.6617 16.2657C25.8437 16.3052 26.2578 16.2746 26.5268 16.2044C26.8294 16.1718 27.0899 16.1758 27.4254 16.1807C27.3339 15.9939 27.2388 15.8436 27.1849 15.6568C27.1688 15.47 27.3063 15.2496 27.4136 14.9521C27.4875 14.9541 27.5997 14.956 27.6741 14.956C27.7162 14.9214 27.7162 14.9214 27.7572 14.8849C27.6618 14.7337 27.4924 14.5824 27.4343 14.4332C27.9349 14.6259 28.3073 14.9669 28.3973 15.4878L28.4057 15.4147C28.3234 15.4878 28.2444 15.5234 28.0958 15.5214C27.7687 16.1125 28.2153 16.1184 28.6995 16.1273C28.1322 16.5276 27.8265 16.2627 27.4128 16.2924C27.6564 16.4446 27.7932 16.5583 27.9992 16.7105C27.7307 16.7807 27.4369 16.7392 27.242 17.1454C27.4239 17.1849 27.6476 17.1889 27.9411 17.2294C27.6729 17.3006 27.4741 17.4103 27.3208 17.4439C27.1672 17.4795 26.9768 17.5131 26.8033 17.7345C26.952 17.7365 27.0925 17.8126 27.2745 17.8541C26.3513 18.0992 25.4281 18.3463 24.4929 18.7031C23.8751 18.8791 23.1844 19.055 22.5263 19.2685C21.9873 19.4099 21.6525 19.739 21.4536 20.1818C21.0809 20.846 20.894 21.5132 20.7071 22.1794C20.5415 22.6608 20.4132 23.1411 20.1723 23.6225C19.8198 24.435 19.6908 25.2514 19.3805 26.0273C19.1476 26.7676 18.9147 27.5089 18.6078 28.2483C18.5998 28.3234 18.4802 28.3956 18.3929 28.5053C18.384 28.5784 18.2975 28.6901 18.3305 28.7277C18.4959 29.2505 18.1646 29.8782 17.9527 30.4327C17.9397 30.5454 17.8907 30.6551 17.8818 30.7302C17.9355 31.2521 17.5834 31.7295 17.3429 32.2099C17.2804 32.4323 16.9204 32.6487 16.6675 32.9057C16.4813 32.9027 16.291 32.9383 16.1753 32.9729C16.0634 32.9709 15.952 32.969 15.8726 33.0055C15.339 33.4424 14.7923 33.3238 14.2587 33.7627C14.0596 33.8704 14.1675 33.5739 14.0063 33.6836C13.8822 33.7943 13.7945 33.904 13.7577 33.903C13.6083 33.9001 13.5428 33.8249 13.3976 33.7854C13.3148 33.8595 13.149 34.0058 13.0662 34.079C12.5568 34.2944 12.5238 34.2569 12.4123 33.9198Z" fill="white"/>
<path d="M32.6552 15.1445C32.5686 15.2542 32.4858 15.3273 32.4318 15.4756C32.4273 15.5132 32.4192 15.5863 32.3365 15.6605C32.2119 15.7702 32.084 15.9174 31.9139 16.0993C31.8266 16.211 31.5124 16.3543 31.3217 16.3889C31.2515 16.3504 31.1313 16.4235 31.0482 16.4967C30.8084 16.641 30.6631 16.6014 30.523 16.5253C30.4195 16.4492 30.3448 16.4482 30.2334 16.4462C30.084 16.4443 29.9718 16.4423 29.8273 16.4037C29.8691 16.3672 29.9143 16.293 29.9556 16.2565C29.9682 16.1448 30.0552 16.0341 30.1093 15.8878C30.2047 15.702 30.2912 15.5922 30.4238 15.4074C30.4326 15.3333 30.5524 15.2611 30.557 15.2245C30.5819 15.0012 30.7889 14.8193 30.9256 14.5969C31.0126 14.4862 31.0998 14.3755 31.1864 14.2668C31.2688 14.1936 31.3524 14.1205 31.4266 14.1215C31.5055 14.0849 31.5799 14.0869 31.6128 14.1235C31.6044 14.1986 31.6795 14.2005 31.758 14.163C31.8365 14.1274 31.8787 14.0908 31.9112 14.1274C32.0515 14.2045 32.2338 14.245 32.3786 14.2856C32.6272 14.4002 32.7923 14.588 32.9126 14.8499C32.7885 14.9596 32.7382 15.0713 32.6552 15.1445ZM28.7739 19.1407C28.7739 19.1407 28.7739 19.1407 28.8156 19.1041C28.9443 18.9558 29.0225 18.9212 29.1424 18.8471C29.5603 18.7799 30.567 18.1256 30.9149 18.3549C31.0098 18.5041 31.3619 18.6959 31.4937 18.8471C31.6217 19.0349 31.6297 19.2949 31.4768 19.6655C31.1991 20.1439 30.8876 20.5867 30.5234 21.1748C30.4238 21.3972 30.3283 21.5821 30.2747 21.7293C30.0882 22.0624 29.889 22.5052 29.6649 22.8364C29.4664 23.2802 30.2954 21.8796 30.1798 22.2492C30.1667 22.359 30.0793 22.4706 30.0341 22.5448C29.653 23.2831 29.6695 23.1349 29.5564 23.8011C29.5151 24.1727 29.1539 26.0655 29.1539 26.4006C29.1615 26.6606 29.294 26.8108 29.3891 26.961C29.5301 27.0391 29.6993 27.1894 29.9143 27.2665C30.0844 27.4187 30.2785 27.3465 30.5061 27.3129C33.7231 26.2464 32.6514 25.8194 34.6521 23.9543C35.0414 23.4759 35.5014 23.037 35.7538 22.4449C35.758 22.4084 35.758 22.4084 35.8902 22.2245C36.0351 22.5991 35.5669 23.1121 36.0765 23.2317C35.1356 24.6313 34.3476 26.6655 32.9976 27.389C32.5712 27.8664 29.7882 30.0548 28.2203 29.3985C27.6779 29.5764 27.2519 29.0486 26.7183 28.8183C26.3628 28.6641 26.0234 28.3616 25.7292 27.984C25.5982 27.4997 25.4702 26.9749 25.5242 26.4935C25.4744 26.2691 25.5031 26.0092 25.5242 25.8234C25.6866 25.3796 25.7073 24.5236 25.8897 24.23C25.9475 24.0452 26.0433 23.8594 26.069 23.637C26.1471 23.6004 26.0939 23.4146 26.3582 23.382C26.3953 23.382 26.4494 23.2327 26.4911 23.1971C26.706 22.9402 26.7688 22.7177 26.9845 22.4608C26.9845 22.4608 26.1146 23.2288 26.6443 22.4924C27.0255 21.754 27.7874 20.9485 28.0694 20.4306C28.0774 20.3574 28.1648 20.2477 28.1648 20.2477C28.3015 20.0253 28.4299 19.88 28.3846 19.6181C28.364 19.4688 28.418 19.3196 28.5547 19.1001C28.6248 19.1377 28.6578 19.1753 28.7739 19.1407Z" fill="white"/>
<path d="M42.4446 26.6764C42.2083 26.7852 42.0301 27.0431 41.9804 27.4889C41.9964 27.6737 42.0918 27.826 42.2033 27.8269C42.2864 27.7538 42.3978 27.7548 42.481 27.6816C42.6798 27.5729 42.8829 27.4266 43.015 27.2438C43.4878 26.6932 43.703 26.1012 43.5663 26.3216C43.1353 26.5015 42.8093 26.4234 42.4446 26.6764ZM47.1315 23.809C47.0645 24.7381 47.4001 24.409 48.8037 24.2084C49.2591 24.1402 49.95 23.9642 50.6953 23.3059C51.068 22.9768 51.4318 23.3919 51.5975 23.5797C51.5809 23.728 51.013 24.4634 50.9297 24.5375C49.2615 25.4419 48.442 25.429 47.2714 25.5605C46.3148 25.7691 46.1865 26.2504 45.7674 26.9878L45.585 27.2833C45.423 27.7261 45.1246 28.0572 44.9013 28.3884C44.8181 28.4615 44.7315 28.5732 44.6527 28.6078L44.2309 29.0476C44.0524 29.3056 43.7953 29.6002 43.5137 29.7801L43.2199 30.0746L42.8101 30.4028C42.6944 30.4383 42.5825 30.4364 42.4745 30.3978C42.3715 30.3217 42.2344 30.209 42.1267 30.1695C42.1026 30.0578 42.1148 29.9461 42.1275 29.8344C42.0903 29.4994 42.0117 29.1999 41.6804 29.1574C41.5401 29.0813 41.4448 28.931 41.3464 28.8183C41.2218 28.592 41.1184 28.5169 40.9445 28.4032C40.6346 28.1739 40.6265 27.5798 40.979 27.1014C41.1651 26.7693 41.3723 26.5875 41.6126 26.4412C41.8574 26.2583 42.1339 26.114 42.4074 26.0063C42.8882 25.7167 43.2981 25.7226 43.8073 25.5071C44.0842 25.3638 44.2999 25.1058 44.4944 24.7006C44.863 23.7369 45.3196 22.3313 45.5437 21.3301L45.6854 20.0669C45.6943 19.9937 45.7023 19.9186 45.6732 19.8445C45.6567 19.6577 45.4786 19.5816 45.3503 19.7279C45.2725 19.7634 45.2311 19.801 45.1813 19.9107C44.8748 20.315 44.568 20.7192 44.3312 21.164C43.6513 22.2315 43.0016 23.3751 42.3259 24.406C41.8287 25.179 41.377 25.8788 40.9499 26.6922C40.2415 28.0197 38.8246 29.3382 38.1783 30.7784C38.0374 31.0373 37.9339 31.2953 37.6937 31.4406C37.4991 31.5128 37.3911 31.8083 37.3662 32.0317C37.3367 32.2906 37.2666 32.5862 37.167 32.8086C37.0758 32.9568 36.9842 33.1041 36.9016 33.1782C36.649 33.4342 36.5537 33.6171 36.4211 33.8029C35.9446 34.7241 35.542 35.6493 35.3554 36.6496C35.2681 37.0953 35.2179 37.5411 35.0562 37.9849C34.9815 38.319 34.8034 38.576 34.5303 38.6837C34.3311 38.7925 34.1656 38.9387 34.0208 39.2343C33.9798 39.2708 33.8507 39.4171 33.8135 39.4161C33.7017 39.4152 33.6354 39.6741 33.5488 39.7848L33.5109 39.7838C32.9018 39.8866 32.58 39.4349 32.4357 38.7252C32.2908 38.0165 32.3043 37.2367 32.3502 36.4934C32.4751 34.7093 32.7792 33.0033 33.2026 31.2232C33.3561 30.5184 33.5883 29.7771 33.7757 29.1129C34.0538 27.9624 34.4437 26.8148 34.8624 25.7424C35.4555 24.1154 36.0817 22.5251 36.7406 20.9733C36.895 20.6026 37.0808 20.2705 37.2432 19.8267C37.8144 18.7197 38.3204 17.5375 38.8965 16.3929C39.1455 15.8394 39.5141 15.2128 39.8374 14.6583C40.0401 14.513 40.2262 14.5149 40.3956 14.6672L41.2272 15.2375L41.2609 15.275C41.7436 15.9531 41.988 16.7754 41.975 17.8904C41.9864 18.4488 41.8789 19.0795 41.6585 19.7091C41.3353 20.5957 40.9667 21.5574 40.5265 22.4816C40.2365 23.0717 39.9298 23.811 39.631 24.4762C38.802 26.5479 40.0232 26.3068 40.3546 25.6781C40.499 25.3826 41.1418 24.6492 41.2954 24.2785L42.8082 21.7719C43.0483 21.2915 43.2721 20.9614 43.6114 20.5937C43.906 20.3001 44.2086 19.9325 44.54 19.6399C44.7886 19.4215 45.1437 19.2406 45.4047 19.2455L46.0379 19.2544C46.3815 19.1862 46.6462 19.4867 46.9151 19.7526C47.0887 19.8662 47.2043 20.1657 47.2081 20.4632C47.2123 20.7598 47.2495 21.0948 47.22 21.3558L47.2483 22.4351L47.1315 23.809Z" fill="white"/>
<path d="M50.2057 32.0031C49.9743 32.0752 49.7262 32.2937 49.585 32.5526C49.4474 32.774 49.3198 32.9203 49.1578 33.029C48.9923 33.1753 48.8272 33.3216 48.7311 33.5065C48.6694 33.7279 48.6483 33.9147 48.5537 34.0975C48.4533 34.3199 48.4743 34.4692 48.5732 34.5828C48.7016 34.7706 48.8341 34.9209 48.962 35.1097C49.0659 35.1858 49.2106 35.2253 49.3758 35.08C49.5366 34.9683 49.6614 34.8596 49.8644 34.7133C50.0292 34.568 50.1998 34.3842 50.3656 34.2369C50.7304 33.9829 51.0236 33.6893 51.2972 33.2475C51.3806 33.1753 51.4296 33.0636 51.4757 32.9895C51.6954 32.696 51.8817 32.3638 52.0307 32.0317C52.2553 31.7006 52.2592 31.328 52.4505 30.9593C52.4877 30.9603 52.4956 30.8842 52.4995 30.8476C52.6329 29.6595 51.1001 31.3468 50.6029 31.7866C50.4783 31.8963 50.3587 31.9685 50.2057 32.0031ZM51.3129 35.1077C51.1629 35.1057 51.1629 35.1057 50.8039 35.3242C50.8039 35.3242 50.8118 35.249 50.8157 35.2115C50.7451 35.1729 50.7451 35.1729 50.7166 35.0988C50.6333 35.1719 50.5215 35.169 50.4725 35.2817C50.2695 35.427 50.0782 35.4606 49.8468 35.5327C49.7683 35.5683 49.7683 35.5683 49.5902 35.4922C49.6359 35.4161 49.6399 35.3795 49.686 35.3064C49.5738 35.3044 49.4911 35.3765 49.3808 35.3756C49.334 35.4497 49.2554 35.4863 49.1811 35.4853C48.862 35.6662 48.7219 35.59 48.6061 35.2905C48.5563 35.0662 48.5445 34.8428 48.412 34.6916C48.2215 34.3911 48.2261 34.0194 48.1978 33.6092C48.2143 33.461 48.2806 33.201 48.3756 33.0182C48.5422 32.5348 48.8111 32.1306 49.159 31.6897C49.8507 30.8437 50.5676 30.1112 51.3453 29.4915C52.9065 28.2125 52.7251 27.8379 52.4034 26.717C52.2759 25.8591 51.9739 25.2225 51.6758 24.5484C51.6561 24.3992 51.5561 24.2865 51.5355 24.1373C51.255 23.649 50.852 20.9269 50.9265 20.2587C51.0089 20.1865 50.9804 20.1114 51.0717 19.9641C51.0589 19.7398 51.1599 19.5184 51.3325 19.2979C51.3825 19.1872 51.5188 18.9658 51.4276 18.779C51.56 18.5952 51.6267 18.3352 51.7601 18.1514C51.8542 17.9675 51.9415 17.8578 52.0415 17.6354C52.1278 17.5247 52.1788 17.414 52.3024 17.3043C52.4397 17.0829 52.576 16.8615 52.7123 16.6411C52.8957 16.3455 53.1438 16.1271 53.3213 15.8691C53.3674 15.796 53.4047 15.796 53.4831 15.7604C53.6038 15.6863 53.6449 15.6497 53.7352 15.5024C53.8646 15.3571 53.947 15.283 54.0137 15.3581C54.2618 15.4738 54.4354 15.5884 54.6335 15.8138C54.6335 15.8138 54.6707 15.8148 54.7041 15.8533C55.0228 16.0075 55.4651 17.3893 55.4484 17.8726C55.4357 17.9853 55.4229 18.095 55.4896 18.1712C55.4641 18.3945 55.4396 18.6159 55.3395 18.8383C55.2317 19.1349 55.116 19.5045 54.9335 19.8001C54.8414 19.9463 54.7923 20.058 54.6393 20.0926C54.5187 20.1658 54.3902 20.3111 54.3 20.4603C54.25 20.57 54.0882 20.6788 54.1039 20.8656C54.1039 20.8656 54.096 20.9407 54.0549 20.9763C53.9225 21.1611 53.7852 21.3815 53.691 21.5674C53.4998 21.936 53.4253 22.6042 53.5027 22.9017C53.5567 23.0895 53.7224 23.2773 53.8215 23.39C54.2598 23.8071 54.5109 25.2245 54.8757 25.6387C55.0444 25.7899 54.9992 26.1981 55.1307 26.3513C55.3748 27.1717 56.6782 26.1882 57.6765 25.9421C58.2816 25.5418 58.8857 25.1425 59.4946 24.7056C59.9379 24.414 60.3851 24.0868 60.795 23.7577C61.0814 23.5392 61.3344 23.2823 61.5864 23.0253C61.7934 22.8434 62.0052 22.623 62.216 22.4026C62.2739 22.5528 62.2984 22.6645 62.3239 22.7762C62.3729 23.0006 62.3847 23.224 62.2111 23.4444C62.1611 23.5541 62.0787 23.6292 62.066 23.7399C61.962 23.9989 61.8257 24.2193 61.6512 24.4397C61.4403 24.6611 61.2952 24.9557 61.0843 25.1751C60.8813 25.3214 60.7156 25.4686 60.5499 25.6139C60.2635 25.8334 59.9781 26.0518 59.6927 26.2712C59.6506 26.3078 59.5682 26.381 59.527 26.4175C59.0926 26.633 58.6777 26.9997 58.2345 27.2893C58.1099 27.4 57.9481 27.5087 57.7873 27.6184C56.9802 28.165 55.8622 28.1472 55.7504 29.1495C55.8162 29.8948 55.8328 29.7445 55.5092 30.6341C55.5337 30.7458 55.4513 30.8189 55.4759 30.9306C55.3886 31.0413 55.4219 31.0799 55.4219 31.0799C55.2474 31.2993 55.2758 31.7075 55.1768 31.9299C55.1316 32.0031 55.0483 32.0782 54.9698 32.1128C54.9286 32.1494 54.8914 32.1494 54.8492 32.1859C54.6756 32.4073 54.4648 32.6258 54.3236 32.8847C54.0911 33.291 52.9693 34.315 52.6378 34.6076C52.5093 34.7548 52.422 34.8655 52.2975 34.9743C52.1239 35.1947 51.7758 35.3004 51.5404 35.4092C51.4982 35.4457 51.462 35.4457 51.4571 35.4823C51.205 35.7383 50.9314 35.846 50.7039 35.8797C50.6254 35.9152 50.6205 35.9538 50.5421 35.9894C50.803 35.6582 51.056 35.4022 51.3129 35.1077Z" fill="white"/>
<path d="M69.8272 13.1075C69.8801 12.9593 69.938 12.7734 69.9968 12.5896C70.0674 12.2921 70.1753 11.9966 70.2459 11.699C70.3204 11.3659 70.3204 11.0318 70.3214 10.6968C70.3008 10.5475 70.1929 10.509 70.1106 10.5821C69.9488 10.6918 69.8291 10.764 69.734 10.9488C69.5516 11.2424 69.3653 11.5745 69.2525 11.9086C69.2035 12.0193 69.1172 12.129 69.0672 12.2407C68.9759 12.388 68.8847 12.5352 68.7886 12.7211C68.6729 13.0898 68.5523 13.497 68.3944 13.9052C68.1375 14.8669 69.177 14.9213 69.4751 14.2551C69.5908 13.8844 69.7066 13.5148 69.8272 13.1075ZM68.1934 17.3607C68.67 16.4375 68.8651 15.6972 67.5481 16.4573C67.0009 17.677 66.7557 18.528 66.2918 19.6746C65.1268 22.7446 66.5772 20.4614 67.2529 19.0944C67.5932 18.3936 67.7834 18.0239 68.1934 17.3607ZM73.3507 22.9443C73.3252 23.1677 73.2134 23.1667 73.2301 23.3525C73.2507 23.5017 72.7202 24.5712 72.629 24.7195C72.3387 25.3105 72.0111 25.9006 71.7208 26.4907C71.3109 27.1539 70.9098 27.744 70.5028 28.3707C70.3244 28.6277 68.3238 30.8299 68.1208 30.9742C67.6001 31.3013 66.6723 32.2542 66.1908 32.5448C65.8721 32.7266 64.709 33.1171 64.4443 33.1507C63.9559 33.1803 63.4302 33.209 62.9958 33.0914C62.226 32.9678 61.2002 31.7985 60.9109 31.0503C60.7628 30.7142 60.5726 30.4137 60.5019 30.0411C60.4078 29.5548 60.3833 28.774 60.4088 28.2155C60.7589 25.097 61.1806 24.6572 62.4123 21.6613C62.5162 21.4043 62.579 21.1809 62.682 20.922C62.7477 20.662 62.8889 20.405 62.9889 20.1826C63.1458 19.7754 63.3037 19.3682 63.4567 18.9995C63.7342 18.186 64.862 16.7884 63.9882 16.5907C63.7313 16.5482 63.5038 16.5828 63.3018 16.393C63.0948 16.2418 62.884 16.1272 62.6781 15.9749C62.6114 15.8988 62.5084 15.8227 62.4917 15.6369C62.5702 15.6013 62.6486 15.5637 62.6859 15.5657C63.2204 15.4619 63.7156 15.3582 64.2501 15.2544C64.5943 15.1852 64.9709 15.1535 65.3475 15.1219C65.5004 15.0873 65.6573 15.0162 65.7525 14.8303C65.8986 14.5358 66.1143 14.2788 66.2252 13.9457C66.6772 13.2459 67.0215 12.5066 67.5059 11.8443C67.9453 11.2562 68.3758 10.7422 68.9112 10.3024C68.9975 10.1937 69.1221 10.084 69.2044 10.0098C69.3662 9.9011 69.5232 9.82895 69.7056 9.86948C69.9203 9.94657 70.1567 9.83883 70.4175 9.84279C70.4538 9.84279 70.4538 9.8428 70.496 9.80623C71.0295 9.70442 71.1913 9.92779 71.2943 10.339C71.4394 10.7136 71.4718 11.0862 71.4217 11.531C71.3962 11.7554 71.4129 11.9412 71.4286 12.128C71.4502 12.2763 71.4296 12.4621 71.3708 12.6479C71.3129 12.8318 71.255 13.0176 71.1932 13.24C71.0844 13.5355 70.9775 13.833 70.8696 14.1276C70.8569 14.2403 70.849 14.3134 70.798 14.4241C70.902 14.5002 71.0148 14.5022 71.1628 14.5042C71.614 14.4735 72.1023 14.4449 72.5534 14.4132C73.187 14.4231 73.8577 14.434 74.4912 14.4439C74.7148 14.4478 74.9296 14.5249 75.1865 14.5654C75.0993 14.6752 75.0542 14.7483 75.012 14.7859C74.9286 14.86 74.81 14.9322 74.7305 14.9687C74.4569 15.0745 74.1431 15.2188 73.8695 15.3265C73.8646 15.3631 73.8273 15.3631 73.8273 15.3631C73.4135 15.3938 72.9467 15.5736 72.5034 15.5292C72.2426 15.5242 71.9778 15.5578 71.7091 15.629C71.5512 15.7011 71.3649 15.6972 71.2119 15.7318C70.9098 15.7654 70.6441 15.798 70.342 15.8316C70.189 15.8662 70.1018 15.9749 70.0106 16.1242C69.9694 16.1598 69.9654 16.1973 69.9233 16.2339C69.3359 17.4902 68.6062 18.6684 67.9845 19.8871C67.8933 20.0344 67.8031 20.1816 67.7521 20.2933C67.5245 20.661 67.3382 20.9931 67.1803 21.4004C67.0322 21.7325 66.8077 22.0636 66.588 22.3581C66.4095 22.6161 66.4095 22.9512 66.1938 23.2082C65.6799 24.1294 64.8797 26.9454 64.7953 28.3568C64.7659 28.9519 64.8522 29.5113 64.9758 30.0708C65.0297 30.2586 65.166 30.3712 65.2612 30.5225C65.2984 30.5225 65.3318 30.56 65.4063 30.562C65.7417 30.5669 66.4076 30.6134 66.7684 30.396C67.0087 30.2507 68.2257 29.3779 68.4699 29.195C69.0917 28.6465 70.5117 27.2913 70.9677 26.555C71.3737 25.9283 71.6522 25.1138 72.0533 24.5238C72.2445 24.1551 72.7084 23.3436 72.9408 22.9383C73.1232 22.9779 73.3998 22.8346 73.3507 22.9443Z" fill="white"/>
<path d="M78.108 21.1208C78.0217 21.2315 77.8923 21.3778 77.802 21.5251C77.6236 21.7821 77.6393 21.9689 77.8138 22.0826C77.9168 22.1587 78.058 22.2348 78.1198 22.3484C78.314 22.6104 78.617 22.5778 78.9181 22.5471C79.1877 22.476 79.4025 22.22 79.581 21.961C79.9125 21.3334 80.0743 21.2246 80.3685 20.596C81.1226 19.1934 79.8928 19.5107 79.2848 19.9476C78.8416 20.2392 78.4895 20.7176 78.108 21.1208ZM73.0821 24.0199C72.8291 24.6109 72.8036 25.1684 72.8153 25.7278C72.8114 25.7644 72.8487 25.7644 72.882 25.802C72.9644 25.3947 73.0438 25.0231 73.1223 24.6534C73.189 24.3925 73.2557 24.1335 73.1684 23.9102C73.1272 23.9467 73.086 23.9833 73.0821 24.0199ZM72.8153 26.396C72.8399 26.5087 72.8683 26.5838 72.8938 26.6945C72.8801 26.8062 72.984 26.8833 72.8928 27.0296C72.8595 26.992 72.8232 26.992 72.8271 26.9555C72.682 26.5809 72.6623 26.0965 72.6418 25.6122C72.6084 25.5746 72.6506 25.5381 72.6535 25.5015C72.7163 24.945 72.7751 24.4241 72.986 23.8696C73.036 23.7589 73.086 23.6472 73.0987 23.5365C73.1066 23.4624 73.1105 23.4258 73.1272 23.2766C72.9909 23.498 72.8997 23.6443 72.8457 23.7935C72.7879 23.9783 72.7339 24.1266 72.6761 24.3115C72.4182 25.2742 72.3554 26.1667 72.6771 26.9525C72.7359 27.1017 72.8349 27.2154 72.9301 27.3647C72.9968 27.4408 73.0664 27.4783 73.1743 27.5179C73.1703 27.5545 73.2115 27.5179 73.287 27.5198C73.1948 27.333 73.0997 27.1818 73.0458 26.996C72.9595 26.7706 72.985 26.5482 72.8938 26.3614C72.8565 26.3594 72.8153 26.396 72.8153 26.396ZM76.7282 23.1085C76.7194 23.1827 76.637 23.2558 76.5586 23.2914C76.5174 23.328 76.4379 23.3645 76.4262 23.4752C76.3722 23.6235 76.331 23.6601 76.2143 23.6957C76.1359 23.7312 76.132 23.7688 76.0702 23.9912C76.1447 23.9922 76.181 23.9922 76.2143 24.0307C76.2143 24.0307 76.2143 24.0307 76.2094 24.0673C76.1359 24.0663 76.0614 24.0663 75.9496 24.0634C75.9996 23.9537 76.0113 23.841 76.0202 23.7659C75.9829 23.7659 75.9456 23.7659 75.9456 23.7659C75.8799 24.0248 75.8123 24.2857 75.7466 24.5437C75.8172 24.5823 75.8495 24.6208 75.8868 24.6208C75.8946 24.8808 75.8701 25.1032 75.8407 25.3641C75.8113 25.6231 75.8613 25.8484 75.9152 26.0343C76.0104 26.1855 76.2163 27.0069 76.3114 27.1571C76.7743 27.6839 77.3323 28.363 77.9246 28.4094C78.107 28.4499 79.2083 28.28 79.3986 28.2463C80.3214 27.9992 81.2324 27.5288 82.1229 26.91C82.8103 26.4375 83.4694 25.8899 84.1597 25.3789C84.2009 25.3424 84.2431 25.3058 84.2843 25.2692C84.5373 25.0132 84.7864 24.7928 85.0384 24.5368C85.4944 24.1335 85.9122 23.7322 86.3015 23.2548C86.4339 23.069 86.5663 22.8871 86.7987 22.814C86.686 23.1481 86.5781 23.4446 86.3957 23.7392C86.3466 23.8489 86.2594 23.9616 86.177 24.0337C85.924 24.2907 85.7131 24.5101 85.5307 24.8057C85.4023 24.952 85.2365 25.0982 85.109 25.2445C85.0669 25.2821 85.0208 25.3562 84.9345 25.4649C85.0512 25.4303 85.1286 25.3938 85.2444 25.3582C85.1826 25.5796 84.9923 25.6152 84.9335 25.801C84.9668 25.8376 84.9629 25.8751 85.0335 25.9137C84.9011 26.0975 84.7766 26.2062 84.6109 26.3535C84.3667 26.5364 84.1176 26.7558 83.9067 26.9743C83.5302 27.3419 83.1232 27.6325 82.7182 27.9241C82.5152 28.0704 82.3494 28.2157 82.1513 28.3244C81.9895 28.4331 81.8316 28.5053 81.6698 28.615C81.4345 28.7228 81.1981 28.8315 80.9579 28.9758C80.5597 29.1932 80.1302 29.3722 79.7124 29.4413C79.5967 29.4769 79.48 29.5115 79.3643 29.5471C78.9014 29.6894 78.4454 29.7557 77.9943 29.7863C77.4647 29.8535 75.3121 29.4107 74.8483 29.218C73.6038 28.6773 73.4136 28.0417 72.8771 27.5129C72.6731 27.3241 72.5211 27.0247 72.4427 26.7252C72.3093 26.2408 72.3309 25.719 72.3564 25.1625C72.4858 24.011 72.9085 22.901 73.5096 21.8691C73.646 21.6477 73.646 21.6477 73.6469 21.3126C73.4479 21.4213 73.3272 21.4935 73.2282 21.7149C73.0791 22.048 72.8967 22.3435 72.6731 22.6746C72.7104 22.3405 72.884 22.1191 73.0252 21.8622C73.3988 21.197 73.8038 20.5723 74.2805 19.9832C74.761 19.3585 75.2709 18.8079 75.8505 18.2959C76.434 17.7464 77.0469 17.2729 77.6854 16.9112C77.8423 16.839 77.958 16.8024 78.0786 16.7303C78.2728 16.6581 78.464 16.6245 78.5542 16.8123C78.6543 16.925 78.8063 16.8904 78.8729 16.9655C78.9759 17.0426 78.9965 17.1909 79.0632 17.266C79.4153 17.4578 80.7892 17.8512 81.0991 18.0775C81.202 18.1546 81.2589 18.3039 81.3178 18.4531C81.4668 18.7911 81.5737 19.1658 81.8091 19.3921C81.8758 19.4662 81.8954 19.6155 81.9209 19.7272C81.9454 20.1739 81.9366 20.5841 81.7708 21.0655C81.6384 21.5824 81.3599 22.0628 81.05 22.5046C80.8716 22.7626 80.697 22.982 80.5528 23.2776C80.4489 23.5365 80.2753 23.7579 80.0968 24.0149C79.9144 24.3105 79.633 24.4913 79.3633 24.5625C79.1279 24.6702 78.8631 24.7038 78.6435 24.6623C78.5366 24.6238 78.4199 24.6603 78.362 24.5101C78.3659 24.4725 78.3297 24.4716 78.3297 24.4716C78.0266 24.5042 77.8785 24.1671 77.6677 24.0525C77.6353 24.0149 77.6088 23.9032 77.6138 23.8647C77.705 23.7174 77.6383 23.6433 77.6138 23.5316C77.498 23.2321 77.3872 22.8941 77.2342 22.5956C77.2087 22.4829 77.1018 22.4443 76.9773 22.5531C76.9194 22.7379 76.7527 22.8861 76.7282 23.1085Z" fill="white"/>
<path d="M90.7891 24.5137C91 23.9582 92.5985 21.3409 92.9093 20.9001C93.1712 20.569 93.432 20.2378 93.6605 19.8692C93.9174 19.5756 94.1773 19.2455 94.3607 18.949C94.5382 18.693 94.7785 18.5467 95.006 18.514C95.2669 18.518 95.4944 18.4844 95.718 18.4873C96.1661 18.4933 96.3887 18.8313 96.5574 19.3186C96.5545 19.3552 96.5496 19.3928 96.5407 19.4669C96.5613 19.9502 96.6153 20.4731 96.631 20.995C96.6516 21.4773 96.5555 21.9962 96.5015 22.4796C96.4643 22.8127 96.4643 23.1487 96.3888 23.4808C96.5623 23.5965 96.5094 23.7438 96.5506 23.7072C96.6339 23.635 96.882 23.7497 96.9644 23.6765C97.0105 23.6034 97.088 23.5668 97.1341 23.4937C97.2959 23.385 97.4577 23.2752 97.6273 23.0914C97.7597 22.9076 97.8715 22.9095 98 23.0983C97.9872 23.21 97.9372 23.3197 97.8176 23.3919C97.7754 23.4294 97.7303 23.5026 97.6842 23.5757C97.6352 23.6874 97.5479 23.7981 97.4322 23.8337C97.391 23.8703 97.3488 23.9058 97.3076 23.9424C97.2665 23.979 97.188 24.0146 97.1841 24.0521C97.1429 24.0887 97.1046 24.0877 97.0635 24.1253C96.8977 24.2706 96.782 24.3062 96.6329 24.3042C96.5957 24.3032 96.4427 24.3388 96.2809 24.4485C96.1612 24.5197 96.0485 24.5187 95.9828 24.4426C95.7395 24.2903 95.4816 24.2498 95.2335 24.1332C94.8001 24.0156 94.5098 23.6014 94.3823 23.0795C94.2332 22.4064 94.3166 21.6651 94.5078 20.9614C94.6196 20.6283 94.6539 20.3317 94.7236 20.0342C94.7854 19.8118 94.8481 19.5904 94.9109 19.3671C95.0021 19.2208 95.0138 19.1081 94.9933 18.9588C94.957 18.9588 94.8854 18.9213 94.8775 18.9954C94.8363 19.031 94.754 19.1051 94.7079 19.1782C94.5255 19.4738 94.3058 19.7674 94.0822 20.0985C93.9488 20.2823 93.8498 20.5047 93.7831 20.7647C93.8037 20.9129 93.6792 21.0236 93.6301 21.1333C93.2241 21.76 92.8593 22.3501 92.5563 23.0519C92.3121 23.5688 92.0022 24.0106 91.7198 24.5266C91.2971 25.3015 90.8087 26.0013 90.4557 26.8138C90.3517 27.0727 90.1693 27.3683 90.0252 27.6628C89.9251 27.8842 88.7934 29.6525 88.5493 29.8354C88.5414 29.9095 88.4257 29.9461 88.3423 30.0182C87.8245 30.6429 87.3067 30.5965 86.7281 30.4393C86.6448 30.5124 86.5791 30.4363 86.5124 30.3622C85.9328 30.205 85.6984 29.6426 85.6318 28.8984C85.5915 28.2648 85.6671 27.5966 85.7377 26.965C85.8828 26.0003 86.0279 25.0356 86.2113 24.0709C86.5183 22.9965 86.3614 23.0687 86.7703 22.0704C87.1949 20.6273 87.0204 20.8467 87.7049 19.4066C87.7716 19.1466 87.9403 18.9638 88.0442 18.7038C88.3806 18.0406 88.6709 17.4505 89.0357 16.8604C89.2387 16.38 89.3956 16.3069 89.7594 16.387C90.0203 16.3909 90.3468 16.47 90.6744 16.5511C90.8941 16.5916 91.1088 16.6687 91.3785 16.9326C91.5844 17.4199 91.9198 17.7599 92.2425 18.2096C92.5102 18.8106 92.5357 19.2573 92.2327 19.9601C91.963 20.6985 91.9512 20.14 91.6766 20.9179C91.0186 22.4707 89.9859 23.6815 89.4181 25.087C88.6591 26.8612 90.5694 25.1414 90.7891 24.5137Z" fill="white"/>
<path d="M20.0301 45.3764H20.3736C20.669 45.3764 20.9007 45.2854 21.0701 45.1026C21.2387 44.9207 21.3229 44.6756 21.3229 44.3682C21.3229 44.0618 21.2387 43.8176 21.0701 43.6357C20.9007 43.4529 20.669 43.362 20.3736 43.362H20.0301V45.3764ZM20.3736 42.7709C20.8801 42.7709 21.2958 42.9172 21.6209 43.2137C21.9466 43.5092 22.1098 43.8947 22.1098 44.3672C22.1098 44.8387 21.9466 45.2241 21.6209 45.5216C21.2958 45.8192 20.8801 45.9674 20.3736 45.9674H19.257V42.7709H20.3736Z" fill="white"/>
<path d="M26.5891 42.761V43.3531H25.4415V44.041H26.4536V44.634H25.4415V45.3764H26.5891V45.9674H24.6681V42.761H26.5891Z" fill="white"/>
<path d="M30.3999 43.3392C30.3033 43.3392 30.224 43.3649 30.1623 43.4163C30.101 43.4687 30.0697 43.5418 30.0697 43.6397C30.0697 43.7365 30.0984 43.8146 30.1555 43.8749C30.2128 43.9342 30.2872 43.9787 30.3796 44.0113C30.4714 44.0429 30.5733 44.0726 30.6868 44.1022C30.7998 44.1309 30.912 44.1665 31.0235 44.207C31.135 44.2475 31.2369 44.2989 31.3288 44.3592C31.4207 44.4205 31.4955 44.5065 31.5525 44.6182C31.61 44.7279 31.6387 44.8603 31.6387 45.0155C31.6387 45.2864 31.5287 45.5176 31.3104 45.7104C31.092 45.9031 30.8044 46 30.4469 46C30.09 46 29.8026 45.914 29.5838 45.741C29.3655 45.5671 29.2564 45.3219 29.2564 45.0027H30.0788C30.0999 45.2567 30.2293 45.3842 30.4676 45.3842C30.5787 45.3842 30.6664 45.3555 30.7297 45.2962C30.7929 45.236 30.8251 45.1618 30.8251 45.0709C30.8251 44.979 30.7963 44.9058 30.7389 44.8475C30.6814 44.7902 30.6071 44.7437 30.5152 44.7111C30.4232 44.6775 30.3205 44.6459 30.2079 44.6182C30.0945 44.5895 29.9823 44.5529 29.8704 44.5104C29.7593 44.4689 29.6578 44.4166 29.5655 44.3573C29.4735 44.2989 29.3989 44.2139 29.3422 44.1022C29.2851 43.9915 29.2564 43.8601 29.2564 43.7079C29.2564 43.4103 29.3659 43.1721 29.5862 42.9932C29.8061 42.8133 30.0868 42.7244 30.429 42.7244C30.771 42.7244 31.0476 42.8015 31.2587 42.9586C31.4694 43.1148 31.5797 43.3619 31.5889 43.698H30.7481C30.7358 43.5833 30.6987 43.4953 30.6374 43.4321C30.5757 43.3698 30.496 43.3392 30.3999 43.3392Z" fill="white"/>
<path d="M34.3191 45.9674V42.7709H35.0917V45.9674H34.3191Z" fill="white"/>
<path d="M38.1274 45.5338C37.8125 45.2244 37.6554 44.834 37.6554 44.3595C37.6554 43.8871 37.8125 43.4957 38.1274 43.1873C38.4426 42.8779 38.8276 42.7247 39.2824 42.7247C39.6356 42.7247 39.9485 42.8196 40.2228 43.0064C40.4975 43.1952 40.6883 43.4561 40.7966 43.7902H39.875C39.754 43.5569 39.5613 43.4403 39.2965 43.4403C39.0307 43.4403 38.8223 43.5233 38.6702 43.6904C38.5177 43.8574 38.4415 44.0808 38.4415 44.3595C38.4415 44.6383 38.5177 44.8626 38.6702 45.0307C38.8223 45.1977 39.0265 45.2798 39.2824 45.2798C39.4663 45.2798 39.616 45.2343 39.7321 45.1414C39.8481 45.0495 39.9256 44.9259 39.9654 44.7697H39.0706V44.1787H40.7966V44.7697C40.7396 45.0613 40.5818 45.3341 40.3221 45.5852C40.1987 45.7067 40.0458 45.8066 39.8639 45.8807C39.6811 45.9568 39.4873 45.9964 39.2824 45.9964C38.8276 45.9964 38.4426 45.8412 38.1274 45.5338Z" fill="white"/>
<path d="M45.4301 42.761H46.2035V45.9674H45.4301L44.1372 43.9491V45.9674H43.3646V42.761H44.1372L45.4301 44.7793V42.761Z" fill="white"/>
<path d="M53.4537 43.3392C53.3576 43.3392 53.2781 43.3649 53.2164 43.4163C53.1546 43.4687 53.1232 43.5418 53.1232 43.6397C53.1232 43.7365 53.1526 43.8146 53.2095 43.8749C53.2664 43.9342 53.3419 43.9787 53.4331 44.0113C53.5253 44.0429 53.6282 44.0726 53.741 44.1022C53.8538 44.1309 53.9656 44.1665 54.0774 44.207C54.1892 44.2475 54.2912 44.2989 54.3824 44.3592C54.4746 44.4205 54.5491 44.5065 54.6069 44.6182C54.6638 44.7279 54.6923 44.8603 54.6923 45.0155C54.6923 45.2864 54.5834 45.5176 54.3647 45.7104C54.146 45.9031 53.8577 46 53.5017 46C53.1438 46 52.8565 45.914 52.6378 45.741C52.4191 45.5671 52.3102 45.3219 52.3102 45.0027H53.133C53.1536 45.2567 53.283 45.3842 53.5214 45.3842C53.6331 45.3842 53.7204 45.3555 53.7832 45.2962C53.8469 45.236 53.8783 45.1618 53.8783 45.0709C53.8783 44.979 53.8499 44.9058 53.793 44.8475C53.7351 44.7902 53.6606 44.7437 53.5694 44.7111C53.4772 44.6775 53.3742 44.6459 53.2615 44.6182C53.1487 44.5895 53.0359 44.5529 52.9251 44.5104C52.8133 44.4689 52.7123 44.4166 52.6191 44.3573C52.5279 44.2989 52.4534 44.2139 52.3955 44.1022C52.3387 43.9915 52.3102 43.8601 52.3102 43.7079C52.3102 43.4103 52.4201 43.1721 52.6397 42.9932C52.8594 42.8133 53.1409 42.7244 53.4831 42.7244C53.8254 42.7244 54.1019 42.8015 54.3127 42.9586C54.5236 43.1148 54.6334 43.3619 54.6423 43.698H53.8018C53.7901 43.5833 53.7528 43.4953 53.691 43.4321C53.6292 43.3698 53.5508 43.3392 53.4537 43.3392Z" fill="white"/>
<path d="M57.156 43.362V42.7709H59.6606V43.362H58.7927V45.9674H58.02V43.362H57.156Z" fill="white"/>
<path d="M62.1778 44.6785V42.7708H62.9505V44.6785C62.9505 44.8702 62.9976 45.0165 63.0917 45.1213C63.1849 45.2241 63.3222 45.2755 63.5026 45.2755C63.6841 45.2755 63.8223 45.2241 63.9185 45.1213C64.0146 45.0165 64.0636 44.8702 64.0636 44.6785V42.7708H64.8364V44.6785C64.8364 44.9612 64.7707 45.2053 64.6392 45.4099C64.5088 45.6145 64.3421 45.7638 64.142 45.8587C63.942 45.9535 63.7243 46 63.4889 46C63.1212 46 62.8113 45.8844 62.5583 45.6541C62.3043 45.4228 62.1778 45.0986 62.1778 44.6785Z" fill="white"/>
<path d="M68.3393 45.3764H68.6826C68.9777 45.3764 69.2102 45.2854 69.3788 45.1026C69.5475 44.9207 69.6318 44.6756 69.6318 44.3682C69.6318 44.0618 69.5475 43.8176 69.3788 43.6357C69.2102 43.4529 68.9777 43.362 68.6826 43.362H68.3393V45.3764ZM68.6826 42.7709C69.1886 42.7709 69.6054 42.9172 69.93 43.2137C70.2565 43.5092 70.4183 43.8947 70.4183 44.3672C70.4183 44.8387 70.2565 45.2241 69.93 45.5216C69.6054 45.8192 69.1886 45.9674 68.6826 45.9674H67.5666V42.7709H68.6826Z" fill="white"/>
<path d="M72.978 45.9674V42.7709H73.7507V45.9674H72.978Z" fill="white"/>
<path d="M78.5492 45.0304C78.7012 44.8623 78.7777 44.6379 78.7777 44.3592C78.7777 44.0805 78.7012 43.8571 78.5492 43.6901C78.3962 43.523 78.1932 43.44 77.9382 43.44C77.6833 43.44 77.4803 43.523 77.3283 43.6901C77.1762 43.8571 77.0997 44.0805 77.0997 44.3592C77.0997 44.6379 77.1762 44.8623 77.3283 45.0304C77.4803 45.1974 77.6833 45.2794 77.9382 45.2794C78.1932 45.2794 78.3962 45.1974 78.5492 45.0304ZM76.7859 45.5364C76.4711 45.2261 76.3132 44.8337 76.3132 44.3592C76.3132 43.8867 76.4711 43.4953 76.7859 43.187C77.1007 42.8776 77.4861 42.7244 77.9431 42.7244C78.3991 42.7244 78.7836 42.8776 79.0954 43.187C79.4083 43.4953 79.5632 43.8867 79.5632 44.3592C79.5632 44.8337 79.4073 45.2261 79.0935 45.5364C78.7806 45.8458 78.3952 46 77.9412 46C77.4861 46 77.1007 45.8458 76.7859 45.5364Z" fill="white"/>
</g>
<defs>
<filter id="filter0_f_1_3161" x="0" y="0" width="104" height="52" filterUnits="userSpaceOnUse" color-interpolation-filters="sRGB">
<feFlood flood-opacity="0" result="BackgroundImageFix"/>
<feBlend mode="normal" in="SourceGraphic" in2="BackgroundImageFix" result="shape"/>
<feGaussianBlur stdDeviation="3" result="effect1_foregroundBlur_1_3161"/>
</filter>
</defs>
</svg>
