<svg width="92" height="52" viewBox="0 0 92 52" fill="none" xmlns="http://www.w3.org/2000/svg">
<g filter="url(#filter0_f_1_3176)">
<path d="M27.0712 23.9257L17.4132 10.2522V18.1966C17.4132 20.2345 17.5409 23.697 21.2818 23.697V23.9257H13.1341V23.697C16.6703 23.697 17.1821 20.2084 17.1821 18.1966V9.94697L15.978 8.24048C14.4415 6.22965 13.4421 6.25483 12.7762 6.20348V6H20.9484L29.6587 18.5028V11.7039C29.6587 9.33548 28.8388 6.20348 25.9948 6.20348V6H33.7575V6.20348C30.581 6.20348 29.8888 9.33548 29.8888 11.7039V23.9257H27.0712Z" fill="white"/>
<path d="M49.8432 18.936V23.9257H34.8814V23.697C35.9578 23.697 36.3682 22.1688 36.3682 20.4371V9.51379C36.3682 7.93518 36.0094 6.20348 34.8814 6.20348V6H49.5098V11.2194H49.2797C49.2797 6.25482 42.2853 6.22964 42.2853 6.22964H41.3639V14.7584H43.4387C43.464 14.7584 46.1793 14.8359 46.4611 11.7543H46.6921V17.9931H46.4611C46.1793 14.9376 43.464 14.9881 43.4387 14.9881H41.3639V23.697H42.2853C42.2853 23.697 49.6122 23.9771 49.6122 18.936H49.8432Z" fill="white"/>
<path d="M80.5589 6V6.20348C79.5333 6.20348 77.9704 6.99232 76.1004 11.4742L71.6175 23.9257H70.6952C68.3124 18.4001 66.7759 14.8359 65.7512 12.5179L61.6515 23.9257H60.7291C54.2739 8.92757 53.9405 8.2666 53.9405 8.2666C53.0689 6.22963 52.711 6.25483 52.0451 6.20348V6H60.0379V6.20348C58.398 6.20348 59.7044 9.1572 59.7044 9.1572L63.5731 17.8914L65.6225 12.2127C64.0596 8.59708 63.9065 8.2666 63.9065 8.2666C63.0349 6.22963 62.6761 6.25483 62.0102 6.20348V6H70.003V6.20348C68.3641 6.20348 69.6705 9.1572 69.6705 9.1572L73.5138 17.9166L75.8187 11.4742C76.4592 9.66689 75.8957 6.20348 73.2818 6.20348V6H80.5589Z" fill="white"/>
<path d="M34.5138 28.0736V28.2771C33.4882 28.2771 31.9253 29.0659 30.0553 33.5478L25.5724 45.9993H24.6501C22.2673 40.4737 20.7308 36.9095 19.7051 34.5915L15.6064 45.9993H14.6841C8.22879 31.0012 7.89536 30.3402 7.89536 30.3402C7.02471 28.3032 6.66591 28.3284 6 28.2771V28.0736H13.9928V28.2771C12.3529 28.2771 13.6594 31.2308 13.6594 31.2308L17.528 39.9649L19.5774 34.2862C18.0145 30.6707 17.8614 30.3402 17.8614 30.3402C16.9898 28.3032 16.632 28.3284 15.9651 28.2771V28.0736H23.9579V28.2771C22.319 28.2771 23.6254 31.2308 23.6254 31.2308L27.4678 39.9902L29.7736 33.5478C30.4141 31.7405 29.8506 28.2771 27.2377 28.2771V28.0736H34.5138Z" fill="white"/>
<path d="M39.7381 35.1019L37.4576 40.831H42.2993L39.7381 35.1019ZM42.3247 28.0743H42.4533C48.9349 42.8428 49.3698 43.683 49.3698 43.683C50.2921 45.7199 51.1637 45.7451 51.6755 45.7965V46H42.7097V45.7965C44.7591 45.7965 43.2216 42.8176 43.2216 42.8176L42.4017 41.0607H37.3806C36.8678 42.2323 37.3289 45.7965 40.404 45.7965V46H33.0254V45.7965C33.7937 45.7451 35.1772 45.5416 37.1505 41.0607L42.3247 28.0743Z" fill="white"/>
<path d="M69.7349 28.0743V28.2778C68.6332 28.2778 66.9933 29.0666 64.9956 33.5485L59.9482 46H59.2053C52.3396 31.0019 51.9808 30.3409 51.9808 30.3409C51.0585 28.3039 50.6743 28.3291 49.9568 28.2778V28.0743H58.4877V28.2778C56.7201 28.2778 58.1299 31.2315 58.1299 31.2315L62.1009 40.0161L64.7392 33.5485C65.5075 31.6646 65.0463 28.2778 61.9722 28.2778V28.0743H69.7349Z" fill="white"/>
<path d="M86 41.0103V46H71.0382V45.7713C72.1146 45.7713 72.525 44.2431 72.525 42.5114V31.5881C72.525 30.0095 72.1653 28.2778 71.0382 28.2778V28.0743H85.6666V33.2936H85.4365C85.4365 28.3291 78.4421 28.3039 78.4421 28.3039H77.5198V36.8337H79.5955C79.6208 36.8337 82.337 36.9102 82.6179 33.8286H82.8489V40.0674H82.6179C82.337 37.0119 79.6208 37.0623 79.5955 37.0623H77.5198V45.7713H78.4421C78.4421 45.7713 85.769 46.0513 85.769 41.0103H86Z" fill="white"/>
</g>
<defs>
<filter id="filter0_f_1_3176" x="0" y="0" width="92" height="52" filterUnits="userSpaceOnUse" color-interpolation-filters="sRGB">
<feFlood flood-opacity="0" result="BackgroundImageFix"/>
<feBlend mode="normal" in="SourceGraphic" in2="BackgroundImageFix" result="shape"/>
<feGaussianBlur stdDeviation="3" result="effect1_foregroundBlur_1_3176"/>
</filter>
</defs>
</svg>
