<svg width="71" height="71" viewBox="0 0 71 71" fill="none" xmlns="http://www.w3.org/2000/svg">
<path d="M5.18911 17.7887L35 0.57735L64.8109 17.7887V52.2113L35 69.4226L5.18911 52.2113V17.7887Z" fill="white" stroke="#0E0E0E"/>
<path d="M18.2867 65.3084L1.0754 35.4976L18.2867 5.68667H52.7094L69.9207 35.4976L52.7094 65.3084H18.2867Z" stroke="#0E0E0E"/>
<path d="M30.6686 36.4759L29.2857 46L35 42.8636L40.7143 46L39.3314 36.4655M43 30.3182C43 34.3599 39.4183 37.6364 35 37.6364C30.5817 37.6364 27 34.3599 27 30.3182C27 26.2765 30.5817 23 35 23C39.4183 23 43 26.2765 43 30.3182Z" stroke="#0E0E0E" stroke-width="1.5" stroke-linecap="round" stroke-linejoin="round"/>
</svg>
