<svg width="16" height="13" viewBox="0 0 16 13" fill="none" xmlns="http://www.w3.org/2000/svg">
<path d="M14.3244 3.84882C14.3341 3.97969 14.3341 4.11059 14.3341 4.24146C14.3341 8.23328 11.1792 12.8328 5.41309 12.8328C3.63664 12.8328 1.98642 12.3373 0.598267 11.4773C0.850665 11.5053 1.09332 11.5146 1.35543 11.5146C2.82121 11.5146 4.17054 11.0379 5.24806 10.2246C3.86962 10.1965 2.71445 9.32708 2.31644 8.13046C2.51061 8.15849 2.70474 8.17719 2.90861 8.17719C3.19011 8.17719 3.47164 8.13978 3.73373 8.07438C2.29705 7.7939 1.21951 6.5786 1.21951 5.11088V5.07349C1.63691 5.29786 2.12231 5.43809 2.63676 5.45676C1.79222 4.91454 1.23893 3.98904 1.23893 2.942C1.23893 2.38109 1.39422 1.86692 1.66604 1.41819C3.20951 3.2505 5.52956 4.4471 8.13109 4.578C8.08256 4.35363 8.05343 4.11994 8.05343 3.88622C8.05343 2.22216 9.45129 0.866638 11.1889 0.866638C12.0917 0.866638 12.9071 1.23123 13.4798 1.82019C14.1884 1.68932 14.8679 1.43689 15.4698 1.09101C15.2368 1.79216 14.7417 2.38112 14.0914 2.75504C14.7224 2.68963 15.3339 2.52132 15.8969 2.28763C15.4699 2.88591 14.9359 3.41876 14.3244 3.84882Z" fill="#0E0E0E"/>
</svg>
