<svg width="11" height="14" viewBox="0 0 11 14" fill="none" xmlns="http://www.w3.org/2000/svg">
<path d="M5.84375 0C2.90469 0 0 1.91862 0 5.02377C0 6.99849 1.13437 8.12049 1.82187 8.12049C2.10547 8.12049 2.26875 7.34631 2.26875 7.12752C2.26875 6.86665 1.58984 6.31126 1.58984 5.22573C1.58984 2.9705 3.34297 1.37165 5.61172 1.37165C7.5625 1.37165 9.00625 2.45718 9.00625 4.45154C9.00625 5.941 8.39609 8.73479 6.41953 8.73479C5.70625 8.73479 5.09609 8.22989 5.09609 7.5062C5.09609 6.4459 5.85234 5.41927 5.85234 4.32532C5.85234 2.46841 3.1625 2.80501 3.1625 5.04901C3.1625 5.52025 3.22266 6.04198 3.4375 6.47115C3.04219 8.13732 2.23438 10.6198 2.23438 12.3364C2.23438 12.8666 2.31172 13.3883 2.36328 13.9184C2.46068 14.025 2.41198 14.0138 2.56094 13.9605C4.00469 12.0251 3.95313 11.6464 4.60625 9.11346C4.95859 9.76983 5.86953 10.1233 6.59141 10.1233C9.63359 10.1233 11 7.22008 11 4.60301C11 1.81764 8.54219 0 5.84375 0Z" fill="#0E0E0E"/>
</svg>
