<svg width="152" height="26" viewBox="0 0 152 26" fill="none" xmlns="http://www.w3.org/2000/svg">
<g filter="url(#filter0_f_1_4471)">
<path d="M148 15.2114C148 16.1371 147.707 16.7543 147.024 17.2686C146.438 17.7828 145.559 17.9886 144.388 17.9886C143.216 17.9886 142.24 17.7828 141.557 17.3714V16.0343C141.947 16.24 142.435 16.4457 142.923 16.5486C143.412 16.6514 143.9 16.7543 144.388 16.7543C145.071 16.7543 145.657 16.6514 146.047 16.4457C146.438 16.24 146.633 15.8285 146.633 15.3142C146.633 14.9028 146.438 14.5943 146.145 14.3886C145.852 14.08 145.266 13.7714 144.388 13.4628C143.509 13.1542 142.923 12.8457 142.631 12.64C142.24 12.4343 142.045 12.1257 141.85 11.8171C141.654 11.5086 141.557 11.0971 141.557 10.6857C141.557 9.96571 141.85 9.34857 142.435 8.83428C143.021 8.32 143.802 8.11423 144.876 8.11423C145.852 8.11423 146.828 8.31995 147.707 8.73138L147.219 9.86281C146.34 9.45138 145.462 9.24567 144.778 9.24567C144.095 9.24567 143.607 9.34856 143.314 9.55427C143.021 9.75998 142.826 10.0685 142.826 10.48C142.826 10.6857 142.923 10.9942 143.021 11.0971C143.119 11.3028 143.314 11.4057 143.607 11.6114C143.9 11.8171 144.388 12.0228 145.169 12.3314C146.243 12.7428 146.926 13.1543 147.317 13.5657C147.805 14.08 148 14.5942 148 15.2114ZM9.85764 6.26281C8.58848 6.26281 7.51458 6.67428 6.73356 7.6C5.95255 8.52571 5.56204 9.75998 5.56204 11.4057C5.56204 13.0514 5.95254 14.2857 6.63593 15.2114C7.41695 16.1371 8.39322 16.5486 9.76 16.5486C10.6386 16.5486 11.5173 16.3429 12.5912 16.0343V17.3714C11.7126 17.68 10.7363 17.8857 9.56476 17.8857C7.80747 17.8857 6.44068 17.3714 5.46441 16.24C4.48813 15.1085 4 13.4628 4 11.4057C4 10.0686 4.19527 8.9371 4.6834 8.01139C5.17154 7.08567 5.85492 6.2628 6.63593 5.74852C7.41695 5.23423 8.49085 4.92568 9.76 4.92568C11.0292 4.92568 12.1031 5.13138 13.0793 5.64567L12.4936 6.87995C11.7126 6.57138 10.8339 6.26281 9.85764 6.26281ZM22.061 14.3886C22.061 15.52 21.6705 16.3428 20.8895 16.96C20.1085 17.5771 19.1322 17.8857 17.7654 17.8857C16.301 17.8857 15.2271 17.68 14.4461 17.2686V15.8285C14.9342 16.0342 15.52 16.24 16.0081 16.3428C16.4963 16.4457 17.1797 16.5486 17.7654 16.5486C18.7417 16.5486 19.4251 16.3429 19.8156 16.0343C20.3037 15.6229 20.499 15.1085 20.499 14.4914C20.499 14.08 20.4014 13.6685 20.2061 13.4628C20.0109 13.1542 19.718 12.9485 19.3275 12.64C18.937 12.4343 18.3512 12.1257 17.5702 11.8171C16.4963 11.4057 15.6176 10.8914 15.2271 10.2743C14.739 9.65712 14.5437 8.9371 14.5437 8.01139C14.5437 7.08567 14.9342 6.26281 15.6176 5.64567C16.301 5.02853 17.2773 4.82283 18.3512 4.82283C19.5227 4.82283 20.5966 5.02854 21.6705 5.54282L21.28 6.7771C20.3037 6.36568 19.3275 6.15996 18.3512 6.15996C17.5702 6.15996 17.082 6.36569 16.5939 6.67426C16.2034 6.98283 16.0081 7.49709 16.0081 8.11423C16.0081 8.52566 16.1058 8.93711 16.2034 9.14282C16.3987 9.45139 16.5939 9.6571 16.9844 9.86281C17.3749 10.0685 17.8631 10.3771 18.6441 10.6857C19.9132 11.2 20.7919 11.7142 21.28 12.2285C21.8658 12.8457 22.061 13.5657 22.061 14.3886ZM31.3356 14.3886C31.3356 15.52 30.9451 16.3428 30.1641 16.96C29.3831 17.5771 28.4068 17.8857 27.04 17.8857C25.5756 17.8857 24.5017 17.68 23.7207 17.2686V15.8285C24.2088 16.0342 24.7946 16.24 25.2827 16.3428C25.7709 16.4457 26.4542 16.5486 27.04 16.5486C28.0163 16.5486 28.6997 16.3429 29.0902 16.0343C29.5783 15.6229 29.7736 15.1085 29.7736 14.4914C29.7736 14.08 29.6759 13.6685 29.4807 13.4628C29.2854 13.1542 28.9925 12.9485 28.602 12.64C28.2115 12.4343 27.6258 12.1257 26.8448 11.8171C25.7709 11.4057 24.8922 10.8914 24.5017 10.2743C24.0136 9.65712 23.8183 8.9371 23.8183 8.01139C23.8183 7.08567 24.2088 6.26281 24.8922 5.64567C25.5756 5.02853 26.5519 4.82283 27.6258 4.82283C28.7973 4.82283 29.8712 5.02854 30.9451 5.54282L30.5546 6.7771C29.5783 6.36568 28.602 6.15996 27.6258 6.15996C26.8447 6.15996 26.3566 6.36569 25.8685 6.67426C25.478 6.98283 25.2827 7.49709 25.2827 8.11423C25.2827 8.52566 25.3803 8.93711 25.478 9.14282C25.6732 9.45139 25.8685 9.6571 26.259 9.86281C26.6495 10.0685 27.1376 10.3771 27.9187 10.6857C29.1878 11.2 30.0664 11.7142 30.5546 12.2285C31.0427 12.8457 31.3356 13.5657 31.3356 14.3886ZM43.539 11.2C43.539 13.2571 42.9532 14.9029 41.8793 16.0343C40.8054 17.1657 39.2434 17.7829 37.1932 17.7829H33.2881V5.13138H37.3885C39.341 5.13138 40.8054 5.64569 41.8793 6.67426C42.9532 7.70283 43.539 9.24571 43.539 11.2ZM40.2197 11.3028C40.2197 10.1714 40.0244 9.24566 39.5363 8.73138C39.1458 8.21709 38.4624 7.90854 37.5837 7.90854H36.6075V15.0057H37.2909C38.2671 15.0057 38.9505 14.6971 39.4386 14.08C40.0244 13.4628 40.2197 12.5371 40.2197 11.3028ZM49.9824 17.9886C48.4203 17.9886 47.2488 17.5771 46.3702 16.6514C45.4915 15.8286 45.101 14.5943 45.101 12.9486C45.101 11.3029 45.4915 10.0685 46.2726 9.14282C47.0536 8.21711 48.2251 7.80569 49.6895 7.80569C51.0563 7.80569 52.1302 8.21713 52.9112 8.93713C53.6922 9.65713 54.0827 10.7885 54.0827 12.2285V13.7714H48.3227C48.3227 14.2857 48.518 14.6971 48.9085 15.1085C49.299 15.4171 49.7871 15.6228 50.3729 15.6228C50.9587 15.6228 51.4468 15.52 51.9349 15.4171C52.4231 15.3143 52.9112 15.1086 53.497 14.8V17.2686C53.0088 17.5771 52.5207 17.68 51.9349 17.7829C51.3492 17.8857 50.7634 17.9886 49.9824 17.9886ZM49.7871 10.1714C49.3966 10.1714 49.1037 10.2743 48.8109 10.5829C48.518 10.7886 48.4203 11.1999 48.3227 11.7142H51.0563C51.0563 11.1999 50.9586 10.8914 50.6658 10.5829C50.5681 10.2743 50.2753 10.1714 49.7871 10.1714ZM63.0644 14.8C63.0644 15.8286 62.7715 16.6514 62.0881 17.1657C61.4048 17.68 60.4285 17.9886 59.1593 17.9886C58.4759 17.9886 57.8902 17.9886 57.402 17.8857C56.9139 17.7828 56.3281 17.68 55.84 17.4743V14.8C56.3281 15.0057 56.9139 15.2114 57.4997 15.4171C58.0854 15.52 58.5736 15.6228 59.0617 15.6228C59.7451 15.6228 60.1356 15.4171 60.1356 15.1085C60.1356 14.9028 60.038 14.8 59.8427 14.6971C59.6475 14.5942 59.0617 14.2857 58.1831 13.8743C57.3044 13.4628 56.7186 13.0514 56.4258 12.64C56.1329 12.1257 55.9376 11.6114 55.9376 10.8914C55.9376 9.96568 56.2305 9.24566 56.9139 8.73138C57.5973 8.21709 58.4759 8.01139 59.7451 8.01139C60.3309 8.01139 60.9166 8.11428 61.5024 8.21714C62.0881 8.32 62.5763 8.52571 63.162 8.83428L62.2834 10.9942C61.8929 10.7885 61.4048 10.5828 60.9166 10.48C60.4285 10.3771 60.038 10.2743 59.7451 10.2743C59.257 10.2743 58.9641 10.3771 58.9641 10.6857C58.9641 10.8914 59.0617 10.9942 59.257 11.0971C59.4522 11.1999 59.9403 11.4057 60.819 11.8171C61.5024 12.1257 61.9905 12.3314 62.2834 12.64C62.5763 12.9485 62.8691 13.2571 62.9668 13.5657C62.9668 13.7714 63.0644 14.2857 63.0644 14.8ZM64.8217 5.54282C64.8217 5.02854 64.9193 4.6171 65.2122 4.41139C65.5051 4.20567 65.8956 4 66.4814 4C67.0671 4 67.5553 4.10282 67.7505 4.41139C68.0434 4.6171 68.141 5.02854 68.141 5.54282C68.141 6.5714 67.5553 6.98286 66.3837 6.98286C65.3098 7.08572 64.8217 6.5714 64.8217 5.54282ZM68.0434 17.7829H64.8217V8.01139H68.0434V17.7829ZM79.0753 8.01139V9.65712L77.8061 10.1714C78.0014 10.48 78.099 10.8914 78.099 11.3028C78.099 12.3314 77.7085 13.1543 77.0251 13.7714C76.3417 14.3886 75.2678 14.5942 73.901 14.5942C73.5105 14.5942 73.3153 14.5943 73.12 14.4914C73.0224 14.5943 73.0224 14.8 73.0224 14.9028C73.0224 15.1086 73.12 15.2114 73.4129 15.3142C73.7058 15.4171 73.9986 15.4171 74.3892 15.4171H75.9512C78.0014 15.4171 79.0753 16.3428 79.0753 18.1942C79.0753 19.4285 78.5871 20.3543 77.6108 20.9714C76.6346 21.5886 75.2678 22 73.5105 22C72.2414 22 71.1675 21.7942 70.4841 21.28C69.8007 20.8685 69.4102 20.1485 69.4102 19.3257C69.4102 18.1943 70.0936 17.3714 71.4604 17.0628C71.1675 16.96 70.9722 16.7542 70.6793 16.4457C70.4841 16.1371 70.3864 15.9314 70.3864 15.6228C70.3864 15.3143 70.4841 15.0057 70.5817 14.8C70.777 14.5943 71.0698 14.2857 71.558 13.9771C71.0698 13.7714 70.6793 13.36 70.3864 12.9486C70.0936 12.4343 69.9959 11.92 69.9959 11.2C69.9959 10.1714 70.3865 9.34852 71.0698 8.73138C71.7532 8.11423 72.7295 7.80569 73.9986 7.80569C74.1939 7.80569 74.4868 7.80568 74.8773 7.90854C75.2678 7.90854 75.5607 8.01139 75.7559 8.01139H79.0753ZM72.0461 19.0171C72.0461 19.3257 72.1437 19.5314 72.4366 19.7371C72.7295 19.9428 73.12 19.9428 73.6081 19.9428C74.3892 19.9428 74.9749 19.84 75.4631 19.6343C75.9512 19.4286 76.1464 19.12 76.1464 18.8114C76.1464 18.5028 76.0488 18.3999 75.7559 18.2971C75.4631 18.1942 75.0725 18.0914 74.4868 18.0914H73.2176C72.8271 18.0914 72.6319 18.1942 72.339 18.2971C72.1437 18.5028 72.0461 18.7086 72.0461 19.0171ZM73.0224 11.2C73.0224 12.2286 73.3153 12.7428 73.9986 12.7428C74.2915 12.7428 74.5844 12.6399 74.682 12.3314C74.8773 12.1257 74.9749 11.7143 74.9749 11.2C74.9749 10.1714 74.682 9.65712 73.9986 9.65712C73.4129 9.65712 73.0224 10.1714 73.0224 11.2ZM86.2997 12.4343C86.2997 11.8171 86.202 11.3028 86.0068 10.9942C85.8115 10.6857 85.5187 10.48 85.1282 10.48C84.5424 10.48 84.1519 10.6857 83.9566 11.2C83.7614 11.6114 83.5661 12.4343 83.5661 13.5657V17.8857H80.3444V8.11423H82.7851L83.1756 9.34852H83.3709C83.6637 8.93709 84.0542 8.5257 84.5424 8.31999C85.0305 8.11427 85.6163 8.01139 86.202 8.01139C87.2759 8.01139 88.057 8.31998 88.6427 8.93713C89.2285 9.55427 89.5213 10.48 89.5213 11.6114V17.9886H86.2997V12.4343ZM99.7722 17.7829L98.3078 13.7714H93.5241L92.0597 17.7829H90.6929L95.4766 5.13138H96.6481L101.334 17.7829H99.7722ZM97.8197 12.4343L96.4529 8.52568C96.2576 8.01139 96.0624 7.39426 95.8671 6.67426C95.7695 7.18854 95.5743 7.80568 95.379 8.52568L94.0122 12.4343H97.8197ZM110.023 17.7829L108.363 12.2285C108.266 11.92 108.071 11.0971 107.778 9.96572H107.68C107.485 10.9943 107.289 11.7142 107.094 12.3314L105.435 17.8857H103.873L101.432 8.42283H102.896C103.482 10.7886 103.873 12.64 104.263 13.8743C104.556 15.1085 104.751 15.9314 104.751 16.3428H104.849C104.946 16.0343 105.044 15.6228 105.142 15.1085C105.239 14.5943 105.435 14.1828 105.532 13.8743L107.192 8.42283H108.656L110.218 13.8743C110.511 14.9028 110.706 15.7257 110.804 16.3428H110.902C110.902 16.1371 110.999 15.8286 111.097 15.4171C111.195 15.0057 111.78 12.64 112.757 8.42283H114.123L111.683 17.8857H110.023V17.7829ZM121.25 17.7829L120.957 16.4457H120.86C120.372 17.0628 119.981 17.4742 119.493 17.68C119.005 17.8857 118.517 17.9886 117.833 17.9886C116.955 17.9886 116.271 17.7828 115.783 17.2686C115.295 16.7543 115.002 16.1371 115.002 15.2114C115.002 13.2571 116.466 12.3314 119.395 12.2285L120.957 12.1257V11.5085C120.957 10.7885 120.762 10.1714 120.469 9.86281C120.176 9.55424 119.688 9.34852 119.005 9.34852C118.224 9.34852 117.443 9.55428 116.466 10.0686L116.076 8.93713C116.564 8.73141 116.955 8.5257 117.54 8.31999C118.028 8.21713 118.614 8.11423 119.102 8.11423C120.176 8.11423 120.957 8.32 121.445 8.83428C121.934 9.34857 122.226 10.1714 122.226 11.2V17.68H121.25V17.7829ZM118.126 16.7543C119.005 16.7543 119.591 16.5486 120.079 16.0343C120.567 15.52 120.762 14.9028 120.762 13.9771V13.1543L119.395 13.2571C118.321 13.2571 117.54 13.4628 117.052 13.7714C116.564 14.08 116.369 14.5942 116.369 15.2114C116.369 15.7257 116.564 16.1371 116.857 16.3428C117.247 16.6514 117.638 16.7543 118.126 16.7543ZM129.158 8.11423C129.548 8.11423 129.939 8.11428 130.232 8.21714L130.037 9.55427C129.646 9.45141 129.353 9.45142 129.06 9.45142C128.377 9.45142 127.694 9.75996 127.205 10.3771C126.717 10.9942 126.424 11.8171 126.424 12.7428V17.7829H125.058V8.31999H126.132L126.327 10.0686H126.424C126.717 9.45142 127.205 8.9371 127.596 8.62853C128.084 8.31996 128.572 8.11423 129.158 8.11423ZM138.042 16.5486C137.359 17.4743 136.382 17.9886 135.113 17.9886C133.942 17.9886 133.063 17.5771 132.38 16.7543C131.696 15.9314 131.403 14.6971 131.403 13.1543C131.403 11.6114 131.696 10.3771 132.38 9.55427C133.063 8.73141 133.942 8.21714 135.113 8.21714C136.285 8.21714 137.261 8.7314 137.944 9.65712H138.042L137.944 8.93713V4.30854H139.311V17.7829H138.237L138.042 16.5486ZM135.308 16.7543C136.285 16.7543 136.871 16.4457 137.359 15.9314C137.749 15.4171 137.944 14.4914 137.944 13.36V13.0514C137.944 11.7143 137.749 10.7886 137.261 10.1714C136.871 9.55427 136.187 9.34852 135.211 9.34852C134.43 9.34852 133.844 9.6571 133.356 10.3771C132.965 10.9942 132.673 11.92 132.673 13.1543C132.673 14.3886 132.868 15.3143 133.258 15.9314C133.844 16.4457 134.43 16.7543 135.308 16.7543Z" fill="#535353"/>
</g>
<defs>
<filter id="filter0_f_1_4471" x="0" y="0" width="152" height="26" filterUnits="userSpaceOnUse" color-interpolation-filters="sRGB">
<feFlood flood-opacity="0" result="BackgroundImageFix"/>
<feBlend mode="normal" in="SourceGraphic" in2="BackgroundImageFix" result="shape"/>
<feGaussianBlur stdDeviation="2" result="effect1_foregroundBlur_1_4471"/>
</filter>
</defs>
</svg>
