<svg width="67" height="26" viewBox="0 0 67 26" fill="none" xmlns="http://www.w3.org/2000/svg">
<g filter="url(#filter0_f_1_4464)">
<path d="M45.6788 14.0054H52.9862V16.439H45.6788V14.0054Z" fill="#535353"/>
<path fill-rule="evenodd" clip-rule="evenodd" d="M58.1282 8.86724H59.0758C61.2408 8.86724 63 10.6249 63 12.7885C63 14.9517 61.2408 16.7094 59.0758 16.7094H58.1282V17.6557C58.1282 19.8193 56.3695 21.577 54.204 21.577H44.4609C43.6743 21.5797 42.9051 21.3458 42.2534 20.9056C41.6017 20.4655 41.0977 19.8395 40.807 19.1092L40.6719 19.4134C40.3462 20.0664 39.8439 20.6152 39.2221 20.9975C38.6003 21.3799 37.8837 21.5807 37.1535 21.577C36.4234 21.5806 35.7069 21.3798 35.0851 20.9974C34.4634 20.615 33.9612 20.0663 33.6356 19.4134L32.2822 16.6756L30.9288 19.4134C30.6031 20.0664 30.1008 20.6152 29.479 20.9975C28.8572 21.3799 28.1406 21.5807 27.4104 21.577C26.6802 21.5807 25.9636 21.3799 25.3418 20.9975C24.7199 20.6152 24.2177 20.0664 23.892 19.4134L22.2346 16.0672C21.6257 16.4727 20.8812 16.7094 20.1034 16.7094H16.7201V17.6557C16.7201 19.8193 14.9609 21.577 12.796 21.577C10.6305 21.577 8.87178 19.8193 8.87178 17.6557V16.7094H7.92418C5.75919 16.7094 4 14.9517 4 12.7885C4 10.6245 5.75919 8.86724 7.92418 8.86769H8.87133V7.92089C8.87133 5.75774 10.6305 4.00004 12.796 4.00004H22.5391C23.2649 3.9968 23.9775 4.19393 24.5984 4.56967C25.2192 4.94542 25.7241 5.48518 26.0574 6.12944L27.4104 8.86769L28.7638 6.16319C29.4065 4.91264 30.7261 4.00004 32.2822 4.00004C33.008 3.9968 33.7207 4.19393 34.3415 4.56967C34.9623 4.94542 35.4672 5.48518 35.8005 6.12944L37.1535 8.86769L38.5069 6.16319C39.1496 4.91264 40.4692 4.00004 42.0253 4.00004H54.204C56.3695 4.00004 58.1282 5.75774 58.1282 7.92089V8.86724ZM55.4219 14.0053H59.0758C59.2359 14.006 59.395 13.9754 59.5431 13.9145C59.6911 13.8536 59.8257 13.764 59.9389 13.6509C60.0521 13.5377 60.1418 13.4033 60.2027 13.2554C60.2637 13.1075 60.2948 12.949 60.2941 12.789C60.2948 12.629 60.2637 12.4705 60.2027 12.3226C60.1418 12.1746 60.0521 12.0402 59.9389 11.9271C59.8257 11.814 59.6911 11.7244 59.5431 11.6635C59.395 11.6026 59.2364 11.5715 59.0763 11.5722H55.4223V7.92134C55.423 7.76136 55.3919 7.60284 55.331 7.45492C55.27 7.30699 55.1803 7.17259 55.0671 7.05947C54.9539 6.94635 54.8194 6.85675 54.6713 6.79583C54.5233 6.73491 54.3646 6.70388 54.2045 6.70454H42.0257C41.7999 6.70452 41.5787 6.76786 41.3872 6.88736C41.1957 7.00687 41.0416 7.17771 40.9426 7.38044L37.1535 14.9521L33.3649 7.38044C33.1618 6.97499 32.7555 6.70454 32.2822 6.70454C32.0565 6.7046 31.8353 6.76799 31.6439 6.88748C31.4525 7.00698 31.2985 7.17778 31.1994 7.38044L27.4104 14.9521L23.6218 7.38044C23.4187 6.97499 23.0129 6.70454 22.5391 6.70454H12.796C12.6359 6.70394 12.4773 6.735 12.3294 6.79592C12.1814 6.85683 12.047 6.94641 11.9338 7.05947C11.8206 7.17254 11.731 7.30687 11.67 7.45471C11.6091 7.60255 11.578 7.76099 11.5786 7.92089V11.5717H7.92463C7.76451 11.5711 7.60586 11.6021 7.45781 11.663C7.30976 11.7239 7.17524 11.8136 7.06203 11.9267C6.94881 12.0398 6.85913 12.1742 6.79816 12.3221C6.73719 12.47 6.70614 12.6286 6.70679 12.7885C6.70614 12.9485 6.73718 13.107 6.79812 13.2549C6.85906 13.4028 6.9487 13.5371 7.06187 13.6502C7.17504 13.7634 7.3095 13.853 7.4575 13.9139C7.60549 13.9749 7.7641 14.0059 7.92418 14.0053H11.5781V17.6557C11.5775 17.8157 11.6085 17.9742 11.6695 18.1222C11.7305 18.2701 11.8201 18.4045 11.9334 18.5176C12.0466 18.6307 12.1811 18.7203 12.3291 18.7812C12.4772 18.8422 12.6358 18.8732 12.796 18.8725C12.9561 18.8732 13.1147 18.8422 13.2628 18.7812C13.4108 18.7203 13.5453 18.6307 13.6586 18.5176C13.7718 18.4045 13.8614 18.2701 13.9224 18.1222C13.9834 17.9742 14.0144 17.8157 14.0138 17.6557V14.0053H20.1034C20.2635 14.006 20.4222 13.975 20.5702 13.914C20.7183 13.8531 20.8528 13.7635 20.966 13.6504C21.0792 13.5373 21.1689 13.4029 21.2299 13.255C21.2908 13.107 21.3219 12.9485 21.3212 12.7885C21.3219 12.6285 21.2908 12.47 21.2298 12.322C21.1688 12.1741 21.0791 12.0396 20.9658 11.9265C20.8526 11.8134 20.718 11.7238 20.5699 11.6629C20.4218 11.602 20.2631 11.571 20.1029 11.5717H14.0138V9.13814H21.7946L26.3281 18.1966C26.427 18.3993 26.5809 18.5702 26.7723 18.6897C26.9636 18.8093 27.1847 18.8728 27.4104 18.873C27.6361 18.8729 27.8573 18.8094 28.0488 18.6899C28.2402 18.5703 28.3941 18.3994 28.4931 18.1966L32.2822 10.6591L36.0712 18.1966C36.1702 18.3993 36.324 18.5702 36.5154 18.6897C36.7067 18.8093 36.9278 18.8728 37.1535 18.873C37.3793 18.8729 37.6004 18.8094 37.7919 18.6899C37.9833 18.5703 38.1373 18.3994 38.2362 18.1966L42.7693 9.13769H52.9862V11.5717H44.4609C44.3008 11.5711 44.1422 11.6021 43.9941 11.663C43.8461 11.7239 43.7116 11.8136 43.5983 11.9267C43.4851 12.0398 43.3954 12.1742 43.3345 12.3221C43.2735 12.47 43.2425 12.6286 43.2431 12.7885V17.6557C43.2425 17.8157 43.2735 17.9742 43.3345 18.1222C43.3954 18.2701 43.4851 18.4045 43.5983 18.5176C43.7116 18.6307 43.8461 18.7203 43.9941 18.7812C44.1422 18.8422 44.3008 18.8732 44.4609 18.8725H54.204C54.3642 18.8732 54.5228 18.8422 54.6709 18.7812C54.8189 18.7203 54.9534 18.6307 55.0666 18.5176C55.1799 18.4045 55.2695 18.2701 55.3305 18.1222C55.3915 17.9742 55.4225 17.8157 55.4219 17.6557V14.0053Z" fill="#535353"/>
</g>
<defs>
<filter id="filter0_f_1_4464" x="0" y="0" width="67" height="25.5771" filterUnits="userSpaceOnUse" color-interpolation-filters="sRGB">
<feFlood flood-opacity="0" result="BackgroundImageFix"/>
<feBlend mode="normal" in="SourceGraphic" in2="BackgroundImageFix" result="shape"/>
<feGaussianBlur stdDeviation="2" result="effect1_foregroundBlur_1_4464"/>
</filter>
</defs>
</svg>
