<svg width="67" height="26" viewBox="0 0 67 26" fill="none" xmlns="http://www.w3.org/2000/svg">
<g filter="url(#filter0_f_1_4478)">
<path d="M52.9862 14.0054H45.6788V16.439H52.9862V14.0054Z" fill="#535353"/>
<path d="M59.0758 8.86724H58.1282V7.92089C58.1282 5.75774 56.3695 4.00004 54.204 4.00004H42.0253C40.4692 4.00004 39.1496 4.91264 38.5069 6.16319L37.1535 8.86769L35.8005 6.12944C35.4672 5.48518 34.9623 4.94542 34.3415 4.56967C33.7207 4.19393 33.008 3.9968 32.2822 4.00004C30.7261 4.00004 29.4065 4.91264 28.7638 6.16319L27.4104 8.86769L26.0574 6.12944C25.7241 5.48518 25.2192 4.94542 24.5984 4.56967C23.9775 4.19393 23.2649 3.9968 22.5391 4.00004H12.796C10.6305 4.00004 8.87133 5.75774 8.87133 7.92089V8.86769H7.92418C5.75919 8.86724 4 10.6245 4 12.7885C4 14.9517 5.75919 16.7094 7.92418 16.7094H8.87178V17.6557C8.87178 19.8193 10.6305 21.577 12.796 21.577C14.9609 21.577 16.7201 19.8193 16.7201 17.6557V16.7094H20.1034C20.8812 16.7094 21.6257 16.4727 22.2346 16.0672L23.892 19.4134C24.2177 20.0664 24.7199 20.6152 25.3418 20.9975C25.9636 21.3799 26.6802 21.5807 27.4104 21.577C28.1406 21.5807 28.8572 21.3799 29.479 20.9975C30.1008 20.6152 30.6031 20.0664 30.9288 19.4134L32.2822 16.6756L33.6356 19.4134C33.9612 20.0663 34.4634 20.615 35.0851 20.9974C35.7069 21.3798 36.4234 21.5806 37.1535 21.577C37.8837 21.5807 38.6003 21.3799 39.2221 20.9975C39.8439 20.6152 40.3462 20.0664 40.6719 19.4134L40.807 19.1092C41.0977 19.8395 41.6017 20.4655 42.2534 20.9056C42.9051 21.3458 43.6743 21.5797 44.4609 21.577H54.204C56.3695 21.577 58.1282 19.8193 58.1282 17.6557V16.7094H59.0758C61.2408 16.7094 63 14.9517 63 12.7885C63 10.6249 61.2408 8.86724 59.0758 8.86724ZM59.0758 14.0053H55.4219V17.6557C55.4225 17.8157 55.3915 17.9742 55.3305 18.1222C55.2695 18.2701 55.1799 18.4045 55.0666 18.5176C54.9534 18.6307 54.8189 18.7203 54.6709 18.7812C54.5228 18.8422 54.3642 18.8732 54.204 18.8725H44.4609C44.3008 18.8732 44.1422 18.8422 43.9941 18.7812C43.8461 18.7203 43.7116 18.6307 43.5983 18.5176C43.4851 18.4045 43.3954 18.2701 43.3345 18.1222C43.2735 17.9742 43.2425 17.8157 43.2431 17.6557V12.7885C43.2425 12.6286 43.2735 12.47 43.3345 12.3221C43.3954 12.1742 43.4851 12.0398 43.5983 11.9267C43.7116 11.8136 43.8461 11.7239 43.9941 11.663C44.1422 11.6021 44.3008 11.5711 44.4609 11.5717H52.9862V9.13769H42.7693L38.2362 18.1966C38.1373 18.3994 37.9833 18.5703 37.7919 18.6899C37.6004 18.8094 37.3793 18.8729 37.1535 18.873C36.9278 18.8728 36.7067 18.8093 36.5154 18.6897C36.324 18.5702 36.1702 18.3993 36.0712 18.1966L32.2822 10.6591L28.4931 18.1966C28.3941 18.3994 28.2402 18.5703 28.0488 18.6899C27.8573 18.8094 27.6361 18.8729 27.4104 18.873C27.1847 18.8728 26.9636 18.8093 26.7723 18.6897C26.5809 18.5702 26.427 18.3993 26.3281 18.1966L21.7946 9.13814H14.0138V11.5717H20.1029C20.2631 11.571 20.4218 11.602 20.5699 11.6629C20.718 11.7238 20.8526 11.8134 20.9658 11.9265C21.0791 12.0396 21.1688 12.1741 21.2298 12.322C21.2908 12.47 21.3219 12.6285 21.3212 12.7885C21.3219 12.9485 21.2908 13.107 21.2299 13.255C21.1689 13.4029 21.0792 13.5373 20.966 13.6504C20.8528 13.7635 20.7183 13.8531 20.5702 13.914C20.4222 13.975 20.2635 14.006 20.1034 14.0053H14.0138V17.6557C14.0144 17.8157 13.9834 17.9742 13.9224 18.1222C13.8614 18.2701 13.7718 18.4045 13.6586 18.5176C13.5453 18.6307 13.4108 18.7203 13.2628 18.7812C13.1147 18.8422 12.9561 18.8732 12.796 18.8725C12.6358 18.8732 12.4772 18.8422 12.3291 18.7812C12.1811 18.7203 12.0466 18.6307 11.9334 18.5176C11.8201 18.4045 11.7305 18.2701 11.6695 18.1222C11.6085 17.9742 11.5775 17.8157 11.5781 17.6557V14.0053H7.92418C7.7641 14.0059 7.60549 13.9749 7.4575 13.9139C7.3095 13.853 7.17504 13.7634 7.06187 13.6502C6.9487 13.5371 6.85906 13.4028 6.79812 13.2549C6.73718 13.107 6.70614 12.9485 6.70679 12.7885C6.70614 12.6286 6.73719 12.47 6.79816 12.3221C6.85913 12.1742 6.94881 12.0398 7.06203 11.9267C7.17524 11.8136 7.30976 11.7239 7.45781 11.663C7.60586 11.6021 7.76451 11.5711 7.92463 11.5717H11.5786V7.92089C11.578 7.76099 11.6091 7.60255 11.67 7.45471C11.731 7.30687 11.8206 7.17254 11.9338 7.05947C12.047 6.94641 12.1814 6.85683 12.3294 6.79592C12.4773 6.735 12.6359 6.70394 12.796 6.70454H22.5391C23.0129 6.70454 23.4187 6.97499 23.6218 7.38044L27.4104 14.9521L31.1994 7.38044C31.2985 7.17778 31.4525 7.00698 31.6439 6.88748C31.8353 6.76799 32.0565 6.7046 32.2822 6.70454C32.7555 6.70454 33.1618 6.97499 33.3649 7.38044L37.1535 14.9521L40.9426 7.38044C41.0416 7.17771 41.1957 7.00687 41.3872 6.88736C41.5787 6.76786 41.7999 6.70452 42.0257 6.70454H54.2045C54.3646 6.70388 54.5233 6.73491 54.6713 6.79583C54.8194 6.85675 54.9539 6.94635 55.0671 7.05947C55.1803 7.17259 55.27 7.30699 55.331 7.45492C55.3919 7.60284 55.423 7.76136 55.4223 7.92134V11.5722H59.0763C59.2364 11.5715 59.395 11.6026 59.5431 11.6635C59.6911 11.7244 59.8257 11.814 59.9389 11.9271C60.0521 12.0402 60.1418 12.1746 60.2027 12.3226C60.2637 12.4705 60.2948 12.629 60.2941 12.789C60.2948 12.949 60.2637 13.1075 60.2027 13.2554C60.1418 13.4033 60.0521 13.5377 59.9389 13.6509C59.8257 13.764 59.6911 13.8536 59.5431 13.9145C59.395 13.9754 59.2359 14.006 59.0758 14.0053Z" fill="#535353"/>
</g>
<defs>
<filter id="filter0_f_1_4478" x="0" y="0" width="67" height="25.5771" filterUnits="userSpaceOnUse" color-interpolation-filters="sRGB">
<feFlood flood-opacity="0" result="BackgroundImageFix"/>
<feBlend mode="normal" in="SourceGraphic" in2="BackgroundImageFix" result="shape"/>
<feGaussianBlur stdDeviation="2" result="effect1_foregroundBlur_1_4478"/>
</filter>
</defs>
</svg>
