<svg width="121" height="26" viewBox="0 0 121 26" fill="none" xmlns="http://www.w3.org/2000/svg">
<g filter="url(#filter0_f_1_4499)">
<path d="M4.48085 12.4375C4.88156 10.3482 6.72482 8.90179 9.28936 8.90179C12.2546 8.90179 14.5787 10.1875 14.5787 14.2054V21.6786H12.0142L11.6936 20.0714C10.8121 21.1964 9.60993 21.9196 7.84681 21.9196C5.68298 21.9196 4 20.5536 4 18.0625C4 15.5714 6.24397 13.9643 9.3695 13.9643H11.4532V13.4018C11.4532 11.9554 10.4113 11.5536 9.20922 11.5536C8.32766 11.5536 7.4461 11.875 7.04539 13L4.48085 12.4375ZM8.56808 19.2679C10.0106 19.2679 11.4532 18.3036 11.4532 16.6964V16.4554H9.44965C8.08723 16.375 7.28582 16.9375 7.28582 18.0625C7.28582 18.625 7.76667 19.2679 8.56808 19.2679Z" fill="#535353"/>
<path d="M64.9078 12.4375C65.3085 10.3482 67.1518 8.90179 69.7163 8.90179C72.6816 8.90179 75.0057 10.1875 75.0057 14.2054V21.6786H72.4411L72.1206 20.0714C71.239 21.1964 70.0369 21.9196 68.2738 21.9196C66.1099 21.9196 64.4269 20.5536 64.4269 18.0625C64.4269 15.5714 66.6709 13.9643 69.7964 13.9643H71.8801V13.4018C71.8801 11.9554 70.8383 11.5536 69.6362 11.5536C68.7546 11.5536 67.873 11.875 67.4723 13L64.9078 12.4375ZM68.995 19.2679C70.4376 19.2679 71.8801 18.3036 71.8801 16.6964V16.4554H69.7964C68.434 16.4554 67.6326 16.9375 67.6326 18.0625C67.7128 18.625 68.1936 19.2679 68.995 19.2679Z" fill="#535353"/>
<path d="M77.8106 21.7589V9.0625H80.9362V11.1518C81.8177 9.625 83.2603 8.90179 84.6227 8.90179C85.1837 8.90179 85.6645 8.98214 86.1454 9.14286L85.5844 12.0357C85.1837 11.7946 84.783 11.6339 84.3021 11.6339C82.4589 11.6339 80.9362 13.1607 80.9362 17.1786V21.6786L77.8106 21.7589Z" fill="#535353"/>
<path d="M92.7972 8.90179C94.0794 8.90179 95.2816 9.54464 95.8426 10.2679V4H98.9681V21.7589H95.8426V20.4732C95.4418 21.1161 94.3199 22 92.7972 22C89.0305 22 87.1071 19.3482 87.1071 15.4911C87.1071 11.6339 89.0305 8.90179 92.7972 8.90179ZM93.278 19.2679C94.8809 19.2679 96.1631 17.9018 96.1631 15.4107C96.1631 12.9196 94.8809 11.5536 93.278 11.5536C91.6752 11.5536 90.3929 12.9196 90.3929 15.4107C90.3929 17.9018 91.6752 19.2679 93.278 19.2679Z" fill="#535353"/>
<path d="M110.188 10.9107L108.345 12.5982C107.784 11.7946 106.902 11.4732 106.261 11.4732C105.62 11.4732 105.059 11.875 105.059 12.5179C105.059 13.0804 105.54 13.4821 106.261 13.7232C108.024 14.3661 110.829 14.9286 110.829 17.5804C110.829 19.9107 109.066 21.7589 106.341 21.7589C103.696 21.7589 101.933 19.9107 101.372 18.3839L103.857 17.0179C104.338 18.2232 105.139 19.1071 106.421 19.1071C107.383 19.1071 108.024 18.625 108.024 17.7411C108.024 16.6964 106.421 16.4554 104.899 15.8125C103.536 15.25 102.334 14.3661 102.334 12.4375C102.334 10.5089 103.937 8.74107 106.341 8.74107C107.944 8.82143 109.467 9.70536 110.188 10.9107Z" fill="#535353"/>
<path d="M45.5936 9.0625L43.3496 17.8214L41.1858 9.0625H38.3007L36.217 17.8214L34.4539 12.7589L34.2135 13.3214L33.2518 16.6161L34.8546 21.7589H37.5794L39.7433 13.5625L41.9071 21.7589H44.7121L48.7191 9.0625H45.5936Z" fill="#535353"/>
<path d="M60.5801 9.0625L58.3362 17.8214L56.1723 9.0625H53.2872L51.2035 17.8214L49.4404 12.7589L49.2 13.3214L48.1582 16.6161L49.8411 21.7589H52.566L54.7298 13.5625L56.8936 21.7589H59.6184L63.7057 9.0625H60.5801Z" fill="#535353"/>
<path d="M33.7326 9.0625L29.7255 21.6786H27.0007L24.8369 13.5625L22.673 21.7589H19.9482L15.9411 9.14286H19.0667L21.3106 17.8214L23.4745 9.14286H26.3596L28.5234 17.8214L30.7674 9.14286L33.7326 9.0625Z" fill="#535353"/>
<path d="M114.916 17.6607C116.118 17.6607 117 18.5446 117 19.75C117 20.9554 116.118 21.8393 114.916 21.8393C113.714 21.8393 112.833 20.9554 112.833 19.75C112.833 18.5446 113.714 17.6607 114.916 17.6607Z" fill="#535353"/>
</g>
<defs>
<filter id="filter0_f_1_4499" x="0" y="0" width="121" height="26" filterUnits="userSpaceOnUse" color-interpolation-filters="sRGB">
<feFlood flood-opacity="0" result="BackgroundImageFix"/>
<feBlend mode="normal" in="SourceGraphic" in2="BackgroundImageFix" result="shape"/>
<feGaussianBlur stdDeviation="2" result="effect1_foregroundBlur_1_4499"/>
</filter>
</defs>
</svg>
