<svg width="106" height="54" viewBox="0 0 106 54" fill="none" xmlns="http://www.w3.org/2000/svg">
<g filter="url(#filter0_f_1_4443)">
<path d="M18.2375 19.1832C17.9805 19.1427 17.7778 18.9529 17.2848 19.3552C17.7036 19.286 17.91 19.4383 18.2375 19.1832ZM18.3414 18.5892C17.9732 18.5457 17.5507 18.6524 17.05 18.7928C16.7768 18.9005 16.5079 18.9707 16.2095 18.9668C15.949 18.9618 15.7173 19.034 15.4725 19.2158C16.4088 19.1931 17.3553 19.0587 18.5072 18.778C18.4409 18.7029 18.4069 18.6653 18.3414 18.5892ZM15.9038 18.7019C15.6767 18.7355 15.4438 18.8066 15.2077 18.9134C15.4227 18.9915 15.6886 18.9579 15.9038 18.7019ZM15.5023 17.9517C15.2748 17.9843 15.0806 18.0564 15.055 18.2798C15.1675 18.2808 15.2373 18.3194 15.2786 18.2828C15.9038 18.0317 16.4179 17.7797 17.001 17.5652C17.2661 17.5316 17.4894 17.5355 17.7498 17.5395C17.7541 17.5029 17.8372 17.4278 17.8414 17.3912C17.5388 17.4238 17.2661 17.5316 17.001 17.5652C16.5007 17.7065 16.0038 17.8093 15.5023 17.9517ZM10.9902 18.9233C10.5316 19.028 10.4024 19.1753 10.1623 19.6557C10.3485 19.6577 10.5634 19.7358 10.7875 19.7397C11.0066 19.7802 11.0308 19.8929 11.0844 20.0787C10.7334 20.222 10.3979 20.2171 10.0585 20.5848C10.5136 20.5166 10.8564 20.4474 11.2414 20.3417C11.523 19.8247 11.7635 19.3443 12.0535 18.7533C11.6318 18.859 11.367 18.8926 10.9902 18.9233ZM13.4123 34.9198C13.3878 34.8081 13.2177 34.6559 13.1564 34.5442C13.2472 34.396 13.3675 34.3238 13.4173 34.2131C13.4916 33.878 13.4962 33.5064 13.5713 33.1733C13.5874 33.025 13.6 32.9133 13.6173 32.7651C13.8575 32.2857 13.944 31.8409 13.8874 31.3556C13.8954 31.2815 14.0275 31.0976 14.044 30.9484C14.0896 30.8752 14.1774 30.7655 14.1486 30.6894C14.0528 30.5401 14.1482 30.3553 14.3635 30.0983C14.4965 29.9135 14.5171 29.7296 14.6121 29.5438C14.9281 28.7313 15.1312 27.9159 15.4426 27.14C15.2656 25.7226 18.8658 20.9031 16.1379 21.6058C15.9758 21.7155 15.7445 21.7857 15.5541 21.8213C12.6925 23.042 12.9365 22.8601 11.8999 25.4488C11.8214 25.8185 11.7096 26.1526 11.5935 26.5222C11.5387 26.6705 11.5597 26.8188 11.4644 27.0026C10.8802 28.2223 10.6676 29.447 9.78119 30.6983C9.70264 30.7329 9.69842 30.7714 9.65282 30.8456C8.84563 31.7243 8.96135 31.6897 8.03432 31.6383C7.88565 31.6363 7.74472 31.5592 7.62439 31.6323C7.20653 31.7005 7.00804 31.4742 7 31.2133C7.00422 30.8416 7.046 30.471 7.16593 30.0627C7.69334 28.3597 8.37716 26.5835 9.09472 24.8459C9.95692 23.1497 8.1925 24.239 8.23967 22.8255C8.22662 22.6012 8.1822 22.3412 8.28105 22.1198C8.44306 21.675 8.48866 21.2668 8.64645 20.8596C8.75452 20.5631 8.77943 20.3416 8.68019 20.228C8.99969 19.712 9.27703 19.2336 9.59996 18.6801C10.0972 18.9104 10.6844 18.6594 11.441 18.5595C11.9387 18.4548 12.4976 17.7945 12.6224 17.3477C13.2441 15.7959 13.8245 14.9498 14.7075 13.4C15.2668 12.4047 16.0165 11.3737 16.6922 10.3438C16.8704 10.0858 17.0653 10.0147 17.3212 10.0562C17.615 10.0977 17.8342 10.1372 18.1284 10.1797C18.4881 10.2964 18.5 10.5188 18.3509 10.8519C18.0613 11.4419 17.7042 11.9579 17.4974 12.4758C17.2074 13.0659 16.9259 13.5838 16.6401 14.1364C14.0873 17.5939 16.4221 17.4061 19.332 16.4097C19.4274 16.2259 19.548 16.1517 19.6016 16.0055C20.0579 14.932 20.426 14.3054 20.9983 13.1994C21.1064 12.9018 21.3715 12.5342 21.4052 12.2386C21.4592 11.7543 21.8395 11.351 22.1134 10.9092C22.2958 10.6146 22.441 10.3191 22.5203 9.94843C22.5491 9.68848 22.777 9.31982 22.9225 9.02527C23.3696 8.36204 23.8541 7.6998 24.3054 7C24.8272 7.00791 25.349 7.01483 25.8327 7.02273C26.6154 7.03459 27.3026 7.23127 27.8612 7.57524C28.3859 7.87967 28.6342 8.33039 28.4062 9.03316C28.1699 9.47696 28.0826 9.92175 27.7394 10.326C26.8357 11.7256 26.1511 13.1667 25.5087 14.5703C24.7295 16.1942 26.692 15.6664 27.6849 15.4589C27.8757 15.4233 28.1036 15.3907 28.1534 15.6141C27.4329 15.7149 26.6295 15.8888 25.9798 16.0282C25.5987 16.0964 25.3255 16.2031 25.0103 16.3484C24.5759 16.5639 24.348 16.9326 24.1859 17.3764C24.3725 17.3794 24.6663 17.4209 24.89 17.4248C25.0019 17.4268 25.1923 17.3912 25.3118 17.3191C25.7638 17.2894 26.2232 17.1837 26.6617 17.2657C26.8437 17.3052 27.2578 17.2746 27.5268 17.2044C27.8294 17.1718 28.0899 17.1758 28.4254 17.1807C28.3339 16.9939 28.2388 16.8436 28.1849 16.6568C28.1688 16.47 28.3063 16.2496 28.4136 15.9521C28.4875 15.9541 28.5997 15.956 28.6741 15.956C28.7162 15.9214 28.7162 15.9214 28.7572 15.8849C28.6618 15.7337 28.4924 15.5824 28.4343 15.4332C28.9349 15.6259 29.3073 15.9669 29.3973 16.4878L29.4057 16.4147C29.3234 16.4878 29.2444 16.5234 29.0958 16.5214C28.7687 17.1125 29.2153 17.1184 29.6995 17.1273C29.1322 17.5276 28.8265 17.2627 28.4128 17.2924C28.6564 17.4446 28.7932 17.5583 28.9992 17.7105C28.7307 17.7807 28.4369 17.7392 28.242 18.1454C28.4239 18.1849 28.6476 18.1889 28.9411 18.2294C28.6729 18.3006 28.4741 18.4103 28.3208 18.4439C28.1672 18.4795 27.9768 18.5131 27.8033 18.7345C27.952 18.7365 28.0925 18.8126 28.2745 18.8541C27.3513 19.0992 26.4281 19.3463 25.4929 19.7031C24.8751 19.8791 24.1844 20.055 23.5263 20.2685C22.9873 20.4099 22.6525 20.739 22.4536 21.1818C22.0809 21.846 21.894 22.5132 21.7071 23.1794C21.5415 23.6608 21.4132 24.1411 21.1723 24.6225C20.8198 25.435 20.6908 26.2514 20.3805 27.0273C20.1476 27.7676 19.9147 28.5089 19.6078 29.2483C19.5998 29.3234 19.4802 29.3956 19.3929 29.5053C19.384 29.5784 19.2975 29.6901 19.3305 29.7277C19.4959 30.2505 19.1646 30.8782 18.9527 31.4327C18.9397 31.5454 18.8907 31.6551 18.8818 31.7302C18.9355 32.2521 18.5834 32.7295 18.3429 33.2099C18.2804 33.4323 17.9204 33.6487 17.6675 33.9057C17.4813 33.9027 17.291 33.9383 17.1753 33.9729C17.0634 33.9709 16.952 33.969 16.8726 34.0055C16.339 34.4424 15.7923 34.3238 15.2587 34.7627C15.0596 34.8704 15.1675 34.5739 15.0063 34.6836C14.8822 34.7943 14.7945 34.904 14.7577 34.903C14.6083 34.9001 14.5428 34.8249 14.3976 34.7854C14.3148 34.8595 14.149 35.0058 14.0662 35.079C13.5568 35.2944 13.5238 35.2569 13.4123 34.9198Z" fill="#202020"/>
<path d="M33.6552 16.1445C33.5686 16.2542 33.4858 16.3273 33.4318 16.4756C33.4273 16.5132 33.4192 16.5863 33.3365 16.6605C33.2119 16.7702 33.084 16.9174 32.9139 17.0993C32.8266 17.211 32.5124 17.3543 32.3217 17.3889C32.2515 17.3504 32.1313 17.4235 32.0482 17.4967C31.8084 17.641 31.6631 17.6014 31.523 17.5253C31.4195 17.4492 31.3448 17.4482 31.2334 17.4462C31.084 17.4443 30.9718 17.4423 30.8273 17.4037C30.8691 17.3672 30.9143 17.293 30.9556 17.2565C30.9682 17.1448 31.0552 17.0341 31.1093 16.8878C31.2047 16.702 31.2912 16.5922 31.4238 16.4074C31.4326 16.3333 31.5524 16.2611 31.557 16.2245C31.5819 16.0012 31.7889 15.8193 31.9256 15.5969C32.0126 15.4862 32.0998 15.3755 32.1864 15.2668C32.2688 15.1936 32.3524 15.1205 32.4266 15.1215C32.5055 15.0849 32.5799 15.0869 32.6128 15.1235C32.6044 15.1986 32.6795 15.2005 32.758 15.163C32.8365 15.1274 32.8787 15.0908 32.9112 15.1274C33.0515 15.2045 33.2338 15.245 33.3786 15.2856C33.6272 15.4002 33.7923 15.588 33.9126 15.8499C33.7885 15.9596 33.7382 16.0713 33.6552 16.1445ZM29.7739 20.1407C29.7739 20.1407 29.7739 20.1407 29.8156 20.1041C29.9443 19.9558 30.0225 19.9212 30.1424 19.8471C30.5603 19.7799 31.567 19.1256 31.9149 19.3549C32.0098 19.5041 32.3619 19.6959 32.4937 19.8471C32.6217 20.0349 32.6297 20.2949 32.4768 20.6655C32.1991 21.1439 31.8876 21.5867 31.5234 22.1748C31.4238 22.3972 31.3283 22.5821 31.2747 22.7293C31.0882 23.0624 30.889 23.5052 30.6649 23.8364C30.4664 24.2802 31.2954 22.8796 31.1798 23.2492C31.1667 23.359 31.0793 23.4706 31.0341 23.5448C30.653 24.2831 30.6695 24.1349 30.5564 24.8011C30.5151 25.1727 30.1539 27.0655 30.1539 27.4006C30.1615 27.6606 30.294 27.8108 30.3891 27.961C30.5301 28.0391 30.6993 28.1894 30.9143 28.2665C31.0844 28.4187 31.2785 28.3465 31.5061 28.3129C34.7231 27.2464 33.6514 26.8194 35.6521 24.9543C36.0414 24.4759 36.5014 24.037 36.7538 23.4449C36.758 23.4084 36.758 23.4084 36.8902 23.2245C37.0351 23.5991 36.5669 24.1121 37.0765 24.2317C36.1356 25.6313 35.3476 27.6655 33.9976 28.389C33.5712 28.8664 30.7882 31.0548 29.2203 30.3985C28.6779 30.5764 28.2519 30.0486 27.7183 29.8183C27.3628 29.6641 27.0234 29.3616 26.7292 28.984C26.5982 28.4997 26.4702 27.9749 26.5242 27.4935C26.4744 27.2691 26.5031 27.0092 26.5242 26.8234C26.6866 26.3796 26.7073 25.5236 26.8897 25.23C26.9475 25.0452 27.0433 24.8594 27.069 24.637C27.1471 24.6004 27.0939 24.4146 27.3582 24.382C27.3953 24.382 27.4494 24.2327 27.4911 24.1971C27.706 23.9402 27.7688 23.7177 27.9845 23.4608C27.9845 23.4608 27.1146 24.2288 27.6443 23.4924C28.0255 22.754 28.7874 21.9485 29.0694 21.4306C29.0774 21.3574 29.1648 21.2477 29.1648 21.2477C29.3015 21.0253 29.4299 20.88 29.3846 20.6181C29.364 20.4688 29.418 20.3196 29.5547 20.1001C29.6248 20.1377 29.6578 20.1753 29.7739 20.1407Z" fill="#202020"/>
<path d="M43.4446 27.6764C43.2083 27.7852 43.0301 28.0431 42.9804 28.4889C42.9964 28.6737 43.0918 28.826 43.2033 28.8269C43.2864 28.7538 43.3978 28.7548 43.481 28.6816C43.6798 28.5729 43.8829 28.4266 44.015 28.2438C44.4878 27.6932 44.703 27.1012 44.5663 27.3216C44.1353 27.5015 43.8093 27.4234 43.4446 27.6764ZM48.1315 24.809C48.0645 25.7381 48.4001 25.409 49.8037 25.2084C50.2591 25.1402 50.95 24.9642 51.6953 24.3059C52.068 23.9768 52.4318 24.3919 52.5975 24.5797C52.5809 24.728 52.013 25.4634 51.9297 25.5375C50.2615 26.4419 49.442 26.429 48.2714 26.5605C47.3148 26.7691 47.1865 27.2504 46.7674 27.9878L46.585 28.2833C46.423 28.7261 46.1246 29.0572 45.9013 29.3884C45.8181 29.4615 45.7315 29.5732 45.6527 29.6078L45.2309 30.0476C45.0524 30.3056 44.7953 30.6002 44.5137 30.7801L44.2199 31.0746L43.8101 31.4028C43.6944 31.4383 43.5825 31.4364 43.4745 31.3978C43.3715 31.3217 43.2344 31.209 43.1267 31.1695C43.1026 31.0578 43.1148 30.9461 43.1275 30.8344C43.0903 30.4994 43.0117 30.1999 42.6804 30.1574C42.5401 30.0813 42.4448 29.931 42.3464 29.8183C42.2218 29.592 42.1184 29.5169 41.9445 29.4032C41.6346 29.1739 41.6265 28.5798 41.979 28.1014C42.1651 27.7693 42.3723 27.5875 42.6126 27.4412C42.8574 27.2583 43.1339 27.114 43.4074 27.0063C43.8882 26.7167 44.2981 26.7226 44.8073 26.5071C45.0842 26.3638 45.2999 26.1058 45.4944 25.7006C45.863 24.7369 46.3196 23.3313 46.5437 22.3301L46.6854 21.0669C46.6943 20.9937 46.7023 20.9186 46.6732 20.8445C46.6567 20.6577 46.4786 20.5816 46.3503 20.7279C46.2725 20.7634 46.2311 20.801 46.1813 20.9107C45.8748 21.315 45.568 21.7192 45.3312 22.164C44.6513 23.2315 44.0016 24.3751 43.3259 25.406C42.8287 26.179 42.377 26.8788 41.9499 27.6922C41.2415 29.0197 39.8246 30.3382 39.1783 31.7784C39.0374 32.0373 38.9339 32.2953 38.6937 32.4406C38.4991 32.5128 38.3911 32.8083 38.3662 33.0317C38.3367 33.2906 38.2666 33.5862 38.167 33.8086C38.0758 33.9568 37.9842 34.1041 37.9016 34.1782C37.649 34.4342 37.5537 34.6171 37.4211 34.8029C36.9446 35.7241 36.542 36.6493 36.3554 37.6496C36.2681 38.0953 36.2179 38.5411 36.0562 38.9849C35.9815 39.319 35.8034 39.576 35.5303 39.6837C35.3311 39.7925 35.1656 39.9387 35.0208 40.2343C34.9798 40.2708 34.8507 40.4171 34.8135 40.4161C34.7017 40.4152 34.6354 40.6741 34.5488 40.7848L34.5109 40.7838C33.9018 40.8866 33.58 40.4349 33.4357 39.7252C33.2908 39.0165 33.3043 38.2367 33.3502 37.4934C33.4751 35.7093 33.7792 34.0033 34.2026 32.2232C34.3561 31.5184 34.5883 30.7771 34.7757 30.1129C35.0538 28.9624 35.4437 27.8148 35.8624 26.7424C36.4555 25.1154 37.0817 23.5251 37.7406 21.9733C37.895 21.6026 38.0808 21.2705 38.2432 20.8267C38.8144 19.7197 39.3204 18.5375 39.8965 17.3929C40.1455 16.8394 40.5141 16.2128 40.8374 15.6583C41.0401 15.513 41.2262 15.5149 41.3956 15.6672L42.2272 16.2375L42.2609 16.275C42.7436 16.9531 42.988 17.7754 42.975 18.8904C42.9864 19.4488 42.8789 20.0795 42.6585 20.7091C42.3353 21.5957 41.9667 22.5574 41.5265 23.4816C41.2365 24.0717 40.9298 24.811 40.631 25.4762C39.802 27.5479 41.0232 27.3068 41.3546 26.6781C41.499 26.3826 42.1418 25.6492 42.2954 25.2785L43.8082 22.7719C44.0483 22.2915 44.2721 21.9614 44.6114 21.5937C44.906 21.3001 45.2086 20.9325 45.54 20.6399C45.7886 20.4215 46.1437 20.2406 46.4047 20.2455L47.0379 20.2544C47.3815 20.1862 47.6462 20.4867 47.9151 20.7526C48.0887 20.8662 48.2043 21.1657 48.2081 21.4632C48.2123 21.7598 48.2495 22.0948 48.22 22.3558L48.2483 23.4351L48.1315 24.809Z" fill="#202020"/>
<path d="M51.2057 33.0031C50.9743 33.0752 50.7262 33.2937 50.585 33.5526C50.4474 33.774 50.3198 33.9203 50.1578 34.029C49.9923 34.1753 49.8272 34.3216 49.7311 34.5065C49.6694 34.7279 49.6483 34.9147 49.5537 35.0975C49.4533 35.3199 49.4743 35.4692 49.5732 35.5828C49.7016 35.7706 49.8341 35.9209 49.962 36.1097C50.0659 36.1858 50.2106 36.2253 50.3758 36.08C50.5366 35.9683 50.6614 35.8596 50.8644 35.7133C51.0292 35.568 51.1998 35.3842 51.3656 35.2369C51.7304 34.9829 52.0236 34.6893 52.2972 34.2475C52.3806 34.1753 52.4296 34.0636 52.4757 33.9895C52.6954 33.696 52.8817 33.3638 53.0307 33.0317C53.2553 32.7006 53.2592 32.328 53.4505 31.9593C53.4877 31.9603 53.4956 31.8842 53.4995 31.8476C53.6329 30.6595 52.1001 32.3468 51.6029 32.7866C51.4783 32.8963 51.3587 32.9685 51.2057 33.0031ZM52.3129 36.1077C52.1629 36.1057 52.1629 36.1057 51.8039 36.3242C51.8039 36.3242 51.8118 36.249 51.8157 36.2115C51.7451 36.1729 51.7451 36.1729 51.7166 36.0988C51.6333 36.1719 51.5215 36.169 51.4725 36.2817C51.2695 36.427 51.0782 36.4606 50.8468 36.5327C50.7683 36.5683 50.7683 36.5683 50.5902 36.4922C50.6359 36.4161 50.6399 36.3795 50.686 36.3064C50.5738 36.3044 50.4911 36.3765 50.3808 36.3756C50.334 36.4497 50.2554 36.4863 50.1811 36.4853C49.862 36.6662 49.7219 36.59 49.6061 36.2905C49.5563 36.0662 49.5445 35.8428 49.412 35.6916C49.2215 35.3911 49.2261 35.0194 49.1978 34.6092C49.2143 34.461 49.2806 34.201 49.3756 34.0182C49.5422 33.5348 49.8111 33.1306 50.159 32.6897C50.8507 31.8437 51.5676 31.1112 52.3453 30.4915C53.9065 29.2125 53.7251 28.8379 53.4034 27.717C53.2759 26.8591 52.9739 26.2225 52.6758 25.5484C52.6561 25.3992 52.5561 25.2865 52.5355 25.1373C52.255 24.649 51.852 21.9269 51.9265 21.2587C52.0089 21.1865 51.9804 21.1114 52.0717 20.9641C52.0589 20.7398 52.1599 20.5184 52.3325 20.2979C52.3825 20.1872 52.5188 19.9658 52.4276 19.779C52.56 19.5952 52.6267 19.3352 52.7601 19.1514C52.8542 18.9675 52.9415 18.8578 53.0415 18.6354C53.1278 18.5247 53.1788 18.414 53.3024 18.3043C53.4397 18.0829 53.576 17.8615 53.7123 17.6411C53.8957 17.3455 54.1438 17.1271 54.3213 16.8691C54.3674 16.796 54.4047 16.796 54.4831 16.7604C54.6038 16.6863 54.6449 16.6497 54.7352 16.5024C54.8646 16.3571 54.947 16.283 55.0137 16.3581C55.2618 16.4738 55.4354 16.5884 55.6335 16.8138C55.6335 16.8138 55.6707 16.8148 55.7041 16.8533C56.0228 17.0075 56.4651 18.3893 56.4484 18.8726C56.4357 18.9853 56.4229 19.095 56.4896 19.1712C56.4641 19.3945 56.4396 19.6159 56.3395 19.8383C56.2317 20.1349 56.116 20.5045 55.9335 20.8001C55.8414 20.9463 55.7923 21.058 55.6393 21.0926C55.5187 21.1658 55.3902 21.3111 55.3 21.4603C55.25 21.57 55.0882 21.6788 55.1039 21.8656C55.1039 21.8656 55.096 21.9407 55.0549 21.9763C54.9225 22.1611 54.7852 22.3815 54.691 22.5674C54.4998 22.936 54.4253 23.6042 54.5027 23.9017C54.5567 24.0895 54.7224 24.2773 54.8215 24.39C55.2598 24.8071 55.5109 26.2245 55.8757 26.6387C56.0444 26.7899 55.9992 27.1981 56.1307 27.3513C56.3748 28.1717 57.6782 27.1882 58.6765 26.9421C59.2816 26.5418 59.8857 26.1425 60.4946 25.7056C60.9379 25.414 61.3851 25.0868 61.795 24.7577C62.0814 24.5392 62.3344 24.2823 62.5864 24.0253C62.7934 23.8434 63.0052 23.623 63.216 23.4026C63.2739 23.5528 63.2984 23.6645 63.3239 23.7762C63.3729 24.0006 63.3847 24.224 63.2111 24.4444C63.1611 24.5541 63.0787 24.6292 63.066 24.7399C62.962 24.9989 62.8257 25.2193 62.6512 25.4397C62.4403 25.6611 62.2952 25.9557 62.0843 26.1751C61.8813 26.3214 61.7156 26.4686 61.5499 26.6139C61.2635 26.8334 60.9781 27.0518 60.6927 27.2712C60.6506 27.3078 60.5682 27.381 60.527 27.4175C60.0926 27.633 59.6777 27.9997 59.2345 28.2893C59.1099 28.4 58.9481 28.5087 58.7873 28.6184C57.9802 29.165 56.8622 29.1472 56.7504 30.1495C56.8162 30.8948 56.8328 30.7445 56.5092 31.6341C56.5337 31.7458 56.4513 31.8189 56.4759 31.9306C56.3886 32.0413 56.4219 32.0799 56.4219 32.0799C56.2474 32.2993 56.2758 32.7075 56.1768 32.9299C56.1316 33.0031 56.0483 33.0782 55.9698 33.1128C55.9286 33.1494 55.8914 33.1494 55.8492 33.1859C55.6756 33.4073 55.4648 33.6258 55.3236 33.8847C55.0911 34.291 53.9693 35.315 53.6378 35.6076C53.5093 35.7548 53.422 35.8655 53.2975 35.9743C53.1239 36.1947 52.7758 36.3004 52.5404 36.4092C52.4982 36.4457 52.462 36.4457 52.4571 36.4823C52.205 36.7383 51.9314 36.846 51.7039 36.8797C51.6254 36.9152 51.6205 36.9538 51.5421 36.9894C51.803 36.6582 52.056 36.4022 52.3129 36.1077Z" fill="#202020"/>
<path d="M70.8272 14.1075C70.8801 13.9593 70.938 13.7734 70.9968 13.5896C71.0674 13.2921 71.1753 12.9966 71.2459 12.699C71.3204 12.3659 71.3204 12.0318 71.3214 11.6968C71.3008 11.5475 71.1929 11.509 71.1106 11.5821C70.9488 11.6918 70.8291 11.764 70.734 11.9488C70.5516 12.2424 70.3653 12.5745 70.2525 12.9086C70.2035 13.0193 70.1172 13.129 70.0672 13.2407C69.9759 13.388 69.8847 13.5352 69.7886 13.7211C69.6729 14.0898 69.5523 14.497 69.3944 14.9052C69.1375 15.8669 70.177 15.9213 70.4751 15.2551C70.5908 14.8844 70.7066 14.5148 70.8272 14.1075ZM69.1934 18.3607C69.67 17.4375 69.8651 16.6972 68.5481 17.4573C68.0009 18.677 67.7557 19.528 67.2918 20.6746C66.1268 23.7446 67.5772 21.4614 68.2529 20.0944C68.5932 19.3936 68.7834 19.0239 69.1934 18.3607ZM74.3507 23.9443C74.3252 24.1677 74.2134 24.1667 74.2301 24.3525C74.2507 24.5017 73.7202 25.5712 73.629 25.7195C73.3387 26.3105 73.0111 26.9006 72.7208 27.4907C72.3109 28.1539 71.9098 28.744 71.5028 29.3707C71.3244 29.6277 69.3238 31.8299 69.1208 31.9742C68.6001 32.3013 67.6723 33.2542 67.1908 33.5448C66.8721 33.7266 65.709 34.1171 65.4443 34.1507C64.9559 34.1803 64.4302 34.209 63.9958 34.0914C63.226 33.9678 62.2002 32.7985 61.9109 32.0503C61.7628 31.7142 61.5726 31.4137 61.5019 31.0411C61.4078 30.5548 61.3833 29.774 61.4088 29.2155C61.7589 26.097 62.1806 25.6572 63.4123 22.6613C63.5162 22.4043 63.579 22.1809 63.682 21.922C63.7477 21.662 63.8889 21.405 63.9889 21.1826C64.1458 20.7754 64.3037 20.3682 64.4567 19.9995C64.7342 19.186 65.862 17.7884 64.9882 17.5907C64.7313 17.5482 64.5038 17.5828 64.3018 17.393C64.0948 17.2418 63.884 17.1272 63.6781 16.9749C63.6114 16.8988 63.5084 16.8227 63.4917 16.6369C63.5702 16.6013 63.6486 16.5637 63.6859 16.5657C64.2204 16.4619 64.7156 16.3582 65.2501 16.2544C65.5943 16.1852 65.9709 16.1535 66.3475 16.1219C66.5004 16.0873 66.6573 16.0162 66.7525 15.8303C66.8986 15.5358 67.1143 15.2788 67.2252 14.9457C67.6772 14.2459 68.0215 13.5066 68.5059 12.8443C68.9453 12.2562 69.3758 11.7422 69.9112 11.3024C69.9975 11.1937 70.1221 11.084 70.2044 11.0098C70.3662 10.9011 70.5232 10.8289 70.7056 10.8695C70.9203 10.9466 71.1567 10.8388 71.4175 10.8428C71.4538 10.8428 71.4538 10.8428 71.496 10.8062C72.0295 10.7044 72.1913 10.9278 72.2943 11.339C72.4394 11.7136 72.4718 12.0862 72.4217 12.531C72.3962 12.7554 72.4129 12.9412 72.4286 13.128C72.4502 13.2763 72.4296 13.4621 72.3708 13.6479C72.3129 13.8318 72.255 14.0176 72.1932 14.24C72.0844 14.5355 71.9775 14.833 71.8696 15.1276C71.8569 15.2403 71.849 15.3134 71.798 15.4241C71.902 15.5002 72.0148 15.5022 72.1628 15.5042C72.614 15.4735 73.1023 15.4449 73.5534 15.4132C74.187 15.4231 74.8577 15.434 75.4912 15.4439C75.7148 15.4478 75.9296 15.5249 76.1865 15.5654C76.0993 15.6752 76.0542 15.7483 76.012 15.7859C75.9286 15.86 75.81 15.9322 75.7305 15.9687C75.4569 16.0745 75.1431 16.2188 74.8695 16.3265C74.8646 16.3631 74.8273 16.3631 74.8273 16.3631C74.4135 16.3938 73.9467 16.5736 73.5034 16.5292C73.2426 16.5242 72.9778 16.5578 72.7091 16.629C72.5512 16.7011 72.3649 16.6972 72.2119 16.7318C71.9098 16.7654 71.6441 16.798 71.342 16.8316C71.189 16.8662 71.1018 16.9749 71.0106 17.1242C70.9694 17.1598 70.9654 17.1973 70.9233 17.2339C70.3359 18.4902 69.6062 19.6684 68.9845 20.8871C68.8933 21.0344 68.8031 21.1816 68.7521 21.2933C68.5245 21.661 68.3382 21.9931 68.1803 22.4004C68.0322 22.7325 67.8077 23.0636 67.588 23.3581C67.4095 23.6161 67.4095 23.9512 67.1938 24.2082C66.6799 25.1294 65.8797 27.9454 65.7953 29.3568C65.7659 29.9519 65.8522 30.5113 65.9758 31.0708C66.0297 31.2586 66.166 31.3712 66.2612 31.5225C66.2984 31.5225 66.3318 31.56 66.4063 31.562C66.7417 31.5669 67.4076 31.6134 67.7684 31.396C68.0087 31.2507 69.2257 30.3779 69.4699 30.195C70.0917 29.6465 71.5117 28.2913 71.9677 27.555C72.3737 26.9283 72.6522 26.1138 73.0533 25.5238C73.2445 25.1551 73.7084 24.3436 73.9408 23.9383C74.1232 23.9779 74.3998 23.8346 74.3507 23.9443Z" fill="#202020"/>
<path d="M79.108 22.1208C79.0217 22.2315 78.8923 22.3778 78.802 22.5251C78.6236 22.7821 78.6393 22.9689 78.8138 23.0826C78.9168 23.1587 79.058 23.2348 79.1198 23.3484C79.314 23.6104 79.617 23.5778 79.9181 23.5471C80.1877 23.476 80.4025 23.22 80.581 22.961C80.9125 22.3334 81.0743 22.2246 81.3685 21.596C82.1226 20.1934 80.8928 20.5107 80.2848 20.9476C79.8416 21.2392 79.4895 21.7176 79.108 22.1208ZM74.0821 25.0199C73.8291 25.6109 73.8036 26.1684 73.8153 26.7278C73.8114 26.7644 73.8487 26.7644 73.882 26.802C73.9644 26.3947 74.0438 26.0231 74.1223 25.6534C74.189 25.3925 74.2557 25.1335 74.1684 24.9102C74.1272 24.9467 74.086 24.9833 74.0821 25.0199ZM73.8153 27.396C73.8399 27.5087 73.8683 27.5838 73.8938 27.6945C73.8801 27.8062 73.984 27.8833 73.8928 28.0296C73.8595 27.992 73.8232 27.992 73.8271 27.9555C73.682 27.5809 73.6623 27.0965 73.6418 26.6122C73.6084 26.5746 73.6506 26.5381 73.6535 26.5015C73.7163 25.945 73.7751 25.4241 73.986 24.8696C74.036 24.7589 74.086 24.6472 74.0987 24.5365C74.1066 24.4624 74.1105 24.4258 74.1272 24.2766C73.9909 24.498 73.8997 24.6443 73.8457 24.7935C73.7879 24.9783 73.7339 25.1266 73.6761 25.3115C73.4182 26.2742 73.3554 27.1667 73.6771 27.9525C73.7359 28.1017 73.8349 28.2154 73.9301 28.3647C73.9968 28.4408 74.0664 28.4783 74.1743 28.5179C74.1703 28.5545 74.2115 28.5179 74.287 28.5198C74.1948 28.333 74.0997 28.1818 74.0458 27.996C73.9595 27.7706 73.985 27.5482 73.8938 27.3614C73.8565 27.3594 73.8153 27.396 73.8153 27.396ZM77.7282 24.1085C77.7194 24.1827 77.637 24.2558 77.5586 24.2914C77.5174 24.328 77.4379 24.3645 77.4262 24.4752C77.3722 24.6235 77.331 24.6601 77.2143 24.6957C77.1359 24.7312 77.132 24.7688 77.0702 24.9912C77.1447 24.9922 77.181 24.9922 77.2143 25.0307C77.2143 25.0307 77.2143 25.0307 77.2094 25.0673C77.1359 25.0663 77.0614 25.0663 76.9496 25.0634C76.9996 24.9537 77.0113 24.841 77.0202 24.7659C76.9829 24.7659 76.9456 24.7659 76.9456 24.7659C76.8799 25.0248 76.8123 25.2857 76.7466 25.5437C76.8172 25.5823 76.8495 25.6208 76.8868 25.6208C76.8946 25.8808 76.8701 26.1032 76.8407 26.3641C76.8113 26.6231 76.8613 26.8484 76.9152 27.0343C77.0104 27.1855 77.2163 28.0069 77.3114 28.1571C77.7743 28.6839 78.3323 29.363 78.9246 29.4094C79.107 29.4499 80.2083 29.28 80.3986 29.2463C81.3214 28.9992 82.2324 28.5288 83.1229 27.91C83.8103 27.4375 84.4694 26.8899 85.1597 26.3789C85.2009 26.3424 85.2431 26.3058 85.2843 26.2692C85.5373 26.0132 85.7864 25.7928 86.0384 25.5368C86.4944 25.1335 86.9122 24.7322 87.3015 24.2548C87.4339 24.069 87.5663 23.8871 87.7987 23.814C87.686 24.1481 87.5781 24.4446 87.3957 24.7392C87.3466 24.8489 87.2594 24.9616 87.177 25.0337C86.924 25.2907 86.7131 25.5101 86.5307 25.8057C86.4023 25.952 86.2365 26.0982 86.109 26.2445C86.0669 26.2821 86.0208 26.3562 85.9345 26.4649C86.0512 26.4303 86.1286 26.3938 86.2444 26.3582C86.1826 26.5796 85.9923 26.6152 85.9335 26.801C85.9668 26.8376 85.9629 26.8751 86.0335 26.9137C85.9011 27.0975 85.7766 27.2062 85.6109 27.3535C85.3667 27.5364 85.1176 27.7558 84.9067 27.9743C84.5302 28.3419 84.1232 28.6325 83.7182 28.9241C83.5152 29.0704 83.3494 29.2157 83.1513 29.3244C82.9895 29.4331 82.8316 29.5053 82.6698 29.615C82.4345 29.7228 82.1981 29.8315 81.9579 29.9758C81.5597 30.1932 81.1302 30.3722 80.7124 30.4413C80.5967 30.4769 80.48 30.5115 80.3643 30.5471C79.9014 30.6894 79.4454 30.7557 78.9943 30.7863C78.4647 30.8535 76.3121 30.4107 75.8483 30.218C74.6038 29.6773 74.4136 29.0417 73.8771 28.5129C73.6731 28.3241 73.5211 28.0247 73.4427 27.7252C73.3093 27.2408 73.3309 26.719 73.3564 26.1625C73.4858 25.011 73.9085 23.901 74.5096 22.8691C74.646 22.6477 74.646 22.6477 74.6469 22.3126C74.4479 22.4213 74.3272 22.4935 74.2282 22.7149C74.0791 23.048 73.8967 23.3435 73.6731 23.6746C73.7104 23.3405 73.884 23.1191 74.0252 22.8622C74.3988 22.197 74.8038 21.5723 75.2805 20.9832C75.761 20.3585 76.2709 19.8079 76.8505 19.2959C77.434 18.7464 78.0469 18.2729 78.6854 17.9112C78.8423 17.839 78.958 17.8024 79.0786 17.7303C79.2728 17.6581 79.464 17.6245 79.5542 17.8123C79.6543 17.925 79.8063 17.8904 79.8729 17.9655C79.9759 18.0426 79.9965 18.1909 80.0632 18.266C80.4153 18.4578 81.7892 18.8512 82.0991 19.0775C82.202 19.1546 82.2589 19.3039 82.3178 19.4531C82.4668 19.7911 82.5737 20.1658 82.8091 20.3921C82.8758 20.4662 82.8954 20.6155 82.9209 20.7272C82.9454 21.1739 82.9366 21.5841 82.7708 22.0655C82.6384 22.5824 82.3599 23.0628 82.05 23.5046C81.8716 23.7626 81.697 23.982 81.5528 24.2776C81.4489 24.5365 81.2753 24.7579 81.0968 25.0149C80.9144 25.3105 80.633 25.4913 80.3633 25.5625C80.1279 25.6702 79.8631 25.7038 79.6435 25.6623C79.5366 25.6238 79.4199 25.6603 79.362 25.5101C79.3659 25.4725 79.3297 25.4716 79.3297 25.4716C79.0266 25.5042 78.8785 25.1671 78.6677 25.0525C78.6353 25.0149 78.6088 24.9032 78.6138 24.8647C78.705 24.7174 78.6383 24.6433 78.6138 24.5316C78.498 24.2321 78.3872 23.8941 78.2342 23.5956C78.2087 23.4829 78.1018 23.4443 77.9773 23.5531C77.9194 23.7379 77.7527 23.8861 77.7282 24.1085Z" fill="#202020"/>
<path d="M91.7891 25.5137C92 24.9582 93.5985 22.3409 93.9093 21.9001C94.1712 21.569 94.432 21.2378 94.6605 20.8692C94.9174 20.5756 95.1773 20.2455 95.3607 19.949C95.5382 19.693 95.7785 19.5467 96.006 19.514C96.2669 19.518 96.4944 19.4844 96.718 19.4873C97.1661 19.4933 97.3887 19.8313 97.5574 20.3186C97.5545 20.3552 97.5496 20.3928 97.5407 20.4669C97.5613 20.9502 97.6153 21.4731 97.631 21.995C97.6516 22.4773 97.5555 22.9962 97.5015 23.4796C97.4643 23.8127 97.4643 24.1487 97.3888 24.4808C97.5623 24.5965 97.5094 24.7438 97.5506 24.7072C97.6339 24.635 97.882 24.7497 97.9644 24.6765C98.0105 24.6034 98.088 24.5668 98.1341 24.4937C98.2959 24.385 98.4577 24.2752 98.6273 24.0914C98.7597 23.9076 98.8715 23.9095 99 24.0983C98.9872 24.21 98.9372 24.3197 98.8176 24.3919C98.7754 24.4294 98.7303 24.5026 98.6842 24.5757C98.6352 24.6874 98.5479 24.7981 98.4322 24.8337C98.391 24.8703 98.3488 24.9058 98.3076 24.9424C98.2665 24.979 98.188 25.0146 98.1841 25.0521C98.1429 25.0887 98.1046 25.0877 98.0635 25.1253C97.8977 25.2706 97.782 25.3062 97.6329 25.3042C97.5957 25.3032 97.4427 25.3388 97.2809 25.4485C97.1612 25.5197 97.0485 25.5187 96.9828 25.4426C96.7395 25.2903 96.4816 25.2498 96.2335 25.1332C95.8001 25.0156 95.5098 24.6014 95.3823 24.0795C95.2332 23.4064 95.3166 22.6651 95.5078 21.9614C95.6196 21.6283 95.6539 21.3317 95.7236 21.0342C95.7854 20.8118 95.8481 20.5904 95.9109 20.3671C96.0021 20.2208 96.0138 20.1081 95.9933 19.9588C95.957 19.9588 95.8854 19.9213 95.8775 19.9954C95.8363 20.031 95.754 20.1051 95.7079 20.1782C95.5255 20.4738 95.3058 20.7674 95.0822 21.0985C94.9488 21.2823 94.8498 21.5047 94.7831 21.7647C94.8037 21.9129 94.6792 22.0236 94.6301 22.1333C94.2241 22.76 93.8593 23.3501 93.5563 24.0519C93.3121 24.5688 93.0022 25.0106 92.7198 25.5266C92.2971 26.3015 91.8087 27.0013 91.4557 27.8138C91.3517 28.0727 91.1693 28.3683 91.0252 28.6628C90.9251 28.8842 89.7934 30.6525 89.5493 30.8354C89.5414 30.9095 89.4257 30.9461 89.3423 31.0182C88.8245 31.6429 88.3067 31.5965 87.7281 31.4393C87.6448 31.5124 87.5791 31.4363 87.5124 31.3622C86.9328 31.205 86.6984 30.6426 86.6318 29.8984C86.5915 29.2648 86.6671 28.5966 86.7377 27.965C86.8828 27.0003 87.0279 26.0356 87.2113 25.0709C87.5183 23.9965 87.3614 24.0687 87.7703 23.0704C88.1949 21.6273 88.0204 21.8467 88.7049 20.4066C88.7716 20.1466 88.9403 19.9638 89.0442 19.7038C89.3806 19.0406 89.6709 18.4505 90.0357 17.8604C90.2387 17.38 90.3956 17.3069 90.7594 17.387C91.0203 17.3909 91.3468 17.47 91.6744 17.5511C91.8941 17.5916 92.1088 17.6687 92.3785 17.9326C92.5844 18.4199 92.9198 18.7599 93.2425 19.2096C93.5102 19.8106 93.5357 20.2573 93.2327 20.9601C92.963 21.6985 92.9512 21.14 92.6766 21.9179C92.0186 23.4707 90.9859 24.6815 90.4181 26.087C89.6591 27.8612 91.5694 26.1414 91.7891 25.5137Z" fill="#202020"/>
<path d="M21.0301 46.3764H21.3736C21.669 46.3764 21.9007 46.2854 22.0701 46.1026C22.2387 45.9207 22.3229 45.6756 22.3229 45.3682C22.3229 45.0618 22.2387 44.8176 22.0701 44.6357C21.9007 44.4529 21.669 44.362 21.3736 44.362H21.0301V46.3764ZM21.3736 43.7709C21.8801 43.7709 22.2958 43.9172 22.6209 44.2137C22.9466 44.5092 23.1098 44.8947 23.1098 45.3672C23.1098 45.8387 22.9466 46.2241 22.6209 46.5216C22.2958 46.8192 21.8801 46.9674 21.3736 46.9674H20.257V43.7709H21.3736Z" fill="#202020"/>
<path d="M27.5891 43.761V44.3531H26.4415V45.041H27.4536V45.634H26.4415V46.3764H27.5891V46.9674H25.6681V43.761H27.5891Z" fill="#202020"/>
<path d="M31.3999 44.3392C31.3033 44.3392 31.224 44.3649 31.1623 44.4163C31.101 44.4687 31.0697 44.5418 31.0697 44.6397C31.0697 44.7365 31.0984 44.8146 31.1555 44.8749C31.2128 44.9342 31.2872 44.9787 31.3796 45.0113C31.4714 45.0429 31.5733 45.0726 31.6868 45.1022C31.7998 45.1309 31.912 45.1665 32.0235 45.207C32.135 45.2475 32.2369 45.2989 32.3288 45.3592C32.4207 45.4205 32.4955 45.5065 32.5525 45.6182C32.61 45.7279 32.6387 45.8603 32.6387 46.0155C32.6387 46.2864 32.5287 46.5176 32.3104 46.7104C32.092 46.9031 31.8044 47 31.4469 47C31.09 47 30.8026 46.914 30.5838 46.741C30.3655 46.5671 30.2564 46.3219 30.2564 46.0027H31.0788C31.0999 46.2567 31.2293 46.3842 31.4676 46.3842C31.5787 46.3842 31.6664 46.3555 31.7297 46.2962C31.7929 46.236 31.8251 46.1618 31.8251 46.0709C31.8251 45.979 31.7963 45.9058 31.7389 45.8475C31.6814 45.7902 31.6071 45.7437 31.5152 45.7111C31.4232 45.6775 31.3205 45.6459 31.2079 45.6182C31.0945 45.5895 30.9823 45.5529 30.8704 45.5104C30.7593 45.4689 30.6578 45.4166 30.5655 45.3573C30.4735 45.2989 30.3989 45.2139 30.3422 45.1022C30.2851 44.9915 30.2564 44.8601 30.2564 44.7079C30.2564 44.4103 30.3659 44.1721 30.5862 43.9932C30.8061 43.8133 31.0868 43.7244 31.429 43.7244C31.771 43.7244 32.0476 43.8015 32.2587 43.9586C32.4694 44.1148 32.5797 44.3619 32.5889 44.698H31.7481C31.7358 44.5833 31.6987 44.4953 31.6374 44.4321C31.5757 44.3698 31.496 44.3392 31.3999 44.3392Z" fill="#202020"/>
<path d="M35.3191 46.9674V43.7709H36.0917V46.9674H35.3191Z" fill="#202020"/>
<path d="M39.1274 46.5338C38.8125 46.2244 38.6554 45.834 38.6554 45.3595C38.6554 44.8871 38.8125 44.4957 39.1274 44.1873C39.4426 43.8779 39.8276 43.7247 40.2824 43.7247C40.6356 43.7247 40.9485 43.8196 41.2228 44.0064C41.4975 44.1952 41.6883 44.4561 41.7966 44.7902H40.875C40.754 44.5569 40.5613 44.4403 40.2965 44.4403C40.0307 44.4403 39.8223 44.5233 39.6702 44.6904C39.5177 44.8574 39.4415 45.0808 39.4415 45.3595C39.4415 45.6383 39.5177 45.8626 39.6702 46.0307C39.8223 46.1977 40.0265 46.2798 40.2824 46.2798C40.4663 46.2798 40.616 46.2343 40.7321 46.1414C40.8481 46.0495 40.9256 45.9259 40.9654 45.7697H40.0706V45.1787H41.7966V45.7697C41.7396 46.0613 41.5818 46.3341 41.3221 46.5852C41.1987 46.7067 41.0458 46.8066 40.8639 46.8807C40.6811 46.9568 40.4873 46.9964 40.2824 46.9964C39.8276 46.9964 39.4426 46.8412 39.1274 46.5338Z" fill="#202020"/>
<path d="M46.4301 43.761H47.2035V46.9674H46.4301L45.1372 44.9491V46.9674H44.3646V43.761H45.1372L46.4301 45.7793V43.761Z" fill="#202020"/>
<path d="M54.4537 44.3392C54.3576 44.3392 54.2781 44.3649 54.2164 44.4163C54.1546 44.4687 54.1232 44.5418 54.1232 44.6397C54.1232 44.7365 54.1526 44.8146 54.2095 44.8749C54.2664 44.9342 54.3419 44.9787 54.4331 45.0113C54.5253 45.0429 54.6282 45.0726 54.741 45.1022C54.8538 45.1309 54.9656 45.1665 55.0774 45.207C55.1892 45.2475 55.2912 45.2989 55.3824 45.3592C55.4746 45.4205 55.5491 45.5065 55.6069 45.6182C55.6638 45.7279 55.6923 45.8603 55.6923 46.0155C55.6923 46.2864 55.5834 46.5176 55.3647 46.7104C55.146 46.9031 54.8577 47 54.5017 47C54.1438 47 53.8565 46.914 53.6378 46.741C53.4191 46.5671 53.3102 46.3219 53.3102 46.0027H54.133C54.1536 46.2567 54.283 46.3842 54.5214 46.3842C54.6331 46.3842 54.7204 46.3555 54.7832 46.2962C54.8469 46.236 54.8783 46.1618 54.8783 46.0709C54.8783 45.979 54.8499 45.9058 54.793 45.8475C54.7351 45.7902 54.6606 45.7437 54.5694 45.7111C54.4772 45.6775 54.3742 45.6459 54.2615 45.6182C54.1487 45.5895 54.0359 45.5529 53.9251 45.5104C53.8133 45.4689 53.7123 45.4166 53.6191 45.3573C53.5279 45.2989 53.4534 45.2139 53.3955 45.1022C53.3387 44.9915 53.3102 44.8601 53.3102 44.7079C53.3102 44.4103 53.4201 44.1721 53.6397 43.9932C53.8594 43.8133 54.1409 43.7244 54.4831 43.7244C54.8254 43.7244 55.1019 43.8015 55.3127 43.9586C55.5236 44.1148 55.6334 44.3619 55.6423 44.698H54.8018C54.7901 44.5833 54.7528 44.4953 54.691 44.4321C54.6292 44.3698 54.5508 44.3392 54.4537 44.3392Z" fill="#202020"/>
<path d="M58.156 44.362V43.7709H60.6606V44.362H59.7927V46.9674H59.02V44.362H58.156Z" fill="#202020"/>
<path d="M63.1778 45.6785V43.7708H63.9505V45.6785C63.9505 45.8702 63.9976 46.0165 64.0917 46.1213C64.1849 46.2241 64.3222 46.2755 64.5026 46.2755C64.6841 46.2755 64.8223 46.2241 64.9185 46.1213C65.0146 46.0165 65.0636 45.8702 65.0636 45.6785V43.7708H65.8364V45.6785C65.8364 45.9612 65.7707 46.2053 65.6392 46.4099C65.5088 46.6145 65.3421 46.7638 65.142 46.8587C64.942 46.9535 64.7243 47 64.4889 47C64.1212 47 63.8113 46.8844 63.5583 46.6541C63.3043 46.4228 63.1778 46.0986 63.1778 45.6785Z" fill="#202020"/>
<path d="M69.3393 46.3764H69.6826C69.9777 46.3764 70.2102 46.2854 70.3788 46.1026C70.5475 45.9207 70.6318 45.6756 70.6318 45.3682C70.6318 45.0618 70.5475 44.8176 70.3788 44.6357C70.2102 44.4529 69.9777 44.362 69.6826 44.362H69.3393V46.3764ZM69.6826 43.7709C70.1886 43.7709 70.6054 43.9172 70.93 44.2137C71.2565 44.5092 71.4183 44.8947 71.4183 45.3672C71.4183 45.8387 71.2565 46.2241 70.93 46.5216C70.6054 46.8192 70.1886 46.9674 69.6826 46.9674H68.5666V43.7709H69.6826Z" fill="#202020"/>
<path d="M73.978 46.9674V43.7709H74.7507V46.9674H73.978Z" fill="#202020"/>
<path d="M79.5492 46.0304C79.7012 45.8623 79.7777 45.6379 79.7777 45.3592C79.7777 45.0805 79.7012 44.8571 79.5492 44.6901C79.3962 44.523 79.1932 44.44 78.9382 44.44C78.6833 44.44 78.4803 44.523 78.3283 44.6901C78.1762 44.8571 78.0997 45.0805 78.0997 45.3592C78.0997 45.6379 78.1762 45.8623 78.3283 46.0304C78.4803 46.1974 78.6833 46.2794 78.9382 46.2794C79.1932 46.2794 79.3962 46.1974 79.5492 46.0304ZM77.7859 46.5364C77.4711 46.2261 77.3132 45.8337 77.3132 45.3592C77.3132 44.8867 77.4711 44.4953 77.7859 44.187C78.1007 43.8776 78.4861 43.7244 78.9431 43.7244C79.3991 43.7244 79.7836 43.8776 80.0954 44.187C80.4083 44.4953 80.5632 44.8867 80.5632 45.3592C80.5632 45.8337 80.4073 46.2261 80.0935 46.5364C79.7806 46.8458 79.3952 47 78.9412 47C78.4861 47 78.1007 46.8458 77.7859 46.5364Z" fill="#202020"/>
</g>
<defs>
<filter id="filter0_f_1_4443" x="0" y="0" width="106" height="54" filterUnits="userSpaceOnUse" color-interpolation-filters="sRGB">
<feFlood flood-opacity="0" result="BackgroundImageFix"/>
<feBlend mode="normal" in="SourceGraphic" in2="BackgroundImageFix" result="shape"/>
<feGaussianBlur stdDeviation="3.5" result="effect1_foregroundBlur_1_4443"/>
</filter>
</defs>
</svg>
