<svg width="94" height="58" viewBox="0 0 94 58" fill="none" xmlns="http://www.w3.org/2000/svg">
<g filter="url(#filter0_f_1_4449)">
<path d="M11.3371 23.2245V27.4762H14.0264C14.6859 27.4762 15.2057 27.284 15.5859 26.898C15.9661 26.5111 16.1571 26.0044 16.1571 25.3753C16.1571 24.7463 15.9625 24.2307 15.5733 23.8277C15.1841 23.4246 14.6679 23.2245 14.0264 23.2245H11.3371ZM11.3371 30.7467V37.6148H7V19.954H14.0264C16.0886 19.954 17.695 20.4821 18.8455 21.5392C19.9951 22.5954 20.5699 23.8706 20.5699 25.3628C20.5699 26.386 20.2573 27.3841 19.632 28.3572C19.0059 29.3294 17.9833 30.0166 16.5625 30.4187L20.9258 37.6148H15.8517L11.8443 30.7467H11.3371Z" fill="#202020"/>
<path d="M34.4698 19.9039V23.1736H28.0273V26.9722H33.7085V30.2427H28.0273V34.3442H34.4698V37.6148H23.6892V19.9039H34.4698Z" fill="#202020"/>
<path d="M36.7284 23.2245V19.954H50.7803V23.2245H45.9098V37.6148H41.5736V23.2245H36.7284Z" fill="#202020"/>
<path d="M57.4516 23.2245V27.4762H60.1409C60.7994 27.4762 61.3193 27.284 61.7004 26.898C62.0806 26.5111 62.2707 26.0044 62.2707 25.3753C62.2707 24.7463 62.0761 24.2307 61.6887 23.8277C61.2986 23.4246 60.7832 23.2245 60.1409 23.2245H57.4516ZM57.4516 30.7467V37.6148H53.1145V19.954H60.1409C62.2031 19.954 63.8095 20.4821 64.96 21.5392C66.1096 22.5954 66.6852 23.8706 66.6852 25.3628C66.6852 26.386 66.3717 27.3841 65.7465 28.3572C65.1203 29.3294 64.0969 30.0166 62.6761 30.4187L67.0393 37.6148H61.967L57.9588 30.7467H57.4516Z" fill="#202020"/>
<path d="M81.3061 32.4322C82.1593 31.5101 82.5872 30.2778 82.5872 28.7346C82.5872 27.1914 82.1593 25.9582 81.3061 25.0361C80.452 24.1139 79.3096 23.6519 77.8816 23.6519C76.4519 23.6519 75.3113 24.1139 74.4572 25.0361C73.6031 25.9582 73.177 27.1914 73.177 28.7346C73.177 30.2778 73.6031 31.5101 74.4572 32.4322C75.3113 33.3553 76.4519 33.8155 77.8816 33.8155C79.3096 33.8155 80.452 33.3553 81.3061 32.4322ZM71.4138 35.2238C69.6462 33.5135 68.7624 31.351 68.7624 28.7346C68.7624 26.1182 69.6462 23.9584 71.4138 22.2561C73.1797 20.553 75.3455 19.7023 77.9069 19.7023C80.4682 19.7023 82.625 20.553 84.3747 22.2561C86.1261 23.9584 87 26.1182 87 28.7346C87 31.351 86.1207 33.5135 84.363 35.2238C82.6034 36.935 80.4475 37.7911 77.8943 37.7911C75.341 37.7911 73.1797 36.935 71.4138 35.2238Z" fill="#202020"/>
<path d="M33.1925 8.86758V7.02858H41.0955V8.86758H38.3557V16.9608H35.9169V8.86758H33.1925Z" fill="#202020"/>
<path d="M48.7119 7.02858H51.1517V16.9608H48.7119V12.844H44.8469V16.9608H42.4072V7.02858H44.8469V11.0041H48.7119V7.02858Z" fill="#202020"/>
<path d="M59.2109 7V8.83988H55.5874V10.9764H58.783V12.8154H55.5874V15.1218H59.2109V16.9608H53.1477V7H59.2109Z" fill="#202020"/>
<path d="M20.0073 46.5803C19.8443 46.5803 19.71 46.6232 19.6064 46.7099C19.5019 46.7957 19.4497 46.919 19.4497 47.0798C19.4497 47.2416 19.4992 47.3711 19.5947 47.4703C19.692 47.5686 19.8181 47.6446 19.9722 47.6964C20.1281 47.75 20.301 47.8009 20.492 47.8483C20.6821 47.8965 20.8713 47.9537 21.0596 48.0225C21.2479 48.0904 21.42 48.1753 21.575 48.2754C21.7299 48.3773 21.856 48.5194 21.9524 48.7034C22.0497 48.8875 22.0975 49.1082 22.0975 49.3656C22.0975 49.8151 21.9128 50.1984 21.5443 50.5201C21.1759 50.84 20.6902 51 20.0866 51C19.4839 51 18.9992 50.8561 18.6307 50.5684C18.2613 50.2806 18.0775 49.8723 18.0775 49.3424H19.4659C19.501 49.7668 19.7199 49.9786 20.1218 49.9786C20.3092 49.9786 20.4569 49.9286 20.5641 49.8303C20.6713 49.7329 20.7245 49.6078 20.7245 49.4558C20.7245 49.3048 20.6758 49.1815 20.5794 49.085C20.4821 48.9903 20.3569 48.9143 20.2019 48.858C20.0461 48.8035 19.874 48.7517 19.683 48.7034C19.492 48.6561 19.3028 48.5962 19.1145 48.5256C18.9262 48.455 18.755 48.3701 18.5991 48.2718C18.4442 48.1736 18.3181 48.0324 18.2226 47.8483C18.1253 47.6642 18.0775 47.4462 18.0775 47.1942C18.0775 46.6991 18.2622 46.3042 18.6343 46.0057C19.0046 45.7082 19.4794 45.5598 20.0569 45.5598C20.6335 45.5598 21.1011 45.6894 21.4569 45.9494C21.8119 46.2086 21.9984 46.6187 22.0137 47.1781H20.5948C20.574 46.9869 20.5119 46.8394 20.4074 46.7358C20.3037 46.6321 20.1704 46.5803 20.0073 46.5803Z" fill="#202020"/>
<path d="M27.6432 46.6184V45.6354H31.8686V46.6184H30.4046V50.946H29.1V46.6184H27.6432Z" fill="#202020"/>
<path d="M37.5083 48.8062V45.6358H38.8119V48.8062C38.8119 49.1234 38.8903 49.3683 39.0479 49.539C39.2065 49.7105 39.438 49.7972 39.7425 49.7972C40.048 49.7972 40.2813 49.7105 40.4444 49.539C40.6075 49.3683 40.6885 49.1234 40.6885 48.8062V45.6358H41.9931V48.8062C41.9931 49.2744 41.8823 49.6792 41.6615 50.0197C41.4408 50.3602 41.1606 50.6086 40.8228 50.7649C40.484 50.9222 40.1164 51 39.72 51C39.0993 51 38.5749 50.8087 38.1479 50.4245C37.7208 50.0411 37.5083 49.5023 37.5083 48.8062Z" fill="#202020"/>
<path d="M49.2941 49.9631H49.8734C50.3716 49.9631 50.7644 49.812 51.0482 49.5091C51.3329 49.2062 51.4762 48.8005 51.4762 48.2903C51.4762 47.7809 51.3329 47.3752 51.0482 47.0723C50.7644 46.7694 50.3716 46.6184 49.8734 46.6184H49.2941V49.9631ZM49.8734 45.6354C50.7284 45.6354 51.4302 45.8803 51.9788 46.3726C52.5284 46.865 52.8032 47.503 52.8032 48.2876C52.8032 49.0704 52.5284 49.7102 51.9788 50.2052C51.4302 50.6994 50.7284 50.946 49.8734 50.946H47.9895V45.6354H49.8734Z" fill="#202020"/>
<path d="M58.5087 50.946V45.6354H59.8141V50.946H58.5087Z" fill="#202020"/>
<path d="M69.3011 49.3879C69.5579 49.11 69.6867 48.7392 69.6867 48.2754C69.6867 47.8117 69.5579 47.4408 69.3011 47.1638C69.0444 46.8859 68.7011 46.7474 68.2713 46.7474C67.8416 46.7474 67.4984 46.8859 67.2416 47.1638C66.9848 47.4408 66.856 47.8117 66.856 48.2754C66.856 48.7392 66.9848 49.11 67.2416 49.3879C67.4984 49.6658 67.8416 49.8043 68.2713 49.8043C68.7011 49.8043 69.0444 49.6658 69.3011 49.3879ZM66.3253 50.2279C65.7938 49.7132 65.528 49.0627 65.528 48.2754C65.528 47.4891 65.7938 46.8394 66.3253 46.3274C66.8569 45.8163 67.5083 45.5598 68.2786 45.5598C69.0498 45.5598 69.6975 45.8163 70.2237 46.3274C70.7507 46.8394 71.0138 47.4891 71.0138 48.2754C71.0138 49.0627 70.7489 49.7132 70.2201 50.2279C69.6913 50.7426 69.0426 51 68.275 51C67.5074 51 66.8569 50.7426 66.3253 50.2279Z" fill="#202020"/>
</g>
<defs>
<filter id="filter0_f_1_4449" x="0" y="0" width="94" height="58" filterUnits="userSpaceOnUse" color-interpolation-filters="sRGB">
<feFlood flood-opacity="0" result="BackgroundImageFix"/>
<feBlend mode="normal" in="SourceGraphic" in2="BackgroundImageFix" result="shape"/>
<feGaussianBlur stdDeviation="3.5" result="effect1_foregroundBlur_1_4449"/>
</filter>
</defs>
</svg>
