<svg width="86" height="62" viewBox="0 0 86 62" fill="none" xmlns="http://www.w3.org/2000/svg">
<g filter="url(#filter0_f_1_4437)">
<path d="M9.0434 37.1402L7 14.2759L15.0102 13.5603C17.785 13.3124 19.9374 13.6583 21.4673 14.598C22.9963 15.5272 23.8525 17.0178 24.0359 19.0697C24.136 20.1899 23.9365 21.2049 23.4373 22.1148C22.9372 23.0143 22.1918 23.7087 21.2012 24.1982C22.4002 24.3866 23.3745 24.8958 24.1241 25.7258C24.8843 26.5548 25.3219 27.6132 25.437 28.9009C25.6334 31.0994 25.0807 32.8266 23.7786 34.0826C22.4766 35.3386 20.5281 36.0931 17.9332 36.346L9.0434 37.1402ZM12.8655 26.7633L13.4171 32.9347L17.4536 32.5741C18.5635 32.4749 19.404 32.136 19.975 31.5574C20.5555 30.9674 20.8041 30.2065 20.7209 29.2747C20.5337 27.1809 19.355 26.2151 17.1847 26.3774L12.8655 26.7633ZM12.568 23.4341L16.0548 23.1226C18.4279 22.8684 19.5317 21.8148 19.3661 19.9618C19.2735 18.9253 18.9034 18.2091 18.2558 17.8132C17.6178 17.4059 16.6496 17.2603 15.3513 17.3763L12.0529 17.6709L12.568 23.4341Z" fill="#202020"/>
<path d="M39.1367 34.4517C38.8908 34.0621 38.6936 33.568 38.5451 32.9692C37.5551 34.2923 36.1806 35.0324 34.4214 35.1896C32.7566 35.3383 31.3314 34.9802 30.1459 34.1153C28.9708 33.2494 28.3178 32.0837 28.1868 30.618C28.0259 28.8173 28.5673 27.376 29.811 26.2941C31.0652 25.2112 32.9536 24.5518 35.4761 24.3159L37.5651 24.1292L37.478 23.1556C37.4079 22.3705 37.1476 21.7606 36.6971 21.3259C36.2571 20.8904 35.6025 20.7114 34.7335 20.7891C33.9691 20.8573 33.3834 21.0943 32.9764 21.5C32.5798 21.9048 32.4101 22.4265 32.4671 23.0651L27.928 23.4706C27.8401 22.4865 28.0623 21.5486 28.5948 20.6568C29.1272 19.7651 29.9274 19.034 30.9952 18.4638C32.0621 17.8831 33.2866 17.5309 34.6687 17.4075C36.7629 17.2204 38.4698 17.6008 39.7894 18.5487C41.1185 19.4852 41.8682 20.9062 42.0385 22.8115L42.6967 30.1765C42.8512 31.7877 43.1854 32.9873 43.6991 33.775L43.7229 34.042L39.1367 34.4517ZM35.1008 31.6307C35.7709 31.5708 36.3756 31.3691 36.9148 31.0254C37.4531 30.6713 37.8359 30.2308 38.0633 29.704L37.8022 26.7831L36.106 26.9347C33.8338 27.1377 32.6946 28.0309 32.6883 29.6143L32.6965 29.8827C32.747 30.448 32.9876 30.8961 33.4182 31.227C33.8489 31.5579 34.4097 31.6924 35.1008 31.6307Z" fill="#202020"/>
<path d="M55.3186 28.2732C55.269 27.7184 54.9527 27.3087 54.3697 27.0442C53.7962 26.7683 52.8909 26.559 51.6539 26.4162C47.5363 25.9293 45.362 24.393 45.1309 21.8071C44.9962 20.2996 45.5069 18.9876 46.6631 17.8713C47.8289 16.7436 49.4222 16.0894 51.4431 15.9089C53.6001 15.7162 55.3679 16.07 56.7466 16.9705C58.1357 17.87 58.9028 19.131 59.0478 20.7537L54.5087 21.1593C54.4507 20.5102 54.1936 19.995 53.7373 19.6136C53.2801 19.2218 52.6065 19.0657 51.7165 19.1452C50.9521 19.2135 50.3759 19.4391 49.988 19.822C49.6 20.2049 49.4299 20.6633 49.4776 21.1972C49.5225 21.6997 49.7946 22.0869 50.2939 22.3589C50.8026 22.6195 51.6328 22.8144 52.7842 22.9437C53.9347 23.0625 54.91 23.2286 55.7101 23.4421C58.1865 24.1073 59.5216 25.5234 59.7153 27.6905C59.8537 29.2399 59.3011 30.5556 58.0574 31.6375C56.8127 32.709 55.1381 33.3388 53.0334 33.5268C51.6094 33.654 50.32 33.5159 49.1651 33.1126C48.0198 32.6978 47.0938 32.0788 46.3869 31.2555C45.6792 30.4218 45.2794 29.492 45.1877 28.466L49.4913 28.0815C49.6052 28.8839 49.9588 29.4749 50.5521 29.8546C51.1454 30.2342 51.9081 30.3824 52.84 30.2991C53.709 30.2215 54.349 30.0008 54.7597 29.6369C55.18 29.2617 55.3663 28.8071 55.3186 28.2732Z" fill="#202020"/>
<path d="M67.8792 31.8839L63.3244 32.2908L61.8059 15.2996L66.3607 14.8927L67.8792 31.8839ZM61.1459 10.9265C61.0851 10.246 61.2602 9.66583 61.6711 9.18591C62.0925 8.70505 62.6959 8.42954 63.4812 8.35938C64.2561 8.29016 64.8935 8.45481 65.3935 8.85335C65.8935 9.25189 66.1739 9.7914 66.2348 10.4719C66.2965 11.1628 66.1114 11.7492 65.6795 12.231C65.2581 12.7119 64.6652 12.9864 63.9008 13.0547C63.1365 13.123 62.499 12.9584 61.9886 12.5608C61.4885 12.1622 61.2077 11.6175 61.1459 10.9265Z" fill="#202020"/>
<path d="M76.4235 31.1206L71.8686 31.5275L69.7129 7.40692L74.2678 7L76.4235 31.1206Z" fill="#202020"/>
<path d="M79 38.4147C67.7753 41.085 56.4082 43.1918 44.9501 44.631C42.0863 44.9968 39.2191 45.3361 36.3454 45.6208C33.4723 45.9009 30.5933 46.1276 27.713 46.322C24.83 46.4854 21.9457 46.6179 19.0594 46.6877C16.1732 46.7517 13.2856 46.7319 10.4006 46.726L10.4 46.6601L19.041 46.2291C21.9187 46.0617 24.7957 45.8963 27.6681 45.6643C30.5438 45.4726 33.4163 45.2485 36.2847 44.9711C39.1558 44.7285 42.023 44.4313 44.8862 44.1071C50.6132 43.4488 56.3225 42.6336 62.006 41.6616C67.6916 40.7041 73.354 39.5983 78.9855 38.3508L79 38.4147Z" fill="#202020"/>
<path d="M42.84 51.7412L42.8597 52.2448L41.167 52.3111L41.1999 53.1505L42.7202 53.091L42.7388 53.5674L41.2185 53.6269L41.2518 54.4754L42.999 54.407L43.0187 54.9106L40.736 55L40.6118 51.8284L42.84 51.7412Z" fill="#202020"/>
<path d="M46.7913 51.9242C46.6372 51.9351 46.5126 51.9758 46.4174 52.0463C46.3222 52.1167 46.2792 52.2169 46.2884 52.3467C46.2974 52.4735 46.3541 52.5681 46.4587 52.6306C46.5631 52.6899 46.7796 52.7475 47.1083 52.8032C47.4401 52.8586 47.6925 52.9516 47.8656 53.082C48.0418 53.2122 48.1396 53.4162 48.1593 53.694C48.1787 53.9688 48.0903 54.1996 47.8941 54.3864C47.6978 54.5733 47.4306 54.6786 47.0923 54.7025C46.597 54.7375 46.1455 54.598 45.7378 54.2838L46.0446 53.857C46.3843 54.1122 46.7264 54.2277 47.0707 54.2033C47.2429 54.1912 47.3762 54.1453 47.4707 54.0658C47.5681 53.9831 47.6125 53.8813 47.604 53.7605C47.5952 53.6367 47.5402 53.545 47.4388 53.4854C47.3403 53.4226 47.1728 53.3722 46.9364 53.3343C46.6998 53.2933 46.5195 53.2545 46.3955 53.2177C46.2713 53.1779 46.1597 53.1236 46.0607 53.0547C45.8634 52.926 45.7544 52.7152 45.7337 52.4223C45.713 52.1294 45.8029 51.897 46.0032 51.725C46.2063 51.5498 46.4649 51.4511 46.779 51.4289C46.9814 51.4146 47.1846 51.4337 47.3886 51.486C47.5926 51.5384 47.7714 51.6198 47.9249 51.7304L47.668 52.1536C47.5684 52.0757 47.4366 52.0152 47.2727 51.9722C47.1088 51.9291 46.9483 51.9132 46.7913 51.9242Z" fill="#202020"/>
<path d="M51.9195 51.5517L52.1903 54.2216L51.6571 54.2757L51.3863 51.6057L50.4284 51.7029L50.3789 51.215L52.8279 50.9667L52.8774 51.4546L51.9195 51.5517Z" fill="#202020"/>
<path d="M59.7879 51.8053C59.9665 51.5567 60.0911 51.3641 60.1617 51.2274C60.2322 51.0907 60.2576 50.9596 60.2379 50.834C60.2183 50.7083 60.1538 50.6097 60.0445 50.5379C59.9347 50.4632 59.8065 50.4373 59.66 50.4603C59.4027 50.5005 59.2094 50.6656 59.0802 50.9555L58.6152 50.7755C58.7205 50.5476 58.8472 50.3684 58.9953 50.238C59.1465 50.1071 59.3521 50.0213 59.6124 49.9805C59.8756 49.9393 60.1191 49.987 60.3427 50.1235C60.5659 50.2571 60.7 50.4675 60.745 50.7546C60.7703 50.9161 60.7525 51.0766 60.6917 51.2363C60.6309 51.396 60.5064 51.6085 60.3181 51.8739L59.6996 52.7383L61.122 52.5156L61.2014 53.0225L59.0566 53.3584L58.9863 52.9098L59.7879 51.8053Z" fill="#202020"/>
<path d="M64.0282 50.0157C63.9476 50.2532 63.9408 50.5459 64.0079 50.8937C64.0749 51.2414 64.1901 51.5106 64.3532 51.7011C64.5194 51.8911 64.7332 51.9608 64.9949 51.9104C65.2565 51.86 65.4264 51.7178 65.5046 51.4838C65.5852 51.2463 65.5917 50.9521 65.5241 50.6014C65.4565 50.2506 65.3414 49.9815 65.1788 49.7939C65.0186 49.6028 64.8077 49.5325 64.546 49.5829C64.2844 49.6334 64.1118 49.7776 64.0282 50.0157ZM64.0431 52.1077C63.7753 51.8541 63.5941 51.4821 63.4995 50.9917C63.4049 50.5012 63.4351 50.09 63.59 49.758C63.7443 49.423 64.0341 49.2146 64.4592 49.1326C64.8843 49.0507 65.2308 49.1365 65.4987 49.3901C65.7659 49.6407 65.9468 50.0112 66.0414 50.5017C66.136 50.9921 66.1061 51.4048 65.9518 51.7398C65.7969 52.0718 65.5068 52.2788 65.0817 52.3607C64.6566 52.4427 64.3104 52.3583 64.0431 52.1077Z" fill="#202020"/>
<path d="M68.0953 48.4583L69.22 48.2018L69.926 51.2964L69.43 51.4095L68.8301 48.7798L68.2013 48.9232L68.0953 48.4583Z" fill="#202020"/>
<path d="M73.5109 49.9492C73.7831 49.877 73.9591 49.7316 74.0389 49.5131C74.1187 49.2945 74.1184 49.0284 74.0382 48.7145C73.9868 48.8159 73.9021 48.9214 73.7839 49.031C73.6651 49.1378 73.5222 49.2133 73.3554 49.2576C73.0803 49.3306 72.8251 49.3013 72.5896 49.1696C72.3563 49.0343 72.1996 48.8159 72.1196 48.5146C72.0387 48.2103 72.0733 47.9396 72.2234 47.7024C72.3763 47.4645 72.605 47.3051 72.9093 47.2243C73.4009 47.0937 73.7987 47.223 74.1025 47.6122C74.2747 47.8358 74.4028 48.1056 74.4867 48.4216C74.5706 48.7376 74.6069 49.0098 74.5956 49.2384C74.5842 49.4669 74.5363 49.6581 74.4519 49.8121C74.2874 50.1126 74.0383 50.3072 73.7047 50.3958C73.3741 50.4836 73.0465 50.4594 72.7221 50.3231L72.8797 49.8725C72.9625 49.9132 73.0658 49.9421 73.1894 49.9594C73.316 49.9759 73.4231 49.9725 73.5109 49.9492ZM73.3 48.7837C73.4785 48.7363 73.6135 48.6488 73.7049 48.5211C73.7984 48.3898 73.8246 48.2466 73.7834 48.0915C73.7415 47.9335 73.6487 47.8141 73.505 47.7332C73.3606 47.6494 73.202 47.6305 73.0294 47.6763C72.8596 47.7214 72.7328 47.8099 72.6488 47.9418C72.564 48.0708 72.5426 48.2143 72.5846 48.3723C72.6265 48.5303 72.7116 48.6502 72.8399 48.732C72.9711 48.8131 73.1244 48.8303 73.3 48.7837Z" fill="#202020"/>
</g>
<defs>
<filter id="filter0_f_1_4437" x="0" y="0" width="86" height="62" filterUnits="userSpaceOnUse" color-interpolation-filters="sRGB">
<feFlood flood-opacity="0" result="BackgroundImageFix"/>
<feBlend mode="normal" in="SourceGraphic" in2="BackgroundImageFix" result="shape"/>
<feGaussianBlur stdDeviation="3.5" result="effect1_foregroundBlur_1_4437"/>
</filter>
</defs>
</svg>
