<svg width="113" height="40" viewBox="0 0 113 40" fill="none" xmlns="http://www.w3.org/2000/svg">
<g filter="url(#filter0_f_1_4455)">
<path d="M11.5189 11.7048V13.825C12.453 12.3081 13.9408 11.5497 15.9853 11.5497C17.6769 11.5497 19.0465 12.1015 20.0951 13.2043C21.1427 14.307 21.6683 15.8065 21.6683 17.7025V26.1298H17.1738V18.2966C17.1738 17.3665 16.9231 16.6466 16.4209 16.1388C15.9196 15.6301 15.2278 15.3758 14.3463 15.3758C13.4658 15.3758 12.774 15.6301 12.2718 16.1388C11.7705 16.6466 11.5189 17.3665 11.5189 18.2966V26.1298H7V11.7048H11.5189Z" fill="#202020"/>
<path d="M34.2208 21.5545C34.8722 20.9338 35.1989 20.0551 35.1989 18.9175C35.1989 17.7798 34.8722 16.9057 34.2208 16.2942C33.5693 15.6826 32.8202 15.376 31.9744 15.376C31.1286 15.376 30.3795 15.6863 29.7271 16.3061C29.0766 16.9268 28.7499 17.8064 28.7499 18.9432C28.7499 20.0808 29.0766 20.9559 29.7271 21.5674C30.3795 22.1789 31.1286 22.4847 31.9744 22.4847C32.8202 22.4847 33.5693 22.1752 34.2208 21.5545ZM26.1074 24.2431C24.8026 22.8639 24.1512 21.0973 24.1512 18.9432C24.1512 16.7891 24.8026 15.0188 26.1074 13.6314C27.4104 12.244 29.0015 11.5498 30.878 11.5498C32.7535 11.5498 34.1945 12.2312 35.1989 13.5919V11.705H39.7188V26.1299H35.1989V24.0365C34.1062 25.5533 32.6437 26.3108 30.8113 26.3108C28.979 26.3108 27.4104 25.6222 26.1074 24.2431Z" fill="#202020"/>
<path d="M49.6824 22.3817H51.2942V26.1298H48.9952C47.3384 26.1298 46.0571 25.7726 45.1493 25.0564C44.2416 24.342 43.7882 23.1144 43.7882 21.3735V15.3758H42.4139V11.7048H43.7882V8.18904H48.3081V11.7048H51.2678V15.3758H48.3081V21.3735C48.3081 22.0456 48.7653 22.3817 49.6824 22.3817Z" fill="#202020"/>
<path d="M64.1382 11.705H68.6572V26.13H64.1382V24.0099C63.2042 25.5276 61.7154 26.2851 59.6718 26.2851C57.9803 26.2851 56.6097 25.7342 55.5621 24.6305C54.5136 23.5278 53.9898 22.0284 53.9898 20.1323V11.705H58.4815V19.5382C58.4815 20.4683 58.7341 21.1882 59.2353 21.696C59.7375 22.2056 60.4294 22.459 61.3099 22.459C62.1904 22.459 62.8831 22.2056 63.3844 21.696C63.8866 21.1882 64.1382 20.4683 64.1382 19.5382V11.705Z" fill="#202020"/>
<path d="M76.8758 11.7048V14.3934C77.9337 12.4982 79.3427 11.5497 81.1047 11.5497V16.048H79.9951C78.955 16.048 78.1759 16.2894 77.6559 16.7715C77.1358 17.2545 76.8758 18.0992 76.8758 19.3048V26.1298H72.3578V11.7048H76.8758Z" fill="#202020"/>
<path d="M92.2833 21.5545C92.9348 20.9338 93.2614 20.0551 93.2614 18.9175C93.2614 17.7798 92.9348 16.9057 92.2833 16.2942C91.6318 15.6826 90.8837 15.376 90.0369 15.376C89.1912 15.376 88.442 15.6863 87.7906 16.3061C87.1391 16.9268 86.8134 17.8064 86.8134 18.9432C86.8134 20.0808 87.1391 20.9559 87.7906 21.5674C88.442 22.1789 89.1912 22.4847 90.0369 22.4847C90.8837 22.4847 91.6318 22.1752 92.2833 21.5545ZM84.17 24.2431C82.8661 22.8639 82.2137 21.0973 82.2137 18.9432C82.2137 16.7891 82.8661 15.0188 84.17 13.6314C85.4739 12.244 87.064 11.5498 88.9415 11.5498C90.817 11.5498 92.2579 12.2312 93.2614 13.5919V11.705H97.7813V26.1299H93.2614V24.0365C92.1688 25.5533 90.7063 26.3108 88.8748 26.3108C87.0415 26.3108 85.4739 25.6222 84.17 24.2431Z" fill="#202020"/>
<path d="M101.481 26.1298V7H106V26.1298H101.481Z" fill="#202020"/>
<path d="M11.8706 28.655V32.9944H11.1422V30.0222L9.78949 32.9944H9.28539L7.92614 30.0222V32.9944H7.19772V28.655H7.98343L9.54075 32.0579L11.0915 28.655H11.8706Z" fill="#202020"/>
<path d="M16.9114 32.9944V28.655H17.6389V32.9944H16.9114Z" fill="#202020"/>
<path d="M25.5978 28.6495H26.3253V32.9944H25.5978L23.4087 29.7541V32.9944H22.6812V28.6495H23.4087L25.5978 31.8825V28.6495Z" fill="#202020"/>
<path d="M33.817 28.6495V29.205H32.0935V30.5217H33.6255V31.0708H32.0935V32.438H33.817V32.9944H31.3669V28.6495H33.817Z" fill="#202020"/>
<path d="M39.523 29.2105V30.6778H40.3275C40.6034 30.6778 40.81 30.6135 40.947 30.484C41.0822 30.3555 41.1507 30.1755 41.1507 29.9442C41.1507 29.7137 41.0822 29.5328 40.947 29.4043C40.81 29.2757 40.6034 29.2105 40.3275 29.2105H39.523ZM39.523 31.2342V32.9944H38.7964V28.655H40.3275C40.8297 28.655 41.2164 28.7771 41.4887 29.0204C41.7609 29.2638 41.897 29.5732 41.897 29.9478C41.897 30.2389 41.8069 30.5015 41.6266 30.7338C41.4455 30.967 41.1667 31.1194 40.7931 31.1901L41.9674 32.9944H41.0803L39.9698 31.2342H39.523Z" fill="#202020"/>
<path d="M47.9276 31.5519H49.3892L48.6617 29.5107L47.9276 31.5519ZM49.9064 32.9944L49.5872 32.1074H47.7305L47.4113 32.9944H46.6519L48.2402 28.6495H49.0832L50.6724 32.9944H49.9064Z" fill="#202020"/>
<path d="M55.4461 28.655H56.1736V32.4508H57.6737V32.9944H55.4461V28.655Z" fill="#202020"/>
<path d="M73.3593 28.6551H74.1375L72.8242 32.9945H72.0001L71.0679 29.7101L70.0795 32.9945L69.2628 33L68.0049 28.6551H68.7775L69.6965 32.1883L70.6915 28.6551H71.5082L72.4338 32.1699L73.3593 28.6551Z" fill="#202020"/>
<path d="M79.8375 31.5519H81.2991L80.5716 29.5107L79.8375 31.5519ZM81.8163 32.9944L81.4972 32.1074H79.6395L79.3203 32.9944H78.5608L80.1492 28.6495H80.9921L82.5814 32.9944H81.8163Z" fill="#202020"/>
<path d="M87.126 29.2105V28.655H90.2209V29.2105H89.0409V32.9944H88.3134V29.2105H87.126Z" fill="#202020"/>
<path d="M97.4903 28.6495V29.205H95.7668V30.5217H97.2988V31.0708H95.7668V32.438H97.4903V32.9944H95.0393V28.6495H97.4903Z" fill="#202020"/>
<path d="M103.195 29.2105V30.6778H104C104.276 30.6778 104.482 30.6135 104.618 30.484C104.755 30.3555 104.823 30.1755 104.823 29.9442C104.823 29.7137 104.755 29.5328 104.618 29.4043C104.482 29.2757 104.276 29.2105 104 29.2105H103.195ZM103.195 31.2342V32.9944H102.469V28.655H104C104.502 28.655 104.889 28.7771 105.161 29.0204C105.433 29.2638 105.569 29.5732 105.569 29.9478C105.569 30.2389 105.479 30.5015 105.298 30.7338C105.118 30.967 104.839 31.1194 104.465 31.1901L105.64 32.9944H104.753L103.642 31.2342H103.195Z" fill="#202020"/>
</g>
<defs>
<filter id="filter0_f_1_4455" x="0" y="0" width="113" height="40" filterUnits="userSpaceOnUse" color-interpolation-filters="sRGB">
<feFlood flood-opacity="0" result="BackgroundImageFix"/>
<feBlend mode="normal" in="SourceGraphic" in2="BackgroundImageFix" result="shape"/>
<feGaussianBlur stdDeviation="3.5" result="effect1_foregroundBlur_1_4455"/>
</filter>
</defs>
</svg>
