<svg width="96" height="65" viewBox="0 0 96 65" fill="none" xmlns="http://www.w3.org/2000/svg">
<g filter="url(#filter0_f_1_4431)">
<path d="M11.307 16.7772C12.0754 14.6078 16.7303 8.82345 17.4987 8.05572C17.8157 7.69392 18.1767 7.51231 18.6282 7.5579C25.0458 4.12374 27.5762 17.5456 24.6384 20.5283C23.8258 21.432 22.9213 21.6122 21.8374 21.4776C21.3852 21.3416 20.9329 21.2511 20.4814 21.1607C20.2549 21.1158 20.1645 21.0254 20.1645 20.7996C20.2108 19.6701 20.3005 18.495 20.3461 17.3647C20.3909 16.8228 20.4365 16.1896 20.4814 15.6476C20.5718 14.6078 20.6174 13.4783 20.6623 12.4392C20.6623 12.3032 20.6623 12.1679 20.6623 12.0775C21.1594 8.5977 18.2672 11.0832 18.1767 11.8061C18.0863 12.1679 17.8606 12.6202 17.5444 12.9812C16.9568 13.5232 16.5949 14.2012 16.2787 14.8792C15.8713 15.8734 15.375 16.7772 15.0132 17.7265C14.4705 18.9914 14.1094 20.2121 13.9285 21.5225C13.7476 22.5167 13.6123 23.4653 13.5219 24.4595C13.4314 25.364 13.1608 26.4031 13.0696 27.3525C13.0247 28.1209 13.1152 28.7982 13.1608 29.5667C13.2049 29.9285 13.2512 30.1991 13.2961 30.6065C14.019 35.6673 15.7368 32.8655 16.4148 31.058C16.7303 30.2439 16.8663 29.4762 17.0921 28.7077C17.2274 28.3459 17.2274 28.0753 17.0472 27.7135C16.6854 26.9907 17.092 26.2671 17.951 25.906C18.854 25.5442 19.8034 25.4545 20.7079 25.3184C21.7013 25.1831 22.1088 25.77 22.1992 26.5384C22.1992 26.901 22.1536 27.3525 21.9727 27.804C20.7527 30.6065 19.4423 35.0348 17.8157 36.7078C17.6348 36.7975 17.4987 37.0689 17.3634 37.2498C17.0472 37.7917 16.6398 38.0175 16.0978 37.927C15.4654 37.8366 14.9683 37.8366 14.2896 37.927C13.5674 38.0175 12.8438 37.8366 12.1658 37.566C11.8504 37.5204 11.579 37.5204 11.307 37.5204C11.0819 37.566 10.8554 37.5204 10.6304 37.4299C9.68031 37.1593 8.95747 36.5254 8.32506 35.7584C8.00885 35.4415 7.73748 35.1253 7.69188 34.6282C7.64703 34.2664 7.46686 33.9502 7.37641 33.6788C7.01461 32.5949 6.96902 31.5551 7.01461 30.516C7.01461 29.838 7.1499 29.2497 7.28521 28.5276C7.55729 27.4429 7.78234 26.4031 8.09928 25.2736C8.41549 24.3698 8.82211 23.33 9.09346 22.427C9.31922 21.8836 9.49942 21.3416 9.72592 20.8445C9.68032 20.8445 9.63547 20.8445 9.54502 20.8445C9.49943 20.9349 9.40895 21.0702 9.31924 21.2511C9.22879 21.432 9.0935 21.5681 9.00305 21.7027C9.72591 20.076 10.4488 18.4045 11.307 16.7772Z" fill="#202020"/>
<path d="M26.4914 31.8704C26.4466 32.0969 26.4465 32.3683 26.4465 32.5948C26.3561 32.6852 26.4466 32.7293 26.4914 32.8198C26.5819 33.0463 26.7627 33.272 26.9892 33.3625C27.0341 33.3625 27.0341 33.3625 27.0797 33.3176C27.1246 33.272 27.215 33.2272 27.2598 33.1823C28.0283 32.3683 28.5703 31.3285 29.0225 30.2894C29.249 29.9283 29.3387 29.5217 29.474 29.2047C28.435 28.7532 27.9386 29.1599 27.3503 29.9283C26.8539 30.6504 26.7628 31.0578 26.4914 31.8704ZM30.5138 23.0585C30.4241 22.5166 30.3329 22.1099 30.1976 21.6121C30.0616 21.1606 29.8807 20.7995 29.5652 20.5281C29.3836 20.3472 29.249 20.1215 28.9777 19.9854C28.707 19.7597 28.4805 19.5795 28.1636 19.3979C27.6216 18.9464 26.6274 19.895 26.3112 20.2119C25.0913 21.929 26.2656 24.2793 27.3959 25.4992C28.7071 28.0752 31.1014 27.1714 30.5594 24.1439C30.6491 23.7814 30.6491 23.3755 30.5138 23.0585ZM25.1361 24.8661C24.6383 24.0535 24.4132 23.0585 24.2772 22.0195C24.1426 21.251 24.3676 20.5281 24.7743 19.8053C24.8192 19.7148 24.9096 19.6244 25.0913 19.5795C25.4531 19.2633 25.9046 18.9912 26.4465 18.675C26.8539 18.4044 27.3959 18.3581 27.8923 18.4485C28.2541 18.4485 29.249 19.353 29.474 19.5339C29.7461 19.7597 30.0174 20.031 30.3329 20.2119C30.7396 20.573 31.011 20.9804 31.2375 21.5679C31.3728 21.929 31.4632 22.2459 31.6441 22.5614C31.7794 22.9688 31.8243 23.4203 31.9147 23.8718C31.9596 24.2792 31.9596 24.5954 32.05 24.9565C32.0956 25.0021 32.0956 25.0021 32.0956 25.0926C31.9596 24.3697 32.1405 25.4088 32.0956 25.5441C32.05 26.086 32.1861 26.5839 32.05 27.081C31.9147 27.3523 32.1861 27.6686 32.5471 27.6686C34.7621 27.5332 35.621 27.8494 37.7896 27.4869C38.0161 27.3965 38.2411 27.2619 38.5131 27.1258C38.6036 27.081 38.7389 26.9905 38.8293 26.9449C38.9191 27.081 38.8749 27.2619 38.8293 27.3523C38.694 27.5774 39.1456 27.6685 38.9654 27.8494C37.6087 29.2952 33.4516 29.2496 31.8243 29.2496C31.7794 29.2496 31.7338 29.2496 31.689 29.2496C31.5537 29.2496 31.4176 29.2952 31.4176 29.3856C31.4176 29.4761 31.3727 29.5217 31.3279 29.6114C31.1911 30.3798 30.7852 31.1027 30.469 31.8704C30.2425 32.4139 29.927 32.8198 29.61 33.2272C29.4291 33.4978 29.249 33.8147 28.9777 33.9956C28.8872 34.0405 28.7968 34.1309 28.6607 34.2214C28.5703 34.2662 28.4349 34.3567 28.3901 34.4927C28.0283 34.8994 27.6216 35.2156 27.1245 35.3509C27.0341 35.3509 26.8084 35.4414 26.6723 35.5318C26.0399 35.7127 25.4067 35.6671 24.8192 35.5767C24.0066 35.4862 23.4639 34.8994 23.0116 34.1309C22.8763 33.7691 22.741 33.3176 22.6057 32.9102C22.5152 32.0969 22.4697 31.2843 22.5602 30.4254C22.6506 29.5665 22.9212 28.7532 23.3278 27.9399C23.7352 26.9449 24.3228 26.086 25.0008 25.2735C25.1361 25.2279 25.1361 25.1374 25.181 25.0021C25.181 24.9565 25.181 24.9117 25.1361 24.8661Z" fill="#202020"/>
<path d="M40.7729 16.1446C40.6825 16.416 39.7787 17.772 39.6875 17.8624C39.6434 18.0875 39.553 18.4044 39.3265 18.539C39.3265 18.3581 39.3713 18.2684 39.3713 18.2684C39.7787 17.3646 40.456 16.5513 40.9979 15.6924C40.8633 15.5115 40.9538 15.5115 40.9538 15.5115C41.7223 14.5173 42.3995 13.704 42.9864 13.0715C43.0775 12.9811 43.3489 12.8906 43.3489 12.6641C43.4842 12.5296 43.4842 12.5296 43.7548 12.2126C43.3938 12.484 43.3033 12.5296 43.0776 12.7546C42.8518 12.9355 42.6253 13.0259 42.4444 13.3877C41.3149 14.6526 40.2758 16.099 39.3713 17.9529C39.236 18.539 39.1007 18.7206 38.9654 19.1265C38.8294 19.4435 38.9198 19.5795 38.8293 19.8501C38.8293 19.8501 38.8293 19.8501 38.8293 19.9855C39.1007 19.5339 39.236 19.0817 39.3713 18.7206C39.6434 18.2235 40.6368 16.6866 40.8177 16.2799L40.7729 16.1446ZM38.7389 19.0817C38.2866 19.895 37.8351 20.9804 37.5189 22.0643C37.5189 22.2004 37.5189 22.2901 37.5189 22.3364C37.8807 21.7025 38.1065 20.9804 38.3778 20.3921C38.6036 19.9854 38.7389 19.5339 38.8749 18.9912C38.8749 18.9912 38.7845 19.0368 38.7389 19.0817ZM37.3829 33.5434C37.2483 33.95 37.1123 34.4023 36.977 34.8538C36.8865 35.1252 36.8409 35.3965 36.8409 35.7127C36.7504 36.1642 36.6144 36.5709 36.5703 36.9783C36.4798 37.3393 36.3894 37.7011 36.2534 38.0622C36.3438 38.3791 36.1629 38.5145 36.118 38.7858C36.0724 38.9667 35.982 39.1469 35.9379 39.3734C35.9379 39.78 35.8019 40.0962 35.7114 40.5477C35.6658 40.7742 35.621 41.0904 35.5305 41.3618C35.4401 41.6773 35.304 42.0391 35.304 42.356C35.304 42.8075 35.2598 43.2598 35.2598 43.6208C35.2598 43.7561 35.304 43.8466 35.3496 43.9826C35.8019 44.8871 36.118 43.7113 36.2085 43.4855C36.4798 42.8531 36.2989 43.1693 36.5703 42.4921C36.7049 41.9486 36.8865 41.3162 37.0674 40.7742C37.1578 40.4132 37.2483 39.9602 37.2924 39.5991C37.4733 38.5145 37.6093 37.2938 37.7446 36.1194C37.9704 34.7178 37.9256 34.9443 38.0609 33.4978C38.197 30.7865 37.655 32.4587 37.5189 33.1367C37.4733 33.272 37.4284 33.4073 37.3829 33.5434ZM45.2469 20.7539C45.608 19.9406 46.0153 19.1265 46.3764 18.4044C46.783 17.3646 47.0551 16.416 47.1897 15.1953C47.2802 14.2915 46.8286 12.5737 46.1058 14.1562C45.9249 14.6982 45.6535 15.2409 45.4719 15.7828C45.1564 16.6417 44.8402 17.5455 44.4784 18.4949C44.388 18.8559 44.2078 19.2633 44.0717 19.7148C43.7548 20.8443 43.3033 21.8386 42.8967 22.7879C42.6709 23.4203 42.4444 24.1439 42.1282 24.7308C41.4958 26.2228 41.8568 25.5897 41.2707 27.1258C41.0443 27.6685 40.7273 28.5275 41.4053 28.7076C41.9473 28.6179 43.5298 29.3856 43.9364 29.2952C44.6137 29.2952 45.2469 29.7018 45.7889 29.5217C46.0602 29.4312 46.2867 29.3856 46.4668 29.3408C47.6876 28.9334 46.4669 29.4761 47.5971 28.7981C48.1391 28.7981 49.1333 26.6287 49.7208 26.6743C51.7093 25.6345 50.3988 27.9847 48.5913 29.3856C48.4097 29.5217 47.9133 29.7923 47.7324 29.9283C43.2128 31.555 39.3264 28.3914 39.5978 30.2438C39.6875 31.2843 39.6875 32.2778 39.7339 33.1823C39.7339 33.4073 39.6875 33.5882 39.7339 33.7691C39.6875 34.3118 39.6875 34.7178 39.6875 35.3061C39.5978 35.5767 39.5529 35.8929 39.5529 36.1194C39.4624 36.4812 39.3265 36.7974 39.3265 37.1592C39.2809 37.3842 39.1911 37.6563 39.236 37.9718C39.1455 38.2887 39.0551 38.56 39.0102 38.9667H38.9654C39.0103 38.8763 39.0102 38.8307 39.0551 38.7858C39.0551 38.6954 38.9654 38.6954 38.9654 38.7402C38.9198 38.7402 38.8749 38.8307 38.8293 38.8307C38.7845 38.8763 38.7845 38.9667 38.7845 39.0116C38.7845 39.2822 38.7845 39.5087 38.6492 39.7352C38.5588 40.0962 38.4227 40.5029 38.3778 40.8191C38.1513 41.4971 37.9704 42.1303 37.655 42.5818C37.655 42.7171 37.655 42.8075 37.655 42.898C37.655 43.2598 37.4733 43.4855 37.2924 43.6664C37.2483 43.7561 37.202 43.8466 37.1579 43.9378C36.8409 44.7055 36.5703 45.2482 36.2085 45.9262C36.0725 46.2873 35.8474 46.4682 35.5753 46.513C35.3944 46.4682 35.1694 46.5586 35.0333 46.5586C34.9429 46.5586 34.943 46.6947 34.8069 46.6491C34.6716 46.6947 34.5363 46.6947 34.4458 46.7395C34.1296 46.8756 33.7678 46.7395 33.4965 46.513C33.3612 46.4226 33.0898 46.1512 32.9089 45.9711C32.5934 45.6549 32.3221 45.1122 32.3221 44.5246C32.2317 44.3444 32.1861 44.1635 32.0956 43.9826C31.9596 43.4407 31.9154 42.8075 31.9154 42.1751C31.9154 41.5427 31.8698 40.7742 31.9595 39.9602C31.9595 39.9602 32.0058 39.9153 32.0058 39.8705C31.8698 39.0564 32.0956 38.2887 32.2316 37.4746C32.5022 36.3451 32.7743 35.1707 33.0898 34.0861C33.1354 33.7691 33.1354 33.5434 33.2259 33.272C33.2707 33.0007 33.3163 32.7757 33.4068 32.5948C33.4068 32.3234 33.542 32.0969 33.6325 31.8263C33.6325 31.7359 33.6774 31.5998 33.723 31.4652C33.9031 30.9225 34.0391 30.4703 34.1296 29.9732C34.4458 28.8437 34.5363 28.6628 35.1694 27.081C35.2136 26.8545 35.3944 26.7199 35.3944 26.4934C35.5753 25.5897 38.1969 19.5795 40.0949 15.9181C40.1853 15.7828 39.0102 17.1844 39.1007 17.0476C39.236 16.777 40.5464 15.0151 40.7273 14.743C41.4509 13.5686 41.7664 13.2524 42.1738 13.162C42.49 12.845 43.2129 12.1678 43.6195 11.8516C44.1622 11.3537 45.3822 10.9926 45.9698 11.2184C46.1499 11.2633 46.3308 11.3537 46.5117 11.3089C47.1897 11.3993 47.6876 11.806 48.1391 12.2126C48.1391 12.3487 48.3192 12.4391 48.4553 12.62C48.5913 13.2068 49.0429 13.7944 48.862 14.6077C49.1333 15.3762 48.9979 15.9181 48.7266 16.6866C48.0934 18.2235 47.3706 19.6244 46.3764 20.9804C46.2866 21.251 46.0602 21.4319 45.7889 21.5679C45.4719 21.7481 45.1564 21.8386 44.7946 22.0643C44.8858 21.5223 45.066 21.1157 45.2469 20.7539Z" fill="#202020"/>
<path d="M52.1168 16.1446C52.0256 16.416 51.1226 17.772 51.0314 17.8624C50.9865 18.0875 50.8961 18.4044 50.6703 18.539C50.6703 18.3581 50.7151 18.2684 50.7151 18.2684C51.1225 17.3646 51.7998 16.5513 52.3418 15.6924C52.2072 15.5115 52.2977 15.5115 52.2977 15.5115C53.0661 14.5173 53.7426 13.704 54.3302 13.0715C54.4206 12.9811 54.692 12.8906 54.692 12.6641C54.828 12.5296 54.828 12.5296 55.0987 12.2126C54.7376 12.484 54.6472 12.5296 54.4207 12.7546C54.1956 12.9355 53.9691 13.0259 53.7882 13.3877C52.6587 14.6526 51.6189 16.099 50.7151 17.9529C50.5798 18.539 50.4445 18.7206 50.3085 19.1265C50.1732 19.4435 50.2637 19.5795 50.1732 19.8501C50.1732 19.8501 50.1732 19.8501 50.1732 19.9855C50.4446 19.5339 50.5798 19.0817 50.7151 18.7206C50.9865 18.2235 51.9807 16.6866 52.1616 16.2799L52.1168 16.1446ZM50.0827 19.0817C49.6305 19.895 49.1782 20.9804 48.8628 22.0643C48.8628 22.2004 48.8628 22.2901 48.8628 22.3364C49.2238 21.7025 49.4503 20.9804 49.7216 20.3921C49.9467 19.9854 50.0827 19.5339 50.218 18.9912C50.218 18.9912 50.1276 19.0368 50.0827 19.0817ZM48.7267 33.5434C48.5921 33.95 48.4554 34.4023 48.3201 34.8538C48.2296 35.1252 48.1848 35.3965 48.1848 35.7127C48.0943 36.1642 47.9583 36.5709 47.9134 36.9783C47.8237 37.3393 47.7332 37.7011 47.5972 38.0622C47.6877 38.3791 47.5067 38.5145 47.4611 38.7858C47.4163 38.9667 47.3259 39.1469 47.281 39.3734C47.281 39.78 47.1449 40.0962 47.0552 40.5477C47.0096 40.7742 46.9648 41.0904 46.8743 41.3618C46.7839 41.6773 46.6478 42.0391 46.6478 42.356C46.6478 42.8075 46.6022 43.2598 46.6022 43.6208C46.6022 43.7561 46.6478 43.8466 46.6934 43.9826C47.145 44.8871 47.4612 43.7113 47.5516 43.4855C47.8237 42.8531 47.6428 43.1693 47.9134 42.4921C48.0487 41.9486 48.2296 41.3162 48.4105 40.7742C48.5017 40.4132 48.5921 39.9602 48.6363 39.5991C48.8172 38.5145 48.9532 37.2938 49.0878 36.1194C49.3143 34.7178 49.2687 34.9443 49.4047 33.4978C49.5408 30.7865 48.9981 32.4587 48.8628 33.1367C48.8172 33.272 48.7723 33.4073 48.7267 33.5434ZM56.5907 20.7539C56.9518 19.9406 57.3585 19.1265 57.7203 18.4044C58.1262 17.3646 58.3982 16.416 58.5336 15.1953C58.624 14.2915 58.1725 12.5737 57.4489 14.1562C57.268 14.6982 56.9973 15.2409 56.8157 15.7828C56.4995 16.6417 56.1833 17.5455 55.8222 18.4949C55.7318 18.8559 55.5502 19.2633 55.4148 19.7148C55.0986 20.8443 54.6471 21.8386 54.2405 22.7879C54.0147 23.4203 53.7882 24.1439 53.472 24.7308C52.8396 26.2228 53.2007 25.5897 52.6131 27.1258C52.3881 27.6685 52.0711 28.5275 52.7491 28.7076C53.2911 28.6179 54.8729 29.3856 55.2796 29.2952C55.9576 29.2952 56.5907 29.7018 57.1327 29.5217C57.404 29.4312 57.6298 29.3856 57.8107 29.3408C59.0307 28.9334 57.8107 29.4761 58.9409 28.7981C59.4829 28.7981 60.4771 26.6287 61.064 26.6743C63.0531 25.6345 61.7419 27.9847 59.9344 29.3856C59.7535 29.5217 59.2564 29.7923 59.0755 29.9283C54.5567 31.555 50.6703 28.3914 50.9409 30.2438C51.0313 31.2843 51.0313 32.2778 51.0762 33.1823C51.0762 33.4073 51.0313 33.5882 51.0762 33.7691C51.0313 34.3118 51.0314 34.7178 51.0314 35.3061C50.9409 35.5767 50.896 35.8929 50.896 36.1194C50.8056 36.4812 50.6703 36.7974 50.6703 37.1592C50.6247 37.3842 50.5342 37.6563 50.5798 37.9718C50.4894 38.2887 50.399 38.56 50.3541 38.9667H50.3085C50.3541 38.8763 50.3541 38.8307 50.3989 38.7858C50.3989 38.6954 50.3085 38.6954 50.3085 38.7402C50.2636 38.7402 50.2181 38.8307 50.1732 38.8307C50.1276 38.8763 50.1276 38.9667 50.1276 39.0116C50.1276 39.2822 50.1276 39.5087 49.9923 39.7352C49.9026 40.0962 49.7658 40.5029 49.7216 40.8191C49.4952 41.4971 49.3143 42.1303 48.9981 42.5818C48.9981 42.7171 48.9981 42.8075 48.9981 42.898C48.9981 43.2598 48.8172 43.4855 48.6363 43.6664C48.5921 43.7561 48.5458 43.8466 48.5017 43.9378C48.1847 44.7055 47.9134 45.2482 47.5516 45.9262C47.4163 46.2873 47.1906 46.4682 46.9192 46.513C46.7383 46.4682 46.5125 46.5586 46.3765 46.5586C46.2867 46.5586 46.2868 46.6947 46.1507 46.6491C46.0154 46.6947 45.8801 46.6947 45.7897 46.7395C45.4727 46.8756 45.1117 46.7395 44.8403 46.513C44.7043 46.4226 44.4336 46.1512 44.2527 45.9711C43.9365 45.6549 43.6652 45.1122 43.6652 44.5246C43.5748 44.3444 43.5299 44.1635 43.4394 43.9826C43.3034 43.4407 43.2593 42.8075 43.2593 42.1751C43.2593 41.5427 43.2129 40.7742 43.3034 39.9602C43.3034 39.9602 43.349 39.9153 43.349 39.8705C43.2129 39.0564 43.4394 38.2887 43.5747 37.4746C43.8454 36.3451 44.1181 35.1707 44.4336 34.0861C44.4792 33.7691 44.4793 33.5434 44.5697 33.272C44.6138 33.0007 44.6602 32.7757 44.7499 32.5948C44.7499 32.3234 44.8859 32.0969 44.9763 31.8263C44.9763 31.7359 45.0212 31.5998 45.0661 31.4652C45.247 30.9225 45.3822 30.4703 45.4727 29.9732C45.7896 28.8437 45.8801 28.6628 46.5125 27.081C46.5574 26.8545 46.7383 26.7199 46.7383 26.4934C46.9192 25.5897 49.5408 19.5795 51.4388 15.9181C51.5292 15.7828 50.3541 17.1844 50.4445 17.0476C50.5798 16.777 51.8903 15.0151 52.0712 14.743C52.794 13.5686 53.1102 13.2524 53.5176 13.162C53.8331 12.845 54.5567 12.1678 54.9634 11.8516C55.5061 11.3537 56.7253 10.9926 57.3136 11.2184C57.4938 11.2633 57.6747 11.3537 57.8556 11.3089C58.5336 11.3993 59.0307 11.806 59.4829 12.2126C59.4829 12.3487 59.6631 12.4391 59.7991 12.62C59.9344 13.2068 60.3867 13.7944 60.2058 14.6077C60.4771 15.3762 60.3411 15.9181 60.0705 16.6866C59.4373 18.2235 58.7145 19.6244 57.7203 20.9804C57.6298 21.251 57.404 21.4319 57.1327 21.5679C56.8158 21.7481 56.4995 21.8386 56.1384 22.0643C56.2289 21.5223 56.4091 21.1157 56.5907 20.7539Z" fill="#202020"/>
<path d="M78.6891 28.7981C79.0054 28.7981 79.276 28.7077 79.4569 28.4363C79.7283 28.0753 80.0445 27.7591 80.271 27.3068C80.4967 26.8104 80.7673 26.3126 80.9938 25.7699L81.2652 25.1375L81.6718 23.5564L81.8975 22.3365V21.9291C81.8975 21.793 81.7623 21.7482 81.6262 21.8386L81.5358 21.9291C81.1747 22.246 80.9034 22.6975 80.7673 23.1491C80.5864 23.7373 80.3614 24.2793 80.0445 24.7757C79.7283 25.364 79.3664 25.9059 79.0053 26.403C78.5987 26.9906 78.2825 27.6686 77.9656 28.301C77.9207 28.3915 77.8751 28.5275 77.9207 28.6628C78.192 28.7077 78.4178 28.7981 78.6891 28.7981ZM67.074 22.5615C66.6225 22.6975 66.2159 22.8785 65.8541 23.2395L65.2217 23.7815C65.0856 23.8719 64.9511 24.008 64.8606 24.144C64.5437 24.5051 64.2731 24.8661 64.0017 25.2279L63.2781 26.3126L63.1884 26.4935C63.2781 26.5384 63.3237 26.584 63.3685 26.584C64.0017 26.6744 64.5885 26.6288 65.2217 26.4935C65.5379 26.4031 65.81 26.2229 65.9902 25.9059C66.6226 25.0478 66.9844 24.0984 67.255 23.0586C67.255 22.9226 67.3006 22.7424 67.2108 22.5615C67.1645 22.5615 67.1204 22.5166 67.074 22.5615ZM64.3635 28.5724C64.2275 28.5275 64.0466 28.4819 63.9112 28.3459C63.5494 28.0753 63.1428 27.8039 62.8722 27.3965C62.8722 27.3524 62.8266 27.3524 62.7362 27.3068C62.6906 27.3524 62.6464 27.3524 62.6464 27.3965C62.3295 27.8944 62.0133 28.3459 61.878 28.9335C61.8317 28.979 61.8317 29.0239 61.8317 29.0695C61.6971 29.5217 61.7412 29.9284 62.0581 30.2895C62.5104 30.8322 62.9626 31.3285 63.5494 31.6903C63.7752 31.9168 64.0466 32.0514 64.3179 32.233C64.6797 32.5492 65.1312 32.5948 65.5835 32.5044C66.4872 32.3683 67.3454 32.1426 68.1139 31.6455C68.7014 31.2388 69.289 30.9226 69.8765 30.5159C70.3281 30.199 70.7354 29.8379 71.1421 29.5217L73.221 27.7135C73.221 27.623 73.2658 27.5333 73.2658 27.4429C73.3114 26.5384 73.7181 25.7699 74.1248 25.0022C74.983 23.1947 76.2933 21.6585 77.7854 20.3473C78.1464 19.9855 78.5538 19.7149 79.0053 19.4884C79.276 19.3075 79.5929 19.3075 79.9091 19.3979C80.0907 19.4884 80.3614 19.534 80.5864 19.6244C80.7673 19.7149 80.949 19.8502 81.1292 19.9855C81.4909 20.2569 81.8527 20.5282 82.2138 20.754C82.3947 20.89 82.53 21.0253 82.5748 21.2055C82.6204 21.3871 82.7116 21.4776 82.8469 21.568C83.0278 21.6585 83.1632 21.793 83.2985 21.8835C83.6154 22.1548 83.7963 22.4711 83.9765 22.788C84.0669 23.0586 84.0669 23.2851 84.0669 23.5564C83.9764 24.3242 83.8404 25.0926 83.5242 25.8155C83.4337 26.042 83.3433 26.267 83.208 26.4479L82.8918 27.0811L81.988 28.8437C81.8527 29.1143 81.5358 29.3857 81.3549 29.657C81.0394 30.1542 80.5423 30.3799 80.0445 30.6064C79.7283 30.741 79.4569 30.741 79.1414 30.6064L78.6891 30.4704C78.4178 30.4704 78.1464 30.3351 77.9207 30.199C77.7854 30.0637 77.6494 29.9732 77.4692 29.9732C77.4236 29.9732 77.3788 30.0181 77.3788 30.0181C77.3332 30.3799 77.1979 30.6969 77.1979 31.0579C77.1523 31.9168 77.4236 32.6853 78.056 33.2721C78.5083 33.6339 79.0054 33.8597 79.5929 33.7244C80.0444 33.6339 80.4518 33.5435 80.8578 33.4074C81.1747 33.3177 81.4453 33.1368 81.7167 32.9559C82.9374 32.1426 84.1573 31.3285 85.3317 30.4704C85.7391 30.199 86.1002 29.8379 86.4171 29.4313C86.7333 29.0695 87.0951 28.7077 87.4114 28.301C87.9077 27.7135 88.3144 27.1259 88.6313 26.4479C88.7666 26.267 88.8122 26.042 88.9027 25.8155C89.0387 25.8155 88.9924 25.9059 88.9924 25.9515V26.2229C88.9027 26.5384 88.8571 26.9009 88.8122 27.2164C88.7666 27.487 88.6762 27.7591 88.5409 28.0304C88.3144 28.3915 88.0886 28.7533 87.8172 29.1143C87.6819 29.2952 87.5466 29.4761 87.5018 29.7019C87.3209 30.1542 87.0496 30.5601 86.7334 30.877C86.5973 31.0123 86.462 31.1484 86.4171 31.3285C86.4171 31.3749 86.3267 31.4653 86.2811 31.5094C85.8752 31.8264 85.4678 32.1874 84.9706 32.4588C84.6993 32.5948 84.3831 32.8199 84.1118 33.0008C83.7058 33.3177 83.2536 33.5883 82.7565 33.7244C82.2138 33.9053 81.6718 34.2215 81.1747 34.4928C80.0907 35.1252 78.9598 35.4863 77.695 35.5767C77.1074 35.6223 76.475 35.5319 75.8418 35.3966C75.7065 35.351 75.5705 35.2605 75.4344 35.1708C74.802 34.8539 74.3505 34.3568 73.9894 33.7692C73.582 33.0464 73.3115 32.2779 73.1754 31.4653C73.1306 31.2844 73.0849 31.1028 73.0849 30.9226C73.0401 30.8322 73.0401 30.6969 73.0401 30.6064C73.1306 30.2895 73.0401 30.0181 73.0401 29.7019C73.085 29.4313 73.0401 29.1599 73.0849 28.8437L72.8143 29.1143C72.6783 29.2497 72.543 29.3857 72.4525 29.5666C72.2268 29.7924 72.0459 30.0181 71.7746 30.199C71.5039 30.4255 71.2326 30.6969 70.9612 30.877C70.5994 31.1932 70.2376 31.4653 69.8765 31.7359C69.1985 32.2779 68.4756 32.7294 67.6623 33.0919C67.2549 33.2272 66.849 33.4074 66.4417 33.453C65.9901 33.5435 65.5835 33.5435 65.1312 33.5883C64.9952 33.6339 64.8606 33.6339 64.7246 33.6339C64.3635 33.7244 63.9568 33.6788 63.595 33.6339C62.4648 33.4074 61.4257 33.0464 60.4771 32.3683C59.663 31.7359 58.985 30.9675 58.5335 30.0181C58.4431 29.7924 58.3071 29.6115 58.2622 29.4313C57.9909 28.7533 57.9003 28.0753 57.9459 27.3524C58.0357 26.042 58.4431 24.8213 59.166 23.691C59.8888 22.4711 60.7477 21.432 61.878 20.5282C62.2846 20.1664 62.7361 19.9407 63.1884 19.7149C63.4141 19.6244 63.6399 19.6244 63.8656 19.534C64.0017 19.534 64.137 19.4884 64.2274 19.4436C64.4988 19.3075 64.7246 19.3531 64.9511 19.4884L65.8541 20.1664C66.035 20.2569 66.1711 20.3922 66.352 20.3922C66.5321 20.4378 66.6681 20.5282 66.8034 20.6635L67.4814 21.3415L67.7977 21.7482C67.7977 21.8835 67.933 21.9739 68.0234 22.0195C68.5661 22.6071 68.9272 23.2851 69.0633 24.0984C69.153 24.5955 69.0632 25.0926 68.9272 25.5897C68.7919 26.1324 68.5661 26.72 68.3404 27.2164C68.1139 27.7591 67.7072 28.2113 67.1645 28.4363C67.1204 28.4819 67.0299 28.5275 66.9843 28.5275C66.713 28.5724 66.4417 28.6628 66.1711 28.7533C65.8997 28.7981 65.6291 28.7981 65.357 28.7533L65.3121 28.7077C65.1312 28.4819 65.1313 28.4819 64.9511 28.7077L64.3635 28.5724Z" fill="#202020"/>
<path d="M38.1039 54.3952C37.9877 54.3952 37.8922 54.4261 37.8172 54.4878C37.7429 54.5503 37.7054 54.6393 37.7054 54.7555C37.7054 54.8724 37.7399 54.9658 37.8098 55.0372C37.8782 55.1077 37.9679 55.1629 38.0797 55.2004C38.1908 55.2394 38.315 55.2754 38.4511 55.31C38.5878 55.3445 38.7231 55.3857 38.8577 55.4357C38.993 55.485 39.1151 55.546 39.2269 55.6188C39.3379 55.6909 39.4283 55.7939 39.4975 55.927C39.5658 56.0601 39.6012 56.2196 39.6012 56.4049C39.6012 56.7292 39.4695 57.0065 39.2048 57.2381C38.9416 57.469 38.593 57.5852 38.1613 57.5852C37.7296 57.5852 37.3826 57.4815 37.1186 57.2741C36.8546 57.066 36.7222 56.7711 36.7222 56.3888H37.7164C37.7422 56.6954 37.8988 56.8476 38.1863 56.8476C38.3209 56.8476 38.4268 56.8123 38.5026 56.741C38.5798 56.6697 38.6172 56.58 38.6172 56.4704C38.6172 56.3608 38.5827 56.2718 38.5143 56.2035C38.4444 56.1343 38.3547 56.0799 38.2437 56.0395C38.1326 55.999 38.0084 55.9615 37.8723 55.927C37.7355 55.8931 37.6002 55.8497 37.4656 55.799C37.3303 55.7475 37.2076 55.6865 37.0965 55.6159C36.9855 55.5446 36.8957 55.4423 36.8259 55.31C36.7567 55.1769 36.7222 55.0188 36.7222 54.8371C36.7222 54.4805 36.8553 54.1944 37.1208 53.9797C37.3863 53.765 37.7267 53.6576 38.14 53.6576C38.5525 53.6576 38.8871 53.7517 39.1423 53.9393C39.3967 54.126 39.5305 54.4224 39.5408 54.8268H38.5246C38.5106 54.6879 38.4657 54.582 38.3915 54.507C38.3165 54.432 38.2208 54.3952 38.1039 54.3952Z" fill="#202020"/>
<path d="M45.4833 53.712H46.418V57.5469H45.4833V55.957H44.0037V57.5469H43.0698V53.712H44.0037V55.2467H45.4833V53.712Z" fill="#202020"/>
<path d="M52.4457 56.4219C52.6296 56.2211 52.7215 55.9542 52.7215 55.6188C52.7215 55.2835 52.6296 55.0158 52.4457 54.8158C52.2612 54.6151 52.0155 54.515 51.7081 54.515C51.4 54.515 51.1545 54.6151 50.9706 54.8158C50.7868 55.0158 50.6949 55.2835 50.6949 55.6188C50.6949 55.9542 50.7868 56.2211 50.9706 56.4219C51.1545 56.6219 51.4 56.7219 51.7081 56.7219C52.0155 56.7219 52.2612 56.6219 52.4457 56.4219ZM50.3154 57.0278C49.9345 56.6564 49.744 56.1865 49.744 55.6188C49.744 55.0504 49.9345 54.582 50.3154 54.2121C50.6956 53.8429 51.1618 53.6576 51.7133 53.6576C52.2656 53.6576 52.7296 53.8429 53.1061 54.2121C53.4826 54.582 53.6716 55.0504 53.6716 55.6188C53.6716 56.1865 53.4819 56.6564 53.1039 57.0278C52.7252 57.3992 52.2604 57.5852 51.7111 57.5852C51.161 57.5852 50.6956 57.3992 50.3154 57.0278Z" fill="#202020"/>
<path d="M57.9375 55.346H58.5162C58.6581 55.346 58.7707 55.3033 58.8523 55.2195C58.9347 55.1356 58.9751 55.0253 58.9751 54.8893C58.9751 54.7525 58.9332 54.6407 58.8493 54.5532C58.7663 54.4657 58.6545 54.4223 58.5162 54.4223H57.9375V55.346ZM59.9259 54.8864C59.9259 55.1452 59.8332 55.3945 59.6472 55.635C59.5487 55.7585 59.4024 55.86 59.2075 55.9379C59.0126 56.0166 58.7817 56.0549 58.5162 56.0549H57.9375V57.5469H57.0036V53.712H58.5162C58.9604 53.712 59.3067 53.8267 59.5546 54.0569C59.8024 54.2856 59.9259 54.5621 59.9259 54.8864Z" fill="#202020"/>
</g>
<defs>
<filter id="filter0_f_1_4431" x="0" y="0" width="96" height="64.5852" filterUnits="userSpaceOnUse" color-interpolation-filters="sRGB">
<feFlood flood-opacity="0" result="BackgroundImageFix"/>
<feBlend mode="normal" in="SourceGraphic" in2="BackgroundImageFix" result="shape"/>
<feGaussianBlur stdDeviation="3.5" result="effect1_foregroundBlur_1_4431"/>
</filter>
</defs>
</svg>
