<svg width="91" height="53" viewBox="0 0 91 53" fill="none" xmlns="http://www.w3.org/2000/svg">
<g filter="url(#filter0_f_1_4452)">
<path d="M27.281 24.4776L17.9852 11.1459V18.8917C17.9852 20.8787 18.1081 24.2546 21.7088 24.2546V24.4776H13.8666V24.2546C17.2701 24.2546 17.7628 20.8532 17.7628 18.8917V10.8483L16.6039 9.18447C15.1249 7.22391 14.1631 7.24846 13.5221 7.19839V7H21.3878L29.7715 19.1902V12.5613C29.7715 10.2521 28.9823 7.19839 26.245 7.19839V7H33.7166V7.19839C30.6593 7.19839 29.993 10.2521 29.993 12.5613V24.4776H27.281Z" fill="#202020"/>
<path d="M49.1991 19.6126V24.4776H34.7984V24.2546C35.8344 24.2546 36.2294 22.7646 36.2294 21.0762V10.4259C36.2294 8.8868 35.8841 7.19839 34.7984 7.19839V7H48.8782V12.0889H48.6567C48.6567 7.24845 41.9246 7.2239 41.9246 7.2239H41.0378V15.5394H43.0347C43.0591 15.5394 45.6726 15.615 45.9438 12.6104H46.1662V18.6933H45.9438C45.6726 15.7142 43.0591 15.7634 43.0347 15.7634H41.0378V24.2546H41.9246C41.9246 24.2546 48.9767 24.5276 48.9767 19.6126H49.1991Z" fill="#202020"/>
<path d="M78.7629 7V7.19839C77.7758 7.19839 76.2715 7.96751 74.4717 12.3374L70.1569 24.4776H69.2691C66.9757 19.0901 65.4967 15.615 64.5105 13.355L60.5645 24.4776H59.6768C53.4636 9.85438 53.1427 9.20994 53.1427 9.20994C52.3038 7.22389 51.9593 7.24846 51.3184 7.19839V7H59.0114V7.19839C57.4331 7.19839 58.6905 10.0783 58.6905 10.0783L62.4141 18.5941L64.3866 13.0573C62.8824 9.53215 62.735 9.20994 62.735 9.20994C61.8961 7.22389 61.5508 7.24846 60.9098 7.19839V7H68.6029V7.19839C67.0254 7.19839 68.2829 10.0783 68.2829 10.0783L71.982 18.6187L74.2005 12.3374C74.817 10.5752 74.2746 7.19839 71.7588 7.19839V7H78.7629Z" fill="#202020"/>
<path d="M34.4446 28.5217V28.7201C33.4574 28.7201 31.9531 29.4892 30.1533 33.8591L25.8385 45.9993H24.9507C22.6573 40.6119 21.1784 37.1367 20.1912 34.8767L16.2461 45.9993H15.3584C9.14521 31.3761 8.82429 30.7317 8.82429 30.7317C7.98628 28.7456 7.64094 28.7702 7 28.7201V28.5217H14.6931V28.7201C13.1147 28.7201 14.3721 31.6 14.3721 31.6L18.0957 40.1158L20.0682 34.5791C18.564 31.0539 18.4166 30.7317 18.4166 30.7317C17.5777 28.7456 17.2333 28.7702 16.5915 28.7201V28.5217H24.2845V28.7201C22.707 28.7201 23.9645 31.6 23.9645 31.6L27.6627 40.1404L29.8821 33.8591C30.4986 32.097 29.9562 28.7201 27.4413 28.7201V28.5217H34.4446Z" fill="#202020"/>
<path d="M39.4729 35.3744L37.278 40.9603H41.9381L39.4729 35.3744ZM41.9625 28.5224H42.0863C48.3248 42.9217 48.7434 43.7409 48.7434 43.7409C49.6311 45.7269 50.47 45.7515 50.9627 45.8016V46H42.3331V45.8016C44.3057 45.8016 42.8258 42.8971 42.8258 42.8971L42.0366 41.1842H37.2038C36.7102 42.3265 37.1541 45.8016 40.1138 45.8016V46H33.012V45.8016C33.7514 45.7515 35.0831 45.5531 36.9824 41.1842L41.9625 28.5224Z" fill="#202020"/>
<path d="M68.3448 28.5224V28.7208C67.2844 28.7208 65.7061 29.4899 63.7832 33.8598L58.9252 46H58.2101C51.6018 31.3768 51.2565 30.7324 51.2565 30.7324C50.3688 28.7463 49.999 28.7709 49.3084 28.7208V28.5224H57.5194V28.7208C55.8181 28.7208 57.175 31.6007 57.175 31.6007L60.9971 40.1657L63.5365 33.8598C64.2759 32.023 63.8321 28.7208 60.8733 28.7208V28.5224H68.3448Z" fill="#202020"/>
<path d="M84 41.135V46H69.5993V45.777C70.6353 45.777 71.0303 44.287 71.0303 42.5986V31.9484C71.0303 30.4092 70.6841 28.7208 69.5993 28.7208V28.5224H83.6791V33.6113H83.4576C83.4576 28.7709 76.7255 28.7463 76.7255 28.7463H75.8378V37.0628H77.8356C77.86 37.0628 80.4744 37.1374 80.7447 34.1329H80.9671V40.2157H80.7447C80.4744 37.2366 77.86 37.2858 77.8356 37.2858H75.8378V45.777H76.7255C76.7255 45.777 83.7776 46.0501 83.7776 41.135H84Z" fill="#202020"/>
</g>
<defs>
<filter id="filter0_f_1_4452" x="0" y="0" width="91" height="53" filterUnits="userSpaceOnUse" color-interpolation-filters="sRGB">
<feFlood flood-opacity="0" result="BackgroundImageFix"/>
<feBlend mode="normal" in="SourceGraphic" in2="BackgroundImageFix" result="shape"/>
<feGaussianBlur stdDeviation="3.5" result="effect1_foregroundBlur_1_4452"/>
</filter>
</defs>
</svg>
