<svg width="139" height="33" viewBox="0 0 139 33" fill="none" xmlns="http://www.w3.org/2000/svg">
<g filter="url(#filter0_f_1_4434)">
<path d="M17.351 7.12379H20.7141V7.24844C20.0387 7.24844 20.0661 7.42703 20.0661 8.26869V15.5448C20.0661 16.4828 20.1766 16.703 20.852 16.703V16.8276H16.6482V16.703C17.2962 16.703 17.351 16.4828 17.351 15.5448V7.49599L13.7819 16.9505H13.6572L9.19168 8.65328V13.1754C9.19168 14.9525 9.70181 16.703 11.3003 16.703V16.8276H7V16.703C8.47556 16.703 9.06791 14.9807 9.06791 13.1754V8.44728C8.53038 7.49599 8.08922 7.27584 7.70376 7.24844V7.12379H11.6309L14.9666 13.4645L17.351 7.12379Z" fill="#202020"/>
<path d="M29.945 7.12351V7.23402C29.3668 7.23402 29.0494 7.24816 29.0494 8.46114V15.2696C29.0494 16.5789 29.3668 16.7027 29.945 16.7027V16.8274H25.3963V16.7027C25.9754 16.7027 26.2919 16.5789 26.2919 15.2696V8.46114C26.2919 7.24816 25.9895 7.23402 25.3963 7.23402V7.12351H29.945Z" fill="#202020"/>
<path d="M43.4636 13.5193L43.6015 16.3033C43.2293 16.5518 41.8369 16.9505 40.3764 16.9505C37.427 16.9505 34.8083 15.0913 34.8083 11.9757C34.8083 8.86103 37.427 7 40.3764 7C42.1543 7 43.2709 7.37222 43.6015 7.63391L43.4636 10.4188H43.3531C42.9402 7.56584 41.3825 7.12379 40.3764 7.12379C38.8469 7.12379 38.1988 8.19972 38.1988 11.9757C38.1988 15.7658 38.8884 16.8276 40.3764 16.8276C41.3135 16.8276 42.8854 16.2627 43.3531 13.5193H43.4636Z" fill="#202020"/>
<path d="M54.1843 9.75724C54.1843 7.12351 53.8262 7.24816 52.2127 7.24816H51.7857V12.2239H52.2127C54.0048 12.2239 54.1843 12.2513 54.1843 9.75724ZM58.6215 16.7027V16.8274H55.8791C54.9004 16.8274 54.5971 16.2067 54.2665 13.6428C54.087 12.2645 52.4337 12.3476 52.4337 12.3476H51.7857V15.2696C51.7857 16.6196 51.8405 16.7027 52.4196 16.7027V16.8274H48.2988V16.7027C48.8912 16.7027 49.0158 16.6753 49.0158 15.2696V8.46114C49.0158 7.60622 48.9053 7.23402 48.2988 7.23402V7.12351H52.2127C54.9561 7.12351 57.4227 7.45505 57.4227 9.75724C57.4227 11.8234 55.521 12.2513 54.1975 12.2513C55.7827 12.2513 56.5819 12.5952 57.2574 15.076C57.5332 16.1245 58.2635 16.6753 58.6215 16.7027Z" fill="#202020"/>
<path d="M69.5206 12.0438C69.5206 8.26868 69.4658 7.12379 67.84 7.12379C66.2 7.12379 66.131 8.26868 66.131 12.0438C66.131 15.8348 66.2 16.8276 67.84 16.8276C69.4658 16.8276 69.5206 15.8348 69.5206 12.0438ZM72.8705 12.0438C72.8705 14.7871 70.8715 16.9505 67.84 16.9505C64.8075 16.9505 62.8085 14.7871 62.8085 12.0438C62.8085 9.31545 64.8075 7 67.84 7C70.8715 7 72.8705 9.31545 72.8705 12.0438Z" fill="#202020"/>
<path d="M92.0261 7.12351V7.23402C91.4744 7.23402 90.6337 7.66104 89.6276 10.0879L87.2149 16.8274H86.7198C85.437 13.8365 84.6103 11.9065 84.0595 10.6519L81.8537 16.8274H81.3577C77.8841 8.70869 77.7055 8.35062 77.7055 8.35062C77.237 7.24816 77.0434 7.26231 76.6853 7.23402V7.12351H80.9855V7.23402C80.1032 7.23402 80.8061 8.83334 80.8061 8.83334L82.8872 13.5606L83.9906 10.4866C83.1498 8.53011 83.0667 8.35062 83.0667 8.35062C82.5981 7.24816 82.4054 7.26231 82.0465 7.23402V7.12351H86.3467V7.23402C85.4652 7.23402 86.1681 8.83334 86.1681 8.83334L88.2351 13.5739L89.4755 10.0879C89.8203 9.10919 89.5171 7.23402 88.1114 7.23402V7.12351H92.0261Z" fill="#202020"/>
<path d="M98.6516 10.9278L97.4245 14.0292H100.03L98.6516 10.9278ZM100.043 7.12351H100.113C103.599 15.1184 103.834 15.5728 103.834 15.5728C104.33 16.6753 104.798 16.6885 105.074 16.7168V16.8274H100.25V16.7168C101.353 16.7168 100.526 15.1034 100.526 15.1034L100.085 14.153H97.3838C97.108 14.7869 97.3555 16.7168 99.0097 16.7168V16.8274H95.0401V16.7168C95.4538 16.6885 96.1982 16.5789 97.2592 14.153L100.043 7.12351Z" fill="#202020"/>
<path d="M118.606 7.12351V7.23402C118.013 7.23402 117.132 7.66104 116.057 10.0879L113.341 16.8274H112.941C109.248 8.70869 109.055 8.35062 109.055 8.35062C108.559 7.24816 108.352 7.26231 107.966 7.23402V7.12351H112.556V7.23402C111.605 7.23402 112.362 8.83334 112.362 8.83334L114.499 13.5889L115.918 10.0879C116.332 9.06676 116.084 7.23402 114.43 7.23402V7.12351H118.606Z" fill="#202020"/>
<path d="M131.173 14.1255V16.8274H123.123V16.7027C123.702 16.7027 123.923 15.8761 123.923 14.9389V9.02609C123.923 8.17205 123.73 7.23402 123.123 7.23402V7.12351H130.994V9.94908H130.87C130.87 7.26231 127.107 7.24816 127.107 7.24816H126.611V11.8649H127.727C127.741 11.8649 129.202 11.9065 129.354 10.2382H129.477V13.6154H129.354C129.202 11.9622 127.741 11.9887 127.727 11.9887H126.611V16.7027H127.107C127.107 16.7027 131.048 16.8548 131.048 14.1255H131.173Z" fill="#202020"/>
<path d="M40.1863 22.1348H41.1182V25.9621H40.1863V24.376H38.709V25.9621H37.7772V22.1348H38.709V23.6669H40.1863V22.1348Z" fill="#202020"/>
<path d="M46.2212 24.6094H47.1256L46.6738 23.2461L46.2212 24.6094ZM47.5729 25.9621L47.3607 25.3185H45.9869L45.7738 25.9621H44.7818L46.1115 22.1242H47.2458L48.5711 25.9621H47.5729Z" fill="#202020"/>
<path d="M52.2339 25.9621V22.1348H53.1657V25.9621H52.2339Z" fill="#202020"/>
<path d="M58.1211 22.843V23.7642H58.6993C58.8407 23.7642 58.9521 23.7226 59.0344 23.6395C59.1157 23.5555 59.1573 23.4459 59.1573 23.3098C59.1573 23.1727 59.1148 23.0614 59.0317 22.9747C58.9477 22.8872 58.8372 22.843 58.6993 22.843H58.1211ZM58.1211 24.4733V25.9621H57.1893V22.1348H58.6993C59.1422 22.1348 59.487 22.2489 59.7346 22.4778C59.9821 22.7068 60.1059 22.9836 60.1059 23.3071C60.1059 23.529 60.0378 23.7447 59.9043 23.9552C59.7691 24.1656 59.5498 24.315 59.2439 24.4025L60.1819 25.9621H59.0918L58.2299 24.4733H58.1211Z" fill="#202020"/>
<path d="M70.1748 22.8165C70.0581 22.8165 69.9626 22.8474 69.8884 22.9084C69.8141 22.9712 69.777 23.0596 69.777 23.1763C69.777 23.2921 69.8115 23.3858 69.8804 23.4574C69.9485 23.5273 70.0387 23.5821 70.1501 23.6201C70.2606 23.6581 70.3843 23.6944 70.5205 23.7288C70.6567 23.7642 70.7919 23.8058 70.9272 23.8544C71.0616 23.903 71.1836 23.9649 71.295 24.0374C71.4055 24.1099 71.4957 24.2125 71.5646 24.3451C71.6336 24.4786 71.6681 24.6368 71.6681 24.8225C71.6681 25.146 71.5363 25.4228 71.2729 25.6535C71.0094 25.8851 70.662 26.0001 70.2314 26.0001C69.8009 26.0001 69.4543 25.8958 69.19 25.6889C68.9274 25.482 68.7956 25.1876 68.7956 24.8057H69.7876C69.8132 25.1116 69.9688 25.2645 70.2562 25.2645C70.3905 25.2645 70.4958 25.2292 70.5727 25.1575C70.6487 25.0859 70.6867 24.9966 70.6867 24.8879C70.6867 24.7792 70.6522 24.6899 70.5833 24.6209C70.5143 24.5519 70.4241 24.4962 70.3136 24.4565C70.2022 24.4176 70.0794 24.3804 69.9432 24.3451C69.8071 24.3106 69.6709 24.2681 69.5365 24.2177C69.4021 24.1656 69.2801 24.1055 69.1687 24.0347C69.0582 23.964 68.968 23.8623 68.8991 23.7288C68.8292 23.5971 68.7956 23.4389 68.7956 23.2576C68.7956 22.9013 68.9282 22.6158 69.1935 22.4018C69.4587 22.187 69.7973 22.08 70.2102 22.08C70.6222 22.08 70.9564 22.1737 71.2101 22.3603C71.4647 22.5477 71.5973 22.843 71.6079 23.2461H70.5939C70.5797 23.1082 70.5347 23.0021 70.4604 22.9279C70.3861 22.8536 70.2906 22.8165 70.1748 22.8165Z" fill="#202020"/>
<path d="M76.6889 24.6094H77.5933L77.1415 23.2461L76.6889 24.6094ZM78.0407 25.9621L77.8276 25.3185H76.4546L76.2415 25.9621H75.2496L76.5793 22.1242H77.7136L79.0388 25.9621H78.0407Z" fill="#202020"/>
<path d="M82.7017 22.1348H83.6335V25.253H84.7944V25.9621H82.7017V22.1348Z" fill="#202020"/>
<path d="M90.9909 24.8384C91.1739 24.6395 91.2659 24.3725 91.2659 24.0374C91.2659 23.7032 91.1739 23.4353 90.9909 23.2364C90.807 23.0357 90.5612 22.9358 90.2545 22.9358C89.9468 22.9358 89.7019 23.0357 89.5189 23.2364C89.335 23.4353 89.2439 23.7032 89.2439 24.0374C89.2439 24.3725 89.335 24.6395 89.5189 24.8384C89.7019 25.0391 89.9468 25.1381 90.2545 25.1381C90.5612 25.1381 90.807 25.0391 90.9909 24.8384ZM88.8638 25.444C88.4845 25.0736 88.2944 24.6041 88.2944 24.0374C88.2944 23.4698 88.4845 23.0021 88.8638 22.6334C89.2439 22.2648 89.709 22.08 90.2598 22.08C90.8105 22.08 91.2738 22.2648 91.6504 22.6334C92.0262 23.0021 92.2136 23.4698 92.2136 24.0374C92.2136 24.6041 92.0253 25.0736 91.6478 25.444C91.2694 25.8144 90.8061 26.0001 90.2571 26.0001C89.7081 26.0001 89.2439 25.8144 88.8638 25.444Z" fill="#202020"/>
<path d="M98.5111 22.1242H99.4429V25.9621H98.5111L96.9515 23.5467V25.9621H96.0188V22.1242H96.9515L98.5111 24.5387V22.1242Z" fill="#202020"/>
</g>
<defs>
<filter id="filter0_f_1_4434" x="0" y="0" width="138.173" height="33" filterUnits="userSpaceOnUse" color-interpolation-filters="sRGB">
<feFlood flood-opacity="0" result="BackgroundImageFix"/>
<feBlend mode="normal" in="SourceGraphic" in2="BackgroundImageFix" result="shape"/>
<feGaussianBlur stdDeviation="3.5" result="effect1_foregroundBlur_1_4434"/>
</filter>
</defs>
</svg>
