<svg width="99" height="46" viewBox="0 0 99 46" fill="none" xmlns="http://www.w3.org/2000/svg">
<g filter="url(#filter0_f_1_4446)">
<path d="M7 28.4402V9.46063H11.7673V28.4402H7Z" fill="#202020"/>
<path d="M16.687 26.5203C15.2465 25.1156 14.5264 23.2404 14.5264 20.8972C14.5264 18.554 15.2465 16.6839 16.687 15.2869C18.1269 13.8907 19.9907 13.1913 22.2766 13.1913C24.1721 13.1913 25.7798 13.6473 27.0994 14.5567C28.4188 15.4677 29.2926 16.7696 29.7203 18.464H24.5629C24.1166 17.5632 23.3872 17.1124 22.3743 17.1124C21.3611 17.1124 20.6086 17.4595 20.1163 18.152C19.6234 18.8462 19.3776 19.7616 19.3776 20.8972C19.3776 22.0328 19.6234 22.9472 20.1163 23.6415C20.6086 24.3348 21.3287 24.6828 22.2766 24.6828C22.8714 24.6828 23.3361 24.5825 23.6709 24.3854C24.0051 24.1874 24.3023 23.8351 24.5629 23.3303H29.7203C29.2926 24.9527 28.4099 26.2418 27.0715 27.1957C25.7335 28.1521 24.1352 28.6287 22.2766 28.6287C19.9907 28.6287 18.1269 27.9267 16.687 26.5203Z" fill="#202020"/>
<path d="M41.4577 23.7083C42.0891 23.0604 42.4057 22.1228 42.4057 20.8972C42.4057 19.6716 42.0801 18.7382 41.4298 18.0989C40.7788 17.4595 40.0079 17.139 39.1156 17.139C38.2239 17.139 37.4572 17.4595 36.8161 18.0989C36.1744 18.7382 35.8544 19.6716 35.8544 20.8972C35.8544 22.1228 36.1841 23.0604 36.8437 23.7083C37.5031 24.358 38.2795 24.6828 39.1714 24.6828C40.0638 24.6828 40.8253 24.358 41.4577 23.7083ZM33.3589 26.4937C31.7882 25.0702 31.0036 23.1949 31.0036 20.8697C31.0036 18.5445 31.7841 16.6839 33.3451 15.2869C34.9065 13.8907 36.8393 13.1913 39.1439 13.1913C41.4481 13.1913 43.3764 13.8907 44.9285 15.2869C46.4801 16.6839 47.2562 18.5445 47.2562 20.8697C47.2562 23.1949 46.485 25.0702 44.9422 26.4937C43.3999 27.9173 41.476 28.6287 39.1714 28.6287C36.8665 28.6287 34.9292 27.9173 33.3589 26.4937Z" fill="#202020"/>
<path d="M54.811 13.3542V15.5706C55.7955 13.9842 57.3659 13.1914 59.5222 13.1914C61.3064 13.1914 62.7513 13.7682 63.8577 14.9218C64.9624 16.0762 65.5156 17.6438 65.5156 19.6262V28.4402H60.777V20.2484C60.777 19.2748 60.5119 18.5223 59.9826 17.99C59.4523 17.4595 58.7224 17.1921 57.7936 17.1921C56.8639 17.1921 56.1348 17.4595 55.6055 17.99C55.0753 18.5223 54.811 19.2748 54.811 20.2484V28.4402H50.0433V13.3542H54.811Z" fill="#202020"/>
<path d="M69.279 28.4402V13.3542H74.0466V28.4402H69.279ZM73.6278 11.6513C73.0887 12.1741 72.4294 12.4346 71.6491 12.4346C70.8679 12.4346 70.2086 12.1741 69.6696 11.6513C69.1305 11.1276 68.861 10.4831 68.861 9.71689C68.861 8.95154 69.1305 8.30703 69.6696 7.78422C70.2086 7.26142 70.8679 7 71.6491 7C72.4294 7 73.0887 7.26142 73.6278 7.78422C74.1668 8.30703 74.4364 8.95154 74.4364 9.71689C74.4364 10.4831 74.1668 11.1276 73.6278 11.6513Z" fill="#202020"/>
<path d="M78.9668 26.5203C77.5264 25.1156 76.8061 23.2404 76.8061 20.8972C76.8061 18.554 77.5264 16.6839 78.9668 15.2869C80.4073 13.8907 82.2702 13.1913 84.5564 13.1913C86.452 13.1913 88.0595 13.6473 89.3789 14.5567C90.6992 15.4677 91.5723 16.7696 92 18.464H86.8426C86.3963 17.5632 85.6663 17.1124 84.6545 17.1124C83.6408 17.1124 82.8888 17.4595 82.3966 18.152C81.9034 18.8462 81.6569 19.7616 81.6569 20.8972C81.6569 22.0328 81.9034 22.9472 82.3966 23.6415C82.8888 24.3348 83.609 24.6828 84.5564 24.6828C85.1511 24.6828 85.616 24.5825 85.9509 24.3854C86.285 24.1874 86.5819 23.8351 86.8426 23.3303H92C91.5723 24.9527 90.6894 26.2418 89.3515 27.1957C88.0135 28.1521 86.4149 28.6287 84.5564 28.6287C82.2702 28.6287 80.4073 27.9267 78.9668 26.5203Z" fill="#202020"/>
<path d="M27.0601 35.1193V38.9615H26.0952V36.7932L25.1752 38.9615H24.4586L23.539 36.7932V38.9615H22.5742V35.1193H23.6802L24.8204 37.7676L25.9544 35.1193H27.0601Z" fill="#202020"/>
<path d="M32.8901 35.1091V35.8204H31.4564V36.6466H32.7202V37.358H31.4564V38.2502H32.8901V38.9615H30.4916V35.1091H32.8901Z" fill="#202020"/>
<path d="M38.8832 35.1091H39.8481V38.9615H38.8832L37.269 36.5378V38.9615H36.3045V35.1091H37.269L38.8832 37.5328V35.1091Z" fill="#202020"/>
<path d="M44.6214 35.8032C44.5009 35.8032 44.4022 35.834 44.3249 35.8966C44.2476 35.9592 44.2092 36.0474 44.2092 36.1648C44.2092 36.2814 44.2451 36.3748 44.3162 36.446C44.3876 36.518 44.4809 36.5728 44.5958 36.6105C44.7108 36.6499 44.8381 36.6859 44.9794 36.7211C45.1205 36.7554 45.2603 36.7965 45.4002 36.8462C45.5393 36.8951 45.6659 36.9568 45.7805 37.0296C45.8955 37.1025 45.9884 37.2053 46.0598 37.3382C46.1316 37.4719 46.1672 37.6313 46.1672 37.8173C46.1672 38.1421 46.0308 38.4206 45.7577 38.652C45.4854 38.8843 45.1261 39 44.6804 39C44.2347 39 43.8754 38.8963 43.6027 38.6872C43.33 38.4797 43.194 38.1849 43.194 37.801H44.2209C44.2468 38.1078 44.4087 38.2603 44.7059 38.2603C44.8447 38.2603 44.9542 38.2243 45.0328 38.1532C45.1119 38.0821 45.1516 37.993 45.1516 37.8832C45.1516 37.7735 45.1157 37.6844 45.0442 37.6141C44.9731 37.5456 44.8799 37.4907 44.765 37.4504C44.65 37.4101 44.5226 37.3733 44.3814 37.3382C44.2403 37.3039 44.1001 37.261 43.9606 37.2104C43.8215 37.1582 43.6949 37.0982 43.5802 37.027C43.4653 36.9559 43.372 36.8539 43.301 36.7211C43.2291 36.5874 43.194 36.4297 43.194 36.2471C43.194 35.8897 43.3307 35.6026 43.6054 35.3875C43.8798 35.1724 44.2306 35.0653 44.6579 35.0653C45.0846 35.0653 45.4298 35.1587 45.6932 35.3463C45.9562 35.5349 46.094 35.8306 46.1054 36.236H45.056C45.0408 36.0971 44.9946 35.9909 44.9172 35.9163C44.8403 35.8409 44.7415 35.8032 44.6214 35.8032Z" fill="#202020"/>
<path d="M53.9095 35.1193H54.9479L53.8423 38.9615H52.7359L52.0422 36.5258L51.3538 38.9615H50.2474L49.1241 35.1193H50.1572L50.8456 37.8834L51.5509 35.1193H52.6458L53.3227 37.8388L53.9095 35.1193Z" fill="#202020"/>
<path d="M60.3948 35.1091V35.8204H58.9605V36.6466H60.2251V37.358H58.9605V38.2502H60.3948V38.9615H57.9955V35.1091H60.3948Z" fill="#202020"/>
<path d="M64.9244 37.604H65.8611L65.3927 36.2361L64.9244 37.604ZM66.3233 38.9615L66.1032 38.3162H64.6813L64.4613 38.9615H63.4344L64.8112 35.1091H65.9848L67.3564 38.9615H66.3233Z" fill="#202020"/>
<path d="M71.3798 35.8307V36.7563H71.9781C72.1247 36.7563 72.2405 36.7143 72.3253 36.6303C72.4102 36.5463 72.4526 36.4358 72.4526 36.2987C72.4526 36.1615 72.4093 36.0493 72.3227 35.9627C72.2361 35.8744 72.1212 35.8307 71.9781 35.8307H71.3798ZM71.3798 37.4677V38.9615H70.4156V35.1193H71.9781C72.4376 35.1193 72.7946 35.2342 73.05 35.4639C73.3063 35.6936 73.4335 35.9721 73.4335 36.2961C73.4335 36.5189 73.3646 36.7358 73.2259 36.9475C73.0862 37.1583 72.8591 37.3083 72.5427 37.3966L73.5131 38.9615H72.3846L71.4929 37.4677H71.3798Z" fill="#202020"/>
</g>
<defs>
<filter id="filter0_f_1_4446" x="0" y="0" width="99" height="46" filterUnits="userSpaceOnUse" color-interpolation-filters="sRGB">
<feFlood flood-opacity="0" result="BackgroundImageFix"/>
<feBlend mode="normal" in="SourceGraphic" in2="BackgroundImageFix" result="shape"/>
<feGaussianBlur stdDeviation="3.5" result="effect1_foregroundBlur_1_4446"/>
</filter>
</defs>
</svg>
