<svg width="92" height="78" viewBox="0 0 92 78" fill="none" xmlns="http://www.w3.org/2000/svg">
<g filter="url(#filter0_f_1_4440)">
<path d="M8.11805 70.1037H8.61451C9.0415 70.1037 9.37739 69.9733 9.62138 69.7117C9.86538 69.4501 9.98739 69.0997 9.98739 68.6598C9.98739 68.2191 9.86538 67.8688 9.62138 67.6071C9.37739 67.3455 9.0415 67.2151 8.61451 67.2151H8.11805V70.1037ZM8.61451 66.3662C9.34727 66.3662 9.94877 66.5777 10.419 67.0029C10.89 67.4281 11.1255 67.9791 11.1255 68.6567C11.1255 69.3343 10.89 69.8853 10.419 70.3129C9.94877 70.7396 9.34727 70.9526 8.61451 70.9526H7V66.3662H8.61451Z" fill="#202020"/>
<path d="M18.7947 66.353V67.2027H17.1338V68.1898H18.5978V69.0395H17.1338V70.1045H18.7947V70.9534H16.015V66.353H18.7947Z" fill="#202020"/>
<path d="M25.4963 67.1837C25.3565 67.1837 25.2414 67.22 25.1526 67.2948C25.0631 67.3689 25.0191 67.4754 25.0191 67.6151C25.0191 67.7548 25.06 67.8667 25.1426 67.9516C25.226 68.0365 25.3333 68.1021 25.4661 68.1476C25.5997 68.1931 25.7472 68.2371 25.9109 68.278C26.0746 68.3197 26.2367 68.3699 26.3981 68.4285C26.5595 68.4872 26.707 68.5605 26.8398 68.6469C26.9718 68.7341 27.0807 68.8576 27.1633 69.0166C27.2459 69.1763 27.2876 69.367 27.2876 69.5885C27.2876 69.9766 27.1293 70.3077 26.8135 70.5855C26.4977 70.8618 26.0815 71 25.5642 71C25.0476 71 24.6322 70.8757 24.3157 70.6272C23.9999 70.3787 23.8423 70.026 23.8423 69.5684H25.0322C25.0623 69.935 25.2492 70.1179 25.5943 70.1179C25.7549 70.1179 25.8815 70.0754 25.9727 69.9905C26.0653 69.9056 26.1109 69.7976 26.1109 69.6664C26.1109 69.536 26.0692 69.4295 25.9866 69.3461C25.9032 69.2643 25.7959 69.1987 25.663 69.1501C25.5295 69.103 25.382 69.0583 25.2183 69.0166C25.0546 68.9757 24.8924 68.924 24.7311 68.863C24.5697 68.802 24.423 68.7287 24.2894 68.6439C24.1566 68.559 24.0485 68.4378 23.9659 68.278C23.8833 68.1191 23.8423 67.9308 23.8423 67.7131C23.8423 67.2856 24.0014 66.9437 24.3187 66.6867C24.6369 66.4297 25.0438 66.3016 25.538 66.3016C26.0329 66.3016 26.4336 66.4135 26.7386 66.6373C27.0428 66.8619 27.2027 67.2161 27.215 67.6992H25.9997C25.9819 67.5348 25.9286 67.4075 25.8391 67.3172C25.7495 67.2285 25.6352 67.1837 25.4963 67.1837Z" fill="#202020"/>
<path d="M32.3546 70.9534V66.3669H33.4726V70.9534H32.3546Z" fill="#202020"/>
<path d="M39.0516 70.3303C38.5969 69.8881 38.3691 69.327 38.3691 68.6471C38.3691 67.968 38.5969 67.4077 39.0516 66.9647C39.5072 66.5225 40.0647 66.3018 40.7226 66.3018C41.2329 66.3018 41.6862 66.4369 42.083 66.707C42.4791 66.9771 42.7563 67.3514 42.9131 67.8306H41.5788C41.4043 67.4957 41.1256 67.3275 40.7426 67.3275C40.3589 67.3275 40.057 67.4471 39.8369 67.6871C39.6168 67.9263 39.5064 68.2466 39.5064 68.6471C39.5064 69.0484 39.6168 69.3695 39.8369 69.6079C40.057 69.848 40.3519 69.9676 40.7226 69.9676C40.9889 69.9676 41.2059 69.9012 41.3734 69.7685C41.541 69.6357 41.6538 69.4582 41.7101 69.236H40.4153V68.3863H42.9131V69.236C42.8297 69.6542 42.6012 70.044 42.2267 70.4051C42.0475 70.5796 41.8267 70.7208 41.5626 70.8304C41.2993 70.9392 41.0191 70.994 40.7226 70.994C40.0647 70.994 39.5072 70.7725 39.0516 70.3303Z" fill="#202020"/>
<path d="M50.8057 66.353H51.923V70.9534H50.8057L48.9356 68.0586V70.9534H47.8168V66.353H48.9356L50.8057 69.2478V66.353Z" fill="#202020"/>
<path d="M66.1228 66.3669H67.2416V70.9534H66.1228V69.0518H64.3515V70.9534H63.2334V66.3669H64.3515V68.2029H66.1228V66.3669Z" fill="#202020"/>
<path d="M72.3875 69.1054V66.3672H73.5055V69.1054C73.5055 69.3793 73.5727 69.5908 73.7079 69.7389C73.843 69.8864 74.0406 69.9612 74.3024 69.9612C74.5641 69.9612 74.7649 69.8864 74.9047 69.7389C75.0436 69.5908 75.1131 69.3793 75.1131 69.1054V66.3672H76.2312V69.1054C76.2312 69.5097 76.1362 69.8593 75.9471 70.1534C75.7571 70.4474 75.5177 70.6619 75.2274 70.797C74.9371 70.9328 74.6228 71 74.2831 71C73.7511 71 73.3017 70.8348 72.9365 70.503C72.5705 70.1727 72.3875 69.7058 72.3875 69.1054Z" fill="#202020"/>
<path d="M82.4898 70.1045H83.333C83.4851 70.1045 83.6117 70.0582 83.7121 69.9671C83.8125 69.876 83.8619 69.7495 83.8619 69.5882C83.8619 69.4269 83.8148 69.2988 83.7183 69.2031C83.6225 69.1074 83.4975 69.0588 83.3453 69.0588H82.4898V70.1045ZM82.4898 67.2159V68.2098H83.2218C83.3824 68.2098 83.5129 68.1682 83.6102 68.0848C83.7082 68.0022 83.7577 67.8795 83.7577 67.7159C83.7577 67.5523 83.7082 67.4288 83.6102 67.344C83.5129 67.2583 83.3824 67.2159 83.2218 67.2159H82.4898ZM81.3717 66.3669H83.3654C83.8318 66.3669 84.2032 66.4796 84.4796 66.7065C84.7568 66.9326 84.895 67.2197 84.895 67.5693C84.895 68.0871 84.5916 68.4375 83.9862 68.6212C84.2958 68.6644 84.5421 68.7925 84.7251 69.0071C84.9081 69.2201 85 69.4701 85 69.758C85 70.1238 84.8657 70.4147 84.5977 70.63C84.3298 70.8461 83.9553 70.9534 83.4766 70.9534H81.3717V66.3669Z" fill="#202020"/>
<path d="M44.6658 37.4275C45.0735 37.098 45.1307 36.7962 45.065 36.3154C44.7631 35.2604 44.5075 34.1206 44.2728 33.0471C42.764 25.7758 42.1541 30.1577 41.0429 35.0405C38.586 41.2352 40.6199 42.0803 44.6658 37.4275ZM54.4712 28.8465C55.2009 28.1388 55.9869 27.6287 56.8949 27.2969C57.142 27.1549 57.4926 27.1263 57.7945 27.1826C58.2307 27.2004 58.6369 27.3694 59.1573 27.435C59.1388 27.8679 58.7782 28.1141 58.4848 28.3395C56.8926 29.7942 55.5753 31.455 54.089 33.0208C53.8133 33.3133 53.6906 33.6344 53.8033 34.0303C53.9732 34.6238 54.0295 35.3206 54.1994 35.9133C54.2658 36.3949 54.3785 36.79 53.9045 37.1396C53.611 37.3657 53.7052 37.6961 53.838 38.1568C54.0272 37.8172 54.0373 37.6003 54.1315 37.4313C54.5476 37.3827 54.6418 38.2123 54.2542 38.609C54.2063 38.6931 54.1407 38.7117 54.1592 38.778C54.0928 38.7973 54.0458 38.8822 53.9508 39.052C54.4226 40.7004 54.9322 42.4801 55.3561 44.2134C55.4889 44.6749 55.536 45.0893 55.6016 45.5701C55.6479 46.9839 56.1575 48.2635 56.7335 49.5253C57.2354 50.5239 57.5844 51.4932 57.9527 52.5289C58.1604 53.2551 58.4338 53.9605 58.6423 54.6859C58.7928 55.2138 58.8778 55.7602 58.9805 56.3722C58.7257 56.2309 58.4701 56.0905 58.2145 55.95C58.1859 56.0997 58.1388 56.1854 58.091 56.2703C58.0446 56.3552 58.0809 56.4871 58.1195 56.6183C57.6076 56.836 56.8702 56.7626 57.0965 57.5537C56.6702 57.8176 56.2154 57.7335 55.8935 57.6115C55.4032 57.3962 54.9291 57.2465 54.5507 56.9263C53.2072 55.7401 52.1586 54.3293 51.2892 52.7951C51.2135 52.5312 50.9866 52.2395 51.3271 51.9277C51.3927 51.9092 51.2799 51.5133 51.2236 51.3157C50.9402 50.8264 50.6561 50.3356 50.3727 49.8471C48.718 47.3243 47.7081 44.546 46.6788 41.7029C46.5182 41.3919 46.3576 41.0809 46.1777 40.7043C45.9506 40.9127 45.7043 41.0547 45.5437 41.2422C44.6149 42.5071 43.3362 43.2996 42.0946 44.2265C41.1287 44.8593 40.0307 45.53 38.979 46.1165C37.966 46.8334 37.4726 48.1153 37.1877 49.1247C36.6271 51.4253 35.6596 53.5561 35.0612 55.7239C34.8721 56.0634 34.7107 56.2517 34.3323 56.4323C32.8452 56.9996 35.1446 57.769 33.6204 57.7049C30.3921 59.199 31.2461 56.6724 29.5806 55.3658C30.2454 53.6788 30.9751 51.9717 31.724 50.331C32.1325 49.5006 32.5587 48.7366 32.9857 47.9725C33.649 46.784 32.8907 48.1423 33.432 46.7748C33.1757 46.6343 32.9394 46.5587 32.6838 46.4183C32.1256 46.2207 31.6337 46.0061 31.0754 45.8086C30.65 45.574 30.423 45.2822 30.423 44.7829C30.8299 44.4518 31.2847 44.5367 31.758 44.6857C32.4483 44.8454 33.1873 44.9195 33.9254 44.9936C34.0775 45.0214 34.3895 44.8609 34.4844 44.6911C34.9863 43.6917 35.404 42.6452 35.9067 41.6458C35.9824 41.4097 35.9924 41.1928 36.0874 41.023C37.3105 38.5334 37.8903 35.7999 38.725 33.2068C39.6933 30.0767 40.5766 26.9002 41.5448 23.7708C41.9718 22.5067 42.0676 21.339 41.7942 20.1328C41.5109 18.6441 41.3804 17.184 41.2483 15.7238C41.1657 13.1794 41.4993 10.5887 41.9371 8.10909C42.1263 7.27021 42.307 7.14752 43.093 7.13594C44.1624 7.11665 45.2133 7.02943 46.2827 7.00859C46.6332 6.98004 47.0016 7.01708 47.3428 7.20462C48.0239 7.58045 48.7049 7.95629 49.338 8.41702C49.6322 8.69021 49.877 9.04752 50.0383 9.35853C50.785 10.7137 51.0676 12.2024 51.2182 13.7281C51.5008 15.7161 51.7633 17.6378 51.9795 19.6443C52.0359 19.8426 52.0451 20.1243 52.1216 20.3883C52.5362 21.8391 52.6011 23.3178 52.5339 24.835C52.4382 26.0042 52.6922 27.144 52.8142 28.3217C52.8798 28.8025 53.0126 29.2633 53.1446 29.7255C53.2296 29.7718 53.2296 29.7718 53.3153 29.8189C53.7222 29.4886 54.1291 29.1583 54.4712 28.8465Z" fill="#202020"/>
</g>
<defs>
<filter id="filter0_f_1_4440" x="0" y="0" width="92" height="78" filterUnits="userSpaceOnUse" color-interpolation-filters="sRGB">
<feFlood flood-opacity="0" result="BackgroundImageFix"/>
<feBlend mode="normal" in="SourceGraphic" in2="BackgroundImageFix" result="shape"/>
<feGaussianBlur stdDeviation="3.5" result="effect1_foregroundBlur_1_4440"/>
</filter>
</defs>
</svg>
