<svg width="97" height="42" viewBox="0 0 97 42" fill="none" xmlns="http://www.w3.org/2000/svg">
<g filter="url(#filter0_f_1_4428)">
<path d="M13.2032 9.47941C12.4162 9.47941 11.7681 9.63864 11.2589 9.95709C10.7497 10.2755 10.4951 10.7608 10.4951 11.4129C10.4951 12.0498 10.7497 12.5427 11.2589 12.8914C11.7681 13.2251 12.8483 13.589 14.4994 13.9833C16.1659 14.3776 17.4158 14.9311 18.2491 15.6438C19.0978 16.3565 19.5221 17.4105 19.5221 18.8056C19.5221 20.1856 18.9898 21.3078 17.925 22.1722C16.8603 23.0365 15.4638 23.4687 13.7356 23.4687C11.2049 23.4687 8.95972 22.6119 7 20.8983L8.71282 18.8739C10.3485 20.269 12.0459 20.9666 13.805 20.9666C14.6846 20.9666 15.379 20.7846 15.8882 20.4207C16.4128 20.0415 16.6751 19.5487 16.6751 18.9421C16.6751 18.3204 16.4282 17.8427 15.9345 17.5091C15.4561 17.1603 14.6228 16.8494 13.4347 16.5764C12.2465 16.2883 11.3438 16.0305 10.7265 15.803C10.1093 15.5604 9.56152 15.2495 9.08316 14.8704C8.12645 14.1577 7.6481 13.0658 7.6481 11.5949C7.6481 10.1239 8.18818 8.99414 9.26833 8.20558C10.3639 7.40186 11.7141 7 13.3189 7C14.3528 7 15.379 7.16681 16.3974 7.50043C17.4158 7.83405 18.2954 8.30415 19.0361 8.91074L17.5778 10.9352C17.0995 10.5106 16.4514 10.1618 15.6336 9.88885C14.8157 9.61589 14.0056 9.47941 13.2032 9.47941Z" fill="#202020"/>
<path d="M25.032 19.67L23.4118 23.2868H20.4954L27.6244 7.3867H30.5408L37.6699 23.2868H34.7535L33.1332 19.67H25.032ZM32.0222 17.1906L29.0826 10.6395L26.1431 17.1906H32.0222Z" fill="#202020"/>
<path d="M43.1691 19.6473C43.9098 20.4965 44.9128 20.9211 46.1781 20.9211C47.4435 20.9211 48.4465 20.4965 49.1872 19.6473C49.9278 18.798 50.2982 17.6455 50.2982 16.1897V7.3867H53.0294V16.3035C53.0294 18.5933 52.3891 20.36 51.1083 21.6035C49.8275 22.8318 48.1841 23.446 46.1781 23.446C44.1721 23.446 42.5287 22.8318 41.248 21.6035C39.9672 20.36 39.3268 18.5933 39.3268 16.3035V7.3867H42.0581V16.1897C42.0581 17.6455 42.4284 18.798 43.1691 19.6473Z" fill="#202020"/>
<path d="M64.6854 20.8528C65.6267 20.8528 66.4368 20.7012 67.1157 20.3979C67.7947 20.0794 68.5045 19.579 69.2452 18.8966L71.0043 20.6709C69.2915 22.5361 67.2083 23.4687 64.7548 23.4687C62.3168 23.4687 60.2876 22.6953 58.6674 21.1486C57.0625 19.6018 56.2601 17.6455 56.2601 15.2799C56.2601 12.9142 57.078 10.9428 58.7137 9.36567C60.3648 7.78856 62.4402 7 64.94 7C67.4552 7 69.5538 7.90987 71.2358 9.72962L69.4998 11.5949C68.7283 10.867 67.9953 10.359 67.3009 10.0708C66.622 9.7827 65.8196 9.63864 64.8937 9.63864C63.258 9.63864 61.8847 10.1618 60.7737 11.2082C59.6627 12.2394 59.1071 13.5663 59.1071 15.1889C59.1071 16.7963 59.6549 18.146 60.7505 19.2378C61.8615 20.3145 63.1732 20.8528 64.6854 20.8528Z" fill="#202020"/>
<path d="M85.5328 11.1399C84.4372 10.0178 83.087 9.45666 81.4822 9.45666C79.8774 9.45666 78.5194 10.0178 77.4084 11.1399C76.3128 12.2621 75.765 13.6269 75.765 15.2344C75.765 16.8266 76.3128 18.1839 77.4084 19.3061C78.5194 20.4282 79.8774 20.9893 81.4822 20.9893C83.087 20.9893 84.4372 20.4282 85.5328 19.3061C86.6438 18.1839 87.1993 16.8266 87.1993 15.2344C87.1993 13.6269 86.6438 12.2621 85.5328 11.1399ZM87.5465 21.1031C85.9108 22.665 83.8894 23.446 81.4822 23.446C79.075 23.446 77.0535 22.665 75.4178 21.1031C73.7822 19.5259 72.9643 17.5697 72.9643 15.2344C72.9643 12.8839 73.7822 10.9276 75.4178 9.36567C77.0535 7.78856 79.075 7 81.4822 7C83.8894 7 85.9108 7.78856 87.5465 9.36567C89.1822 10.9276 90 12.8839 90 15.2344C90 17.5697 89.1822 19.5259 87.5465 21.1031Z" fill="#202020"/>
<path d="M50.9683 30.5993V31.2902H48.6059V32.4418H50.7277V33.0953H48.6059V34.2593H51.0443V34.9502H47.8585V30.5993H50.9683Z" fill="#202020"/>
<path d="M53.339 31.172C53.1237 31.172 52.9463 31.2155 52.807 31.3027C52.6677 31.3898 52.598 31.5226 52.598 31.701C52.598 31.8753 52.6677 32.0102 52.807 32.1056C52.9463 32.1969 53.2419 32.2965 53.6937 32.4044C54.1497 32.5123 54.4918 32.6638 54.7198 32.8588C54.952 33.0538 55.0681 33.3422 55.0681 33.724C55.0681 34.1016 54.9225 34.4087 54.6311 34.6452C54.3398 34.8817 53.9576 35 53.4847 35C52.7922 35 52.1778 34.7655 51.6416 34.2966L52.1103 33.7427C52.5579 34.1244 53.0223 34.3153 53.5037 34.3153C53.7444 34.3153 53.9344 34.2655 54.0737 34.1659C54.2173 34.0622 54.2891 33.9273 54.2891 33.7613C54.2891 33.5912 54.2215 33.4605 54.0864 33.3692C53.9555 33.2738 53.7275 33.1887 53.4024 33.114C53.0772 33.0352 52.8302 32.9646 52.6613 32.9024C52.4924 32.836 52.3425 32.7509 52.2116 32.6472C51.9498 32.4521 51.8189 32.1534 51.8189 31.7508C51.8189 31.3483 51.9667 31.0392 52.2623 30.8234C52.5621 30.6035 52.9316 30.4935 53.3707 30.4935C53.6536 30.4935 53.9344 30.5392 54.2131 30.6304C54.4918 30.7217 54.7325 30.8504 54.9351 31.0164L54.5361 31.5703C54.4052 31.4541 54.2279 31.3587 54.0041 31.284C53.7803 31.2093 53.5586 31.172 53.339 31.172Z" fill="#202020"/>
<path d="M57.6642 31.2716V34.9502H56.9168V31.2716H55.5741V30.5993H59.007V31.2716H57.6642Z" fill="#202020"/>
<path d="M62.6484 33.002C62.9482 32.7032 63.1615 32.4687 63.2881 32.2986C63.4148 32.1285 63.4781 31.9563 63.4781 31.782C63.4781 31.6077 63.4106 31.4604 63.2755 31.34C63.1403 31.2155 62.9693 31.1533 62.7624 31.1533C62.3993 31.1533 62.0974 31.3359 61.8567 31.701L61.255 31.3587C61.4492 31.0724 61.6625 30.8566 61.8947 30.7114C62.1312 30.5661 62.4331 30.4935 62.8004 30.4935C63.172 30.4935 63.4971 30.6097 63.7758 30.8421C64.0545 31.0703 64.1939 31.3836 64.1939 31.782C64.1939 32.006 64.1347 32.2197 64.0165 32.4231C63.8983 32.6264 63.6808 32.8878 63.3641 33.2074L62.3254 34.2468H64.3332V34.9502H61.3057V34.3278L62.6484 33.002Z" fill="#202020"/>
<path d="M66.0235 31.5703C65.8503 31.8691 65.7638 32.2612 65.7638 32.7468C65.7638 33.2323 65.8503 33.6244 66.0235 33.9232C66.2008 34.2219 66.4753 34.3713 66.8468 34.3713C67.2184 34.3713 67.4887 34.224 67.6576 33.9294C67.8307 33.6306 67.9172 33.2364 67.9172 32.7468C67.9172 32.2571 67.8307 31.865 67.6576 31.5703C67.4887 31.2716 67.2184 31.1222 66.8468 31.1222C66.4753 31.1222 66.2008 31.2716 66.0235 31.5703ZM65.4914 34.39C65.1916 33.9792 65.0417 33.4314 65.0417 32.7468C65.0417 32.0621 65.1916 31.5164 65.4914 31.1097C65.7912 30.6989 66.243 30.4935 66.8468 30.4935C67.4507 30.4935 67.9025 30.6989 68.2023 31.1097C68.5021 31.5164 68.652 32.0621 68.652 32.7468C68.652 33.4314 68.5021 33.9792 68.2023 34.39C67.9025 34.7967 67.4507 35 66.8468 35C66.243 35 65.7912 34.7967 65.4914 34.39Z" fill="#202020"/>
<path d="M69.2123 30.5993H70.8211V34.9502H70.1117V31.2529H69.2123V30.5993Z" fill="#202020"/>
<path d="M73.1257 34.3402C73.5184 34.3402 73.8076 34.2095 73.9934 33.9481C74.1792 33.6866 74.2742 33.3339 74.2784 32.8899C74.1729 33.0061 74.0209 33.1161 73.8224 33.2198C73.624 33.3194 73.4044 33.3692 73.1637 33.3692C72.7668 33.3692 72.4332 33.2406 72.163 32.9833C71.897 32.7219 71.7639 32.3774 71.7639 31.95C71.7639 31.5185 71.9075 31.172 72.1946 30.9105C72.486 30.6491 72.8512 30.5184 73.2904 30.5184C73.9998 30.5184 74.4896 30.8296 74.7598 31.4521C74.9118 31.8089 74.9878 32.2115 74.9878 32.6596C74.9878 33.1078 74.9393 33.4812 74.8421 33.78C74.745 34.0788 74.612 34.3153 74.4431 34.4896C74.1138 34.8299 73.7084 35 73.227 35C72.7499 35 72.3171 34.8527 71.9286 34.5581L72.3023 34.0165C72.3994 34.0995 72.5282 34.1742 72.6887 34.2406C72.8533 34.307 72.999 34.3402 73.1257 34.3402ZM73.2587 32.7219C73.5163 32.7219 73.7295 32.6534 73.8984 32.5164C74.0715 32.3754 74.1581 32.1949 74.1581 31.9749C74.1581 31.7508 74.0758 31.56 73.9111 31.4023C73.7464 31.2404 73.5395 31.1595 73.2904 31.1595C73.0455 31.1595 72.8428 31.2321 72.6823 31.3774C72.5219 31.5185 72.4417 31.701 72.4417 31.9251C72.4417 32.1492 72.5134 32.338 72.657 32.4916C72.8048 32.6451 73.0054 32.7219 73.2587 32.7219Z" fill="#202020"/>
</g>
<defs>
<filter id="filter0_f_1_4428" x="0" y="0" width="97" height="42" filterUnits="userSpaceOnUse" color-interpolation-filters="sRGB">
<feFlood flood-opacity="0" result="BackgroundImageFix"/>
<feBlend mode="normal" in="SourceGraphic" in2="BackgroundImageFix" result="shape"/>
<feGaussianBlur stdDeviation="3.5" result="effect1_foregroundBlur_1_4428"/>
</filter>
</defs>
</svg>
