<svg width="16" height="13" viewBox="0 0 16 13" fill="none" xmlns="http://www.w3.org/2000/svg">
<path d="M14.3243 3.84888C14.334 3.97975 14.334 4.11065 14.334 4.24153C14.334 8.23334 11.1791 12.8328 5.41296 12.8328C3.63652 12.8328 1.98629 12.3373 0.598145 11.4773C0.850543 11.5053 1.0932 11.5147 1.35531 11.5147C2.82109 11.5147 4.17042 11.0379 5.24794 10.2246C3.8695 10.1966 2.71433 9.32714 2.31632 8.13052C2.51048 8.15855 2.70462 8.17725 2.90849 8.17725C3.18999 8.17725 3.47152 8.13984 3.7336 8.07444C2.29693 7.79396 1.21939 6.57866 1.21939 5.11094V5.07356C1.63678 5.29792 2.12219 5.43815 2.63664 5.45682C1.7921 4.9146 1.23881 3.9891 1.23881 2.94206C1.23881 2.38115 1.3941 1.86698 1.66592 1.41825C3.20938 3.25056 5.52944 4.44716 8.13097 4.57806C8.08244 4.35369 8.05331 4.12 8.05331 3.88629C8.05331 2.22222 9.45117 0.866699 11.1888 0.866699C12.0915 0.866699 12.9069 1.23129 13.4797 1.82025C14.1883 1.68938 14.8678 1.43695 15.4697 1.09107C15.2367 1.79222 14.7416 2.38118 14.0912 2.7551C14.7222 2.68969 15.3338 2.52138 15.8968 2.28769C15.4697 2.88597 14.9358 3.41882 14.3243 3.84888Z" fill="#0E0E0E"/>
</svg>
